<svg xmlns="http://www.w3.org/2000/svg" width="105" height="101" viewBox="0 0 105 101" fill="none">
  <g clip-path="url(#clip0_1215_4426)">
    <path d="M79.5863 22.5816C79.0461 23.959 78.4349 25.4023 77.7527 26.9059C76.7323 29.1394 76.0556 31.51 75.7664 33.9356C75.6845 34.6435 75.6299 35.3569 75.6136 36.0703C75.5863 37.091 75.5808 38.2214 75.6136 39.4397C75.6681 41.2945 75.8046 43.3578 76.0938 45.5364C76.0065 45.5584 75.9192 45.5748 75.8319 45.5913C58.3146 49.0211 40.8682 51.485 27.2473 53.1368C29.0973 46.6614 29.381 40.3726 29.2719 36.0703C29.19 32.8984 28.4424 29.7924 27.1327 26.9059C26.4506 25.4023 25.8394 23.959 25.2991 22.5816C19.4546 7.7266 21.2663 0 21.2663 0H83.6191C83.6191 0 85.4309 7.7266 79.5863 22.5816Z" fill="#FEC0AD"/>
    <path d="M83.5809 66.2031C76.7868 67.114 65.376 67.7122 52.4427 67.7122C39.5094 67.7122 28.0986 67.114 21.3045 66.2031C21.8066 65.122 22.3632 64.0739 22.9744 63.0751C23.1872 62.7239 23.3946 62.3727 23.5856 62.0215C24.164 60.9953 24.6879 59.9581 25.1572 58.9045C26.014 56.9948 26.6961 55.0577 27.2473 53.137C40.8682 51.4852 58.3145 49.0213 75.8318 45.5915C75.9191 45.575 76.0064 45.5586 76.0938 45.5366C76.312 47.2762 76.6286 49.0871 77.0651 50.9365C77.9273 54.6187 79.2643 58.4271 81.2944 62.0215C81.4908 62.3727 81.6982 62.7239 81.911 63.0751C82.5222 64.0739 83.0788 65.122 83.5809 66.2031Z" fill="#FEC0AD"/>
    <path d="M88.3613 101H16.535C16.535 101 14.565 80.5643 21.31 66.2031C28.1041 67.1141 39.5149 67.7122 52.4482 67.7122C65.3815 67.7122 76.7923 67.1141 83.5864 66.2031C90.3259 80.5588 88.3613 101 88.3613 101Z" fill="#4582E9"/>
    <path d="M54.2738 87.1826H50.9996V100.995H54.2738V87.1826Z" fill="#346FD1"/>
    <path d="M53.2831 89.8221C53.0485 89.8221 52.8083 89.7727 52.5846 89.663L38.9419 83.1821C38.1233 82.7925 37.774 81.8102 38.1615 80.9925C38.5489 80.1694 39.5258 79.8182 40.3389 80.2078L53.9816 86.6887C54.8002 87.0783 55.1494 88.0606 54.762 88.8783C54.4837 89.4709 53.8943 89.8221 53.2831 89.8221Z" fill="#346FD1"/>
    <path d="M79.5918 22.5816C74.3148 24.2499 61.054 27.1858 52.4482 18.197C43.8423 27.1913 30.5761 24.2499 25.3046 22.5816C19.46 7.7266 21.2718 0 21.2718 0H83.6246C83.6246 0 85.4363 7.7266 79.5918 22.5816Z" fill="#3371DA"/>
    <path d="M52.4482 61.2034C53.8918 61.2034 55.0621 60.0266 55.0621 58.5749C55.0621 57.1231 53.8918 55.9463 52.4482 55.9463C51.0045 55.9463 49.8342 57.1231 49.8342 58.5749C49.8342 60.0266 51.0045 61.2034 52.4482 61.2034Z" fill="#F69582"/>
    <path d="M29.0376 48.869C29.0976 48.88 29.1631 48.8964 29.2286 48.9074C48.0828 52.6006 66.8553 55.1798 80.9455 56.8371C89.0002 57.7864 95.5323 58.434 99.6688 58.8126H99.6797C102.757 59.098 104.504 59.2352 104.586 59.2406L105 53.7695C104.924 53.7585 103.26 53.6268 100.329 53.3689C100.313 53.3634 100.302 53.3634 100.285 53.3634C95.7451 52.9408 88.2034 52.1945 78.8554 51.0695C65.2345 49.4178 47.7882 46.9538 30.2709 43.524C30.1836 43.5076 30.0963 43.4911 30.0089 43.4692C26.0798 42.7009 23.2312 41.9985 21.1684 41.3948C20.8192 41.2961 20.5791 41.0766 20.4372 40.8131C20.2407 40.451 20.2407 40.001 20.4263 39.6443C20.5736 39.3534 20.841 39.1175 21.223 39.0242C23.4713 38.4864 26.2163 37.9706 29.0758 37.5645C29.1576 37.5535 29.2395 37.5425 29.3213 37.5315C29.3377 36.5877 29.3323 35.2377 29.3268 34.0414C29.3159 33.2292 29.3104 32.4884 29.305 32C27.5041 32.2469 24.8465 32.6475 22.1562 33.1963C14.1397 34.8426 10.8218 36.7797 10.6908 39.8912C10.5216 43.8204 15.3293 46.1746 29.0376 48.869Z" fill="#FFB31A"/>
    <path d="M29.3978 37.4604C29.4141 36.5165 29.4087 35.1665 29.4032 33.9702L28.6774 34.0745L29.1522 37.4933L29.3978 37.4658" fill="#4D5055"/>
    <path d="M23.3786 36.5714L23.7333 38.4592L24.3663 38.3384L24.0116 36.4507L23.3786 36.5714Z" fill="#4D5055"/>
    <path d="M17.1411 39.8421L17.2121 41.0055L20.4809 40.8134C20.2844 40.4512 20.2844 40.0012 20.4699 39.6445L17.1411 39.8421Z" fill="#4D5055"/>
    <path d="M23.4604 43.9904L24.088 44.1386L24.53 42.2728L23.9025 42.1191L23.4604 43.9904Z" fill="#4D5055"/>
    <path d="M28.4919 46.7124L29.627 46.9539L30.3309 43.568L29.1958 43.332L28.4919 46.7124Z" fill="#4D5055"/>
    <path d="M34.7512 46.3174L35.3842 46.4382L35.7498 44.5559L35.1222 44.4297L34.7512 46.3174Z" fill="#4D5055"/>
    <path d="M41.6981 45.6316L41.1196 48.787L39.9791 48.573L40.5466 45.4341L41.6981 45.6316Z" fill="#4D5055"/>
    <path d="M46.1565 47.9472L46.664 48.035L46.9259 46.5259L46.4184 46.4326L46.1565 47.9472Z" fill="#4D5055"/>
    <path d="M52.8469 47.4755L52.3121 50.7352L51.177 50.5486L51.7009 47.2944L52.8469 47.4755Z" fill="#4D5055"/>
    <path d="M57.3981 49.6099L57.9111 49.6867L58.1458 48.1722L57.6328 48.0898L57.3981 49.6099Z" fill="#4D5055"/>
    <path d="M62.4132 52.3154L63.5592 52.48L64.0558 49.0612L62.9098 48.8911L62.4132 52.3154Z" fill="#4D5055"/>
    <path d="M68.5961 51.6405L69.2346 51.7229L69.491 49.8241L68.8526 49.7363L68.5961 51.6405Z" fill="#4D5055"/>
    <path d="M73.8731 53.8795L75.0246 54.0222L75.4448 50.5924L74.2988 50.4497L73.8731 53.8795Z" fill="#4D5055"/>
    <path d="M80.0505 53.0728L80.6945 53.1441L80.9073 51.2344L80.2634 51.1631L80.0505 53.0728Z" fill="#4D5055"/>
    <path d="M86.8719 51.9914L86.5445 55.3005L85.3876 55.1853L85.715 51.8652L86.8719 51.9914Z" fill="#4D5055"/>
    <path d="M92.3235 52.579L92.1762 54.2747L91.5377 54.2198L91.6796 52.5132L92.3235 52.579Z" fill="#4D5055"/>
    <path d="M98.2882 53.1771L98.0863 56.2557L96.9239 56.1789L97.1367 53.0674L98.2882 53.1771Z" fill="#4D5055"/>
    <path d="M99.6797 58.8124C102.757 59.0977 104.504 59.2349 104.586 59.2404L105 53.7692C104.924 53.7583 103.26 53.6266 100.329 53.3687L100.16 54.7735L102.343 55.0973L101.901 57.3362L99.8816 57.1277L99.6797 58.8124Z" fill="#C1C1C1"/>
    <path d="M29.3214 37.5314L29.8834 37.4546C29.6924 37.4765 29.5069 37.504 29.3214 37.5314Z" fill="#C1C1C1"/>
    <path d="M75.9628 48.869C75.9028 48.88 75.8373 48.8964 75.7718 48.9074C56.9175 52.6006 38.1451 55.1798 24.0549 56.8371C16.0002 57.7864 9.46806 58.434 5.33158 58.8126H5.32067C2.24287 59.098 0.496596 59.2352 0.414739 59.2406L0 53.7695C0.0763994 53.7585 1.74081 53.6268 4.67128 53.3689C4.68765 53.3634 4.69856 53.3634 4.71493 53.3634C9.25524 52.9408 16.7969 52.1945 26.145 51.0695C39.7659 49.4178 57.2122 46.9538 74.7295 43.524C74.8168 43.5076 74.9041 43.4911 74.9914 43.4692C78.9205 42.7009 81.7691 41.9985 83.8319 41.3948C84.1812 41.2961 84.4213 41.0766 84.5632 40.8131C84.7596 40.451 84.7596 40.001 84.5741 39.6443C84.4267 39.3534 84.1593 39.1175 83.7774 39.0242C81.529 38.4864 78.7841 37.9706 75.9246 37.5645C75.8427 37.5535 75.7609 37.5425 75.679 37.5315C75.6626 36.5877 75.6681 35.2377 75.6736 34.0414C75.6845 33.2292 75.6899 32.4884 75.6954 32C77.4962 32.2469 80.1538 32.6475 82.8442 33.1963C90.8607 34.8426 94.1786 36.7797 94.3095 39.8912C94.4787 43.8204 89.671 46.1746 75.9628 48.869Z" fill="#FFB31A"/>
    <path d="M75.6026 37.4658L75.8482 37.4988L76.3229 34.0745L75.5971 33.9702C75.5917 35.1665 75.5862 36.5165 75.6026 37.4604" fill="#4D5055"/>
    <path d="M80.9833 36.4507L80.6286 38.3384L81.2616 38.4592L81.6163 36.5714L80.9833 36.4507Z" fill="#4D5055"/>
    <path d="M84.525 39.6445C84.7105 40.0012 84.7105 40.4512 84.514 40.8134L87.7828 41.0055L87.8538 39.8421L84.525 39.6445Z" fill="#4D5055"/>
    <path d="M81.0979 42.1191L80.4703 42.2728L80.9124 44.1386L81.5399 43.9904L81.0979 42.1191Z" fill="#4D5055"/>
    <path d="M75.8045 43.332L74.6694 43.568L75.3734 46.9539L76.5085 46.7124L75.8045 43.332Z" fill="#4D5055"/>
    <path d="M69.8781 44.4297L69.2505 44.5559L69.6162 46.4382L70.2492 46.3174L69.8781 44.4297Z" fill="#4D5055"/>
    <path d="M64.4538 45.4341L65.0213 48.573L63.8808 48.787L63.3023 45.6316L64.4538 45.4341Z" fill="#4D5055"/>
    <path d="M58.5765 46.4326L58.069 46.5259L58.3309 48.035L58.8384 47.9472L58.5765 46.4326Z" fill="#4D5055"/>
    <path d="M53.2994 47.2944L53.8233 50.5486L52.6882 50.7352L52.1534 47.4755L53.2994 47.2944Z" fill="#4D5055"/>
    <path d="M47.3676 48.0898L46.8546 48.1722L47.0893 49.6867L47.6022 49.6099L47.3676 48.0898Z" fill="#4D5055"/>
    <path d="M42.0851 48.8911L40.9391 49.0612L41.4357 52.48L42.5817 52.3154L42.0851 48.8911Z" fill="#4D5055"/>
    <path d="M36.1478 49.7363L35.5093 49.8241L35.7658 51.7229L36.4043 51.6405L36.1478 49.7363Z" fill="#4D5055"/>
    <path d="M30.7016 50.4497L29.5556 50.5924L29.9758 54.0222L31.1272 53.8795L30.7016 50.4497Z" fill="#4D5055"/>
    <path d="M24.737 51.1631L24.0931 51.2344L24.3059 53.1441L24.9498 53.0728L24.737 51.1631Z" fill="#4D5055"/>
    <path d="M19.2854 51.8652L19.6128 55.1853L18.4559 55.3005L18.1285 51.9914L19.2854 51.8652Z" fill="#4D5055"/>
    <path d="M13.3208 52.5132L13.4626 54.2198L12.8242 54.2747L12.6768 52.579L13.3208 52.5132Z" fill="#4D5055"/>
    <path d="M7.86367 53.0674L8.07649 56.1789L6.91413 56.2557L6.71222 53.1771L7.86367 53.0674Z" fill="#4D5055"/>
    <path d="M5.32067 58.8124C2.24287 59.0977 0.496596 59.2349 0.414739 59.2404L0 53.7692C0.0763994 53.7583 1.74081 53.6266 4.67128 53.3687L4.84044 54.7735L2.65761 55.0973L3.09963 57.3362L5.11876 57.1277L5.32067 58.8124Z" fill="#C1C1C1"/>
    <path d="M75.679 37.5314L75.1169 37.4546C75.3079 37.4765 75.4935 37.504 75.679 37.5314Z" fill="#C1C1C1"/>
  </g>
  <defs>
    <clipPath id="clip0_1215_4426">
      <rect width="105" height="101" fill="white"/>
    </clipPath>
  </defs>
</svg>