<svg width="135" height="150" viewBox="0 0 135 150" fill="none" xmlns="http://www.w3.org/2000/svg">
<g clip-path="url(#clip0_2770_3878)">
<path d="M108.163 62.0262C108.163 62.0262 105.344 62.5317 101.877 62.0582C98.4112 61.5787 95.3365 60.7214 94.6837 58.7775C94.0309 56.8337 95.3334 56.4729 96.0921 56.7402L108.166 62.0294L108.163 62.0262Z" fill="#B0D1F1"/>
<path d="M111.803 63.4734L110.06 62.7885L109.345 62.5069L108.165 62.0295L95.9677 57.078C95.8768 57.0426 95.8312 56.9416 95.8633 56.8534C95.8872 56.7888 95.9396 56.745 96.0041 56.7355C96.0287 56.7316 96.05 56.7305 96.0736 56.7386C96.0796 56.7392 96.0883 56.743 96.0971 56.7468L109.673 61.5019L109.869 61.5496L111.545 61.9678L111.809 63.48L111.803 63.4734Z" fill="#C7D7EC"/>
<path d="M106.942 66.7495C106.327 66.9801 105.611 67.1957 104.819 67.3349C102.247 67.7835 95.7321 66.7431 95.7321 66.7431C95.7321 66.7431 94.5786 65.1127 93.8829 63.9626C93.6478 63.5688 93.6543 63.0842 93.8908 62.7079C93.9262 62.6504 93.9644 62.5962 94.0113 62.5457C94.5567 61.933 95.4652 61.0552 96.4941 60.6337C96.7804 60.5166 97.0755 60.4365 97.3724 60.4052C99.3469 60.1948 104.843 61.515 105.991 62.2413C106.037 62.2696 106.077 62.2974 106.108 62.3274C106.708 62.8445 108.139 63.808 108.867 64.2848C109.133 64.463 109.303 64.572 109.303 64.572L110.382 64.6372L112.026 64.7372L112.285 66.2308L110.601 65.9028L109.164 65.6241C109.164 65.6241 108.316 66.2283 106.942 66.7495Z" fill="#D7EBFF"/>
<path d="M106.942 66.7491C106.327 66.9798 105.611 67.1953 104.819 67.3345C102.247 67.7831 95.732 66.7427 95.732 66.7427C95.732 66.7427 94.5784 65.1123 93.8827 63.9622C93.6477 63.5684 93.6542 63.0838 93.8906 62.7075L108.867 64.2844C109.133 64.4626 109.303 64.5716 109.303 64.5716L110.382 64.6368L112.026 64.7368L112.285 66.2304L110.601 65.9024L109.164 65.6237C109.164 65.6237 108.316 66.2279 106.942 66.7491Z" fill="#B0D1F1"/>
<path d="M97.3315 74.601L96.8595 74.1439L94.2085 71.5835C94.0994 71.4799 94.0067 71.3625 93.9391 71.2352L112.59 67.9914L112.744 68.8815L111.149 69.0527L109.61 69.2166C109.61 69.2166 108.603 70.1039 107.468 71.0102C106.642 71.6679 105.753 72.3351 105.122 72.6796C103.624 73.4992 97.3293 74.5917 97.3293 74.5917L97.3315 74.601Z" fill="#C7DDF3"/>
<path d="M112.59 67.9918L93.9396 71.2355C93.7057 70.8297 93.658 70.3404 93.8287 69.8855C94.2248 68.835 94.8867 67.2834 95.4263 66.943C95.5322 66.8766 95.6294 66.8063 95.7326 66.7366C96.4261 66.2673 97.2873 65.7523 100.643 65.8005L100.465 67.9498L102.308 65.866C102.579 65.8839 102.844 65.9074 103.103 65.9302L103.146 66.5071L103.73 66.0009C104.986 66.1636 106.05 66.4154 106.946 66.7403C107.994 67.1212 108.81 67.6027 109.43 68.164L110.936 67.8L112.498 67.4226L112.597 67.9863L112.59 67.9918Z" fill="#D7EBFF"/>
<path d="M99.6084 79.509C98.7032 79.4926 97.9005 79.3457 97.3348 79.0228C97.0144 78.8398 96.7466 78.6796 96.5286 78.539C96.2733 78.3739 96.0733 78.2349 95.9259 78.1188C95.6164 77.8822 95.4781 77.4909 95.5576 77.1068C95.7101 76.3774 96.0772 75.0726 96.8631 74.1415C97.1243 73.828 97.4393 73.5587 97.802 73.3665C99.5515 72.4418 104.087 70.6659 107.474 71.0171C107.882 71.0594 108.27 71.1301 108.64 71.2386L110.05 71.2997L111.425 70.5996L112.918 69.8402L113.175 71.3185L111.641 71.862L110.467 72.2766C110.467 72.2766 109.509 73.8869 108.283 75.4704C107.335 76.6934 106.231 77.9026 105.282 78.3402C103.812 79.0198 101.494 79.5455 99.6084 79.509Z" fill="#C7DDF3"/>
<path d="M98.2888 83.1157C97.5405 81.2241 99.6119 79.5061 99.6119 79.5061C99.6119 79.5061 99.8428 79.3294 100.218 79.0595L101.058 79.4704L101.156 78.4025C101.898 77.8981 102.814 77.3091 103.677 76.8427C105.591 75.8142 110.08 75.1471 110.08 75.1471L101.584 82.5401C101.584 82.5401 99.0312 85.0068 98.2828 83.1152L98.2888 83.1157Z" fill="#E6F0FB"/>
<path d="M113.595 68.7929L112.747 68.8846L112.494 67.431L113.333 67.2293C113.297 67.5658 113.289 68.2079 113.595 68.7929Z" fill="#D0DEF0"/>
<path d="M103.031 65.0469L103.036 65.0649L103.015 65.066L103.031 65.0469Z" fill="#D4D2E8"/>
<path d="M99.6602 83.4429C99.5565 83.2791 99.5997 83.0646 99.7526 82.9477L110.085 75.1472L111.223 74.2897L111.955 73.6934L113.377 72.5305L113.64 74.0427L112.184 74.9448L111.84 75.16L101.589 82.5462L100.193 83.5537C100.183 83.5619 100.177 83.5674 100.164 83.5724C100.154 83.5806 100.139 83.5883 100.126 83.5933C100.123 83.596 100.119 83.5987 100.116 83.6015C99.9496 83.6686 99.7575 83.6122 99.6564 83.4516L99.6602 83.4429Z" fill="#C7DDF3"/>
<path d="M113.075 75.4632C112.856 75.5015 112.643 75.4462 112.477 75.3285C112.343 75.2347 112.239 75.1043 112.181 74.9414C112.167 74.8977 112.152 74.854 112.147 74.808L109.87 61.7223C109.857 61.6606 109.856 61.5999 109.858 61.5424C109.875 61.177 110.146 60.8614 110.522 60.7976C110.74 60.7593 110.954 60.8146 111.119 60.9323C111.285 61.0501 111.411 61.2341 111.446 61.4495L113.724 74.5352C113.798 74.9693 113.506 75.3862 113.069 75.4627L113.075 75.4632Z" fill="#D0DEF0"/>
<path d="M96.5256 78.5417C96.2704 78.3766 96.0704 78.2376 95.923 78.1214C95.6134 77.8848 95.4752 77.4936 95.5547 77.1094C95.7072 76.38 96.0743 75.0753 96.8602 74.1441C97.1214 73.8307 97.4363 73.5614 97.799 73.3691C99.5486 72.4444 104.084 70.6686 107.471 71.0198C107.879 71.062 108.267 71.1327 108.637 71.2412L110.047 71.3024L96.5284 78.5449L96.5256 78.5417Z" fill="#E6F0FB"/>
<path d="M113.644 74.0403L113.38 72.5281L114.737 71.4201L116.159 70.2572L116.956 69.6061L117.117 69.9174L117.424 70.5177L118.132 71.2566L114.863 73.2809L113.644 74.0403Z" fill="#D0DEF0"/>
<path d="M114.863 73.2814C114.616 72.3073 114.632 71.7478 114.734 71.4232L116.156 70.2603L116.953 69.6092L117.114 69.9206L117.425 70.5182L118.132 71.257L114.866 73.2846L114.863 73.2814Z" fill="#EBEEF1"/>
<path d="M113.972 64.3265L111.804 63.4736L111.54 61.9614L112.991 62.3233C113.114 62.9558 113.388 63.6957 113.972 64.3265Z" fill="#C7D7EC"/>
<path d="M116.232 65.2153L115.59 64.9614L113.975 64.3303C113.389 63.6962 113.117 62.9596 112.994 62.3271L116.344 63.1602L116.851 63.287L116.481 64.0486L116.406 64.2058L116.272 65.0035L116.238 65.2158L116.232 65.2153Z" fill="#B2AFD6"/>
<path d="M125.646 66.0188C126.064 68.4175 124.458 70.7002 122.059 71.1177L119.749 71.5198L118.237 62.8338L120.547 62.4317C122.946 62.0142 125.229 63.62 125.646 66.0188Z" fill="#D0DEF0"/>
<path d="M123.119 68.018C123.263 68.847 122.706 69.6334 121.881 69.7769L119.521 70.1878L118.998 67.1873L121.359 66.7764C122.188 66.6321 122.975 67.189 123.118 68.0138L123.119 68.018Z" fill="white"/>
<path d="M116.232 65.2151L115.59 64.9612L113.975 64.3301C113.389 63.696 113.117 62.9594 112.994 62.3269L116.344 63.16L116.481 64.0484L116.406 64.2056L116.272 65.0033L116.238 65.2156L116.232 65.2151Z" fill="#B0D1F1"/>
<path d="M116.423 66.4804L116.618 66.434L116.649 67.4556L116.966 68.4267L116.776 68.4463L115.334 68.6008L113.592 68.7893C113.284 68.201 113.295 67.5621 113.33 67.2257L115.143 66.7887L116.42 66.4772L116.423 66.4804Z" fill="#BDBAE6"/>
<path d="M116.639 67.9436L116.779 68.4502L115.337 68.6047L116.639 67.9436Z" fill="#1A191D"/>
<path d="M116.158 70.2566L116.955 69.6055L117.116 69.9169L116.158 70.2566Z" fill="#DDDBF0"/>
<path d="M116.428 67.0396L115.143 66.7895L114.109 66.5858L113.763 66.5188L113.43 66.4529L112.285 66.2303L112.026 64.7367L113.003 64.7989L113.259 64.8125L114.206 64.872L115.587 64.9579L116.269 65L116.399 65.0084C116.436 65.2331 116.477 65.4611 116.509 65.6792L116.416 66.0136L116.423 66.4812L116.431 67.0429L116.428 67.0396Z" fill="#C7D7EC"/>
<path d="M116.428 67.0397L115.144 66.7896L114.109 66.5859L113.764 66.5189C113.217 65.9793 113.055 65.2403 113.003 64.799L113.26 64.8126L114.206 64.8721L115.588 64.958L116.269 65.0001L116.399 65.0085C116.437 65.2332 116.477 65.4612 116.509 65.6793L116.416 66.0137L116.423 66.4813L116.431 67.043L116.428 67.0397Z" fill="#B0D1F1"/>
<path d="M116.966 68.4267L116.776 68.4463L115.334 68.6008L113.592 68.7893C113.284 68.201 113.295 67.5621 113.33 67.2257L115.143 66.7887L116.42 66.4772L116.615 66.4308L116.646 67.4523L116.963 68.4235L116.966 68.4267Z" fill="#C7DDF3"/>
<path d="M113.169 71.317L112.911 69.8388L114.191 69.1849L115.277 68.632L115.337 68.604L115.362 68.6001L116.779 68.4496L116.907 68.9278L117.439 69.8027L117.116 69.9167L116.956 69.6054L116.158 70.2565L114.067 70.9993L113.169 71.317Z" fill="#D0DEF0"/>
<path d="M114.192 69.1853C114.113 69.5301 113.949 70.3799 114.065 70.9965L116.156 70.2537L116.953 69.6026L117.114 69.9139L117.436 69.7999L116.904 68.925L116.777 68.4468L115.366 68.5979L115.281 68.6298L114.195 69.1826L114.192 69.1853Z" fill="#EBEEF1"/>
<path d="M119.623 70.8215L118.359 63.5579C118.239 62.8722 117.587 62.4131 116.901 62.5325C116.215 62.6518 115.756 63.3044 115.876 63.99L117.14 71.2536C117.259 71.9392 117.912 72.3983 118.597 72.279C119.283 72.1597 119.742 71.5071 119.623 70.8215Z" fill="#F5432B"/>
<path d="M38.0893 129.188C38.0893 129.188 39.4335 131.711 40.06 135.17C40.6807 138.63 40.8265 141.84 39.2064 143.094C37.5863 144.349 36.8461 143.225 36.8623 142.414L38.0915 129.184L38.0893 129.188Z" fill="#B0D1F1"/>
<path d="M38.2949 125.271L38.1907 127.154L38.1473 127.926L38.0637 129.205L37.1846 142.429C37.1795 142.527 37.0989 142.603 37.0065 142.602C36.9387 142.6 36.8815 142.564 36.8528 142.506C36.8416 142.484 36.834 142.464 36.8343 142.439C36.833 142.433 36.8338 142.423 36.8347 142.414L37.1054 127.94L37.0897 127.738L36.965 126.006L38.2994 125.264L38.2949 125.271Z" fill="#C7D7EC"/>
<path d="M42.9252 128.85C43.3324 129.362 43.757 129.977 44.1331 130.688C45.3516 133 46.3938 139.565 46.3938 139.565C46.3938 139.565 45.2199 141.198 44.3552 142.237C44.0582 142.59 43.601 142.741 43.1742 142.638C43.1092 142.623 43.0464 142.604 42.9845 142.576C42.2398 142.254 41.1337 141.672 40.4189 140.825C40.2201 140.59 40.0535 140.334 39.932 140.06C39.1224 138.242 38.6589 132.56 38.9851 131.226C38.9975 131.173 39.0112 131.125 39.0298 131.086C39.3295 130.345 39.791 128.663 40.0133 127.812C40.0981 127.5 40.148 127.303 40.148 127.303L39.8746 126.25L39.459 124.646L40.7817 123.912L40.9957 125.629L41.1792 127.093C41.1792 127.093 42.0096 127.706 42.9252 128.85Z" fill="#D7EBFF"/>
<path d="M42.9254 128.85C43.3327 129.362 43.7573 129.977 44.1334 130.688C45.3521 133 46.3944 139.566 46.3944 139.566C46.3944 139.566 45.2204 141.199 44.3556 142.238C44.0586 142.591 43.6013 142.743 43.1745 142.639L40.0133 127.813C40.0982 127.5 40.1481 127.303 40.1481 127.303L39.8746 126.25L39.459 124.646L40.7817 123.912L40.9958 125.629L41.1793 127.093C41.1793 127.093 42.0098 127.706 42.9254 128.85Z" fill="#B0D1F1"/>
<path d="M53.3435 135.539L53.059 136.141L51.4682 139.522C51.4043 139.661 51.3225 139.788 51.2234 139.895L42.3706 123.065L43.1618 122.625L43.8187 124.099L44.4517 125.523C44.4517 125.523 45.6011 126.198 46.8084 126.99C47.685 127.567 48.5907 128.202 49.1115 128.695C50.3496 129.863 53.3354 135.544 53.3354 135.544L53.3435 135.539Z" fill="#C7DDF3"/>
<path d="M42.3715 123.05L51.2209 139.865C50.9113 140.222 50.4651 140.428 49.9835 140.413C48.8708 140.376 47.2034 140.249 46.7151 139.843C46.6196 139.763 46.5233 139.693 46.4256 139.617C45.768 139.106 45.0152 138.448 44.0184 135.217L46.0985 134.685L43.5628 133.6C43.4955 133.334 43.4353 133.072 43.3765 132.817L43.9066 132.587L43.2482 132.192C43.0112 130.935 42.9181 129.834 42.9459 128.869C42.9789 127.739 43.1792 126.8 43.5153 126.022L42.7045 124.698L41.864 123.324L42.3643 123.046L42.3715 123.05Z" fill="#D7EBFF"/>
<path d="M57.2903 131.791C57.5558 132.666 57.6662 133.486 57.5366 134.136C57.4632 134.504 57.395 134.814 57.3298 135.07C57.253 135.37 57.1838 135.608 57.1198 135.787C56.9923 136.163 56.6655 136.424 56.2778 136.474C55.5411 136.567 54.1942 136.644 53.0703 136.194C52.693 136.046 52.3407 135.832 52.0464 135.547C50.6294 134.169 47.5431 130.394 46.8237 127.023C46.7367 126.617 46.6831 126.221 46.6709 125.83L46.2908 124.454L45.2023 123.363L44.0214 122.178L45.3384 121.444L46.3282 122.74L47.0845 123.732C47.0845 123.732 48.9037 124.123 50.7807 124.781C52.2308 125.29 53.7164 125.954 54.4244 126.722C55.5229 127.911 56.7393 129.966 57.2903 131.791Z" fill="#C7DDF3"/>
<path d="M61.1432 131.921C59.5762 133.276 57.304 131.849 57.304 131.849C57.304 131.849 57.0648 131.685 56.6922 131.412L56.8235 130.463L55.7785 130.726C55.07 130.178 54.2273 129.489 53.5176 128.811C51.9495 127.306 49.9299 123.192 49.9299 123.192L59.579 128.93C59.579 128.93 62.7116 130.572 61.1446 131.927L61.1432 131.921Z" fill="#E6F0FB"/>
<path d="M42.7344 121.931L43.0832 122.711L41.797 123.426L41.3477 122.69C41.6747 122.615 42.28 122.414 42.7344 121.931Z" fill="#D0DEF0"/>
<path d="M42.542 133.146L42.5576 133.136L42.5652 133.155L42.542 133.146Z" fill="#D4D2E8"/>
<path d="M61.0122 130.546C60.8869 130.703 60.6682 130.735 60.5097 130.626L49.8872 123.249L48.719 122.437L47.9247 121.929L46.3772 120.944L47.7456 120.17L49.0538 121.278L49.3647 121.538L59.5653 128.977L60.956 129.99C60.9669 129.997 60.9741 130.001 60.9827 130.012C60.9936 130.019 61.0058 130.031 61.0143 130.042C61.018 130.044 61.0216 130.046 61.0252 130.049C61.1403 130.188 61.1448 130.394 61.0218 130.547L61.0122 130.546Z" fill="#C7DDF3"/>
<path d="M49.1548 120.252C49.2581 120.448 49.2722 120.669 49.2129 120.865C49.1665 121.023 49.0763 121.165 48.9417 121.273C48.9052 121.301 48.8687 121.329 48.8272 121.349L37.2727 127.775C37.2187 127.808 37.1621 127.828 37.1077 127.845C36.7601 127.947 36.381 127.792 36.2054 127.455C36.1021 127.259 36.0881 127.038 36.1473 126.842C36.2066 126.646 36.34 126.466 36.5308 126.362L48.0854 119.935C48.4692 119.724 48.9496 119.866 49.1562 120.258L49.1548 120.252Z" fill="#D0DEF0"/>
<path d="M57.3522 135.048C57.2751 135.349 57.2057 135.587 57.1415 135.767C57.0137 136.143 56.6864 136.405 56.2983 136.455C55.5609 136.549 54.2125 136.626 53.0878 136.177C52.7102 136.029 52.3577 135.815 52.0633 135.529C50.6457 134.15 47.5585 130.372 46.8403 126.998C46.7535 126.591 46.7001 126.194 46.6881 125.803L46.3084 124.425L57.3544 135.045L57.3522 135.048Z" fill="#E6F0FB"/>
<path d="M47.6797 120.229L46.3297 120.982L44.8601 120.042L43.3182 119.057L42.4545 118.504L42.6996 118.247L43.1726 117.752L43.6526 116.827L46.5827 119.305L47.6797 120.229Z" fill="#C7DDF3"/>
<path d="M46.5748 119.308C45.7317 119.866 45.1983 120.034 44.8603 120.043L43.3204 119.059L42.4579 118.506L42.7021 118.25L43.1699 117.755L43.6478 116.833L46.577 119.304L46.5748 119.308Z" fill="#EBEEF1"/>
<path d="M38.3817 122.989L38.2498 125.328L36.9169 126.071L36.8099 124.574C37.3635 124.251 37.9711 123.749 38.3817 122.989Z" fill="#C7D7EC"/>
<path d="M38.497 120.557L38.4571 121.251L38.3643 122.995C37.9512 123.761 37.3447 124.259 36.79 124.582L36.5366 121.118L36.4988 120.593L37.3269 120.699L37.4972 120.719L38.2862 120.587L38.4956 120.551L38.497 120.557Z" fill="#B2AFD6"/>
<path d="M36.2704 111.358C38.3917 110.201 41.0541 111.02 42.2175 113.188L43.3381 115.276L35.6567 119.467L34.5361 117.379C33.3727 115.211 34.1491 112.516 36.2704 111.358Z" fill="#D0DEF0"/>
<path d="M38.975 113.139C39.7062 112.74 40.622 113.025 41.0209 113.768L42.1627 115.896L39.5162 117.341L38.3744 115.213C37.9735 114.465 38.2438 113.538 38.9713 113.141L38.975 113.139Z" fill="white"/>
<path d="M38.4986 120.557L38.4586 121.251L38.3653 122.995C37.9524 123.76 37.3463 124.258 36.792 124.581L36.5399 121.119L37.3296 120.7L37.4997 120.72L38.288 120.588L38.4973 120.552L38.4986 120.557Z" fill="#B0D1F1"/>
<path d="M39.6645 119.993L39.5603 119.821L40.5119 119.458L41.327 118.838L41.4044 119.013L41.9973 120.343L42.7154 121.949C42.2578 122.436 41.6533 122.634 41.3256 122.71L40.3518 121.117L39.6623 119.996L39.6645 119.993Z" fill="#BDBAE6"/>
<path d="M40.9702 119.322L41.4048 119.021L41.9985 120.355L40.9702 119.322Z" fill="#1A191D"/>
<path d="M43.3064 119.049L42.4423 118.497L42.6877 118.239L43.3064 119.049Z" fill="#DDDBF0"/>
<path d="M40.1779 119.786L40.3409 121.095L40.47 122.149L40.5142 122.501L40.5557 122.841L40.7012 124.007L39.3794 124.74L39.1352 123.787L39.0686 123.537L38.8312 122.614L38.484 121.267L38.3125 120.602L38.2803 120.476C38.4795 120.366 38.681 120.254 38.8758 120.152L39.2186 120.132L39.6553 119.973L40.1801 119.783L40.1779 119.786Z" fill="#C7D7EC"/>
<path d="M40.1727 119.791L40.3354 121.099L40.4642 122.152L40.5083 122.503C40.1713 123.2 39.5282 123.596 39.1304 123.789L39.0638 123.539L38.8268 122.617L38.4801 121.271L38.3088 120.607L38.2766 120.48C38.4757 120.371 38.677 120.258 38.8717 120.157L39.2142 120.137L39.6505 119.978L40.1749 119.788L40.1727 119.791Z" fill="#B0D1F1"/>
<path d="M41.327 118.838L41.4044 119.013L41.9973 120.343L42.7154 121.949C42.2578 122.436 41.6533 122.634 41.3256 122.71L40.3518 121.117L39.6623 119.996L39.5581 119.825L40.5096 119.462L41.3248 118.842L41.327 118.838Z" fill="#C7DDF3"/>
<path d="M45.2458 121.549L43.9318 122.28L42.9175 121.266L42.0589 120.406L42.0137 120.357L42.0024 120.335L41.4202 119.025L41.8316 118.746L42.4913 117.949L42.699 118.221L42.4552 118.477L43.317 119.029L44.6671 120.792L45.2458 121.549Z" fill="#C7DDF3"/>
<path d="M42.9142 121.268C43.2636 121.231 44.1151 121.11 44.6604 120.798L43.3107 119.036L42.4494 118.484L42.693 118.229L42.4854 117.957L41.8263 118.753L41.4152 119.031L41.9959 120.335L42.0523 120.406L42.9106 121.266L42.9142 121.268Z" fill="#EBEEF1"/>
<path d="M42.7213 115.557L36.2676 119.069C35.6584 119.4 35.4365 120.174 35.7719 120.797C36.1074 121.421 36.8732 121.657 37.4824 121.326L43.9361 117.814C44.5453 117.483 44.7672 116.709 44.4318 116.085C44.0963 115.462 43.3305 115.226 42.7213 115.557Z" fill="#4D5055"/>
<g clip-path="url(#clip1_2770_3878)">
<path d="M73.7853 16.9588L74.3216 18.3352L71.1924 19.5544L69.5899 15.4413L71.6957 14.6209C71.6425 14.5635 71.5876 14.5098 71.5317 14.4534L69.5117 15.2404L67.9811 11.312C67.85 11.2129 67.7215 11.1129 67.5888 11.0177L64.5024 12.2201L62.9275 8.17762C62.8085 8.11767 62.6878 8.06148 62.5645 8.00633L59.4943 9.20251L58.4661 6.56363C58.3801 6.54086 58.2989 6.52247 58.2161 6.50784L59.296 9.27975L56.1668 10.4989L54.5633 6.38311L55.3108 6.09189C55.1295 6.07808 54.9487 6.07347 54.7717 6.07052L44.0204 10.2592C43.8921 10.3812 43.7621 10.5069 43.6379 10.6397L44.3881 10.3474L45.9916 14.4632L42.8624 15.6823L41.7814 12.9077C41.7313 12.9772 41.684 13.0457 41.635 13.118L42.6631 15.7569L39.5928 16.953C39.5393 17.0771 39.4885 17.2001 39.4414 17.3247L41.0164 21.3672L37.93 22.5697C37.8967 22.7296 37.8698 22.8902 37.8402 23.0518L39.3707 26.9803L37.3507 27.7673C37.3503 27.8456 37.3462 27.9222 37.3432 28.0016L39.449 27.1812L41.0514 31.2943L37.9223 32.5134L37.3892 31.1451C37.402 31.384 37.4192 31.6181 37.4374 31.8549L44.8489 50.8782C44.983 51.0323 45.1198 51.1854 45.2555 51.3358L44.7245 49.9729L47.851 48.7548L49.4535 52.8679L47.6076 53.5871C47.6716 53.6403 47.7371 53.6898 47.8011 53.7431L49.5318 53.0688L50.5271 55.6235C50.6242 55.6826 50.7229 55.738 50.8216 55.7933L49.73 52.9915L52.8592 51.7724L54.4627 55.8882L52.5124 56.6481C52.6058 56.6898 52.6981 56.7289 52.7916 56.7707L54.541 56.0891L55.1333 57.6094C55.2215 57.6376 55.3048 57.6615 55.3908 57.6842L54.7393 56.0119L57.8658 54.7938L59.2525 58.353C59.3321 58.3595 59.4091 58.367 59.4877 58.3708L58.064 54.7165L61.1932 53.4974L62.7957 57.6104L60.7515 58.4069C60.9559 58.4085 61.1661 58.4017 61.371 58.3969L74.5522 53.2615C74.709 53.1253 74.8668 52.9919 75.0178 52.8487L72.9736 53.6451L71.3711 49.532L74.5003 48.3129L75.9251 51.9699C75.9794 51.9112 76.032 51.8563 76.0853 51.7949L74.6986 48.2356L77.8251 47.0176L78.4777 48.6926L78.6167 48.4634L78.0234 46.9403L79.7755 46.2577C79.816 46.1637 79.8576 46.0725 79.8981 45.9785L77.9451 46.7394L76.3416 42.6236L79.4681 41.4055L80.5618 44.2127C80.597 44.1052 80.6296 43.9987 80.6638 43.8884L79.6663 41.3283L81.397 40.654C81.4108 40.5705 81.4229 40.4907 81.434 40.4082L79.5881 41.1274L77.9856 37.0143L81.1148 35.7952L81.6479 37.1635C81.6488 36.9599 81.6433 36.7556 81.6378 36.5514L74.222 17.5172C74.0725 17.3316 73.9268 17.1476 73.7762 16.9592L73.7853 16.9588ZM77.6841 26.9659L74.5549 28.185L72.9525 24.072L76.0817 22.8528L77.6841 26.9659ZM74.3999 18.5361L76.0034 22.6519L72.8742 23.8711L71.2707 19.7553L74.3999 18.5361ZM67.7099 11.2019L69.3134 15.3176L66.1869 16.5357L64.5834 12.42L67.7099 11.2019ZM72.9109 33.7944L71.3084 29.6813L74.435 28.4632L76.0374 32.5763L72.9109 33.7944ZM76.1157 32.7772L77.7192 36.8929L74.5927 38.111L72.9892 33.9953L76.1157 32.7772ZM71.2302 29.4804L69.6277 25.3673L72.7542 24.1492L74.3567 28.2623L71.2302 29.4804ZM69.5494 25.1664L67.9459 21.0506L71.0724 19.8325L72.676 23.9483L69.5494 25.1664ZM67.8676 20.8497L66.2652 16.7366L69.3917 15.5186L70.9942 19.6316L67.8676 20.8497ZM62.7044 8.18323L64.3069 12.2963L61.1803 13.5144L59.5779 9.40133L62.7044 8.18323ZM71.2679 39.4064L69.6644 35.2906L72.7909 34.0725L74.3944 38.1883L71.2679 39.4064ZM74.4727 38.3892L76.0752 42.5023L72.9487 43.7204L71.3462 39.6073L74.4727 38.3892ZM69.5861 35.0897L67.9837 30.9766L71.1102 29.7585L72.7127 33.8716L69.5861 35.0897ZM67.9054 30.7757L66.3029 26.6626L69.4295 25.4446L71.0319 29.5576L67.9054 30.7757ZM66.2247 26.4617L64.6211 22.346L67.7477 21.1279L69.3512 25.2436L66.2247 26.4617ZM64.5429 22.1451L62.9404 18.032L66.0669 16.8139L67.6694 20.927L64.5429 22.1451ZM62.8621 17.8311L61.2586 13.7153L64.3851 12.4972L65.9887 16.613L62.8621 17.8311ZM59.3796 9.47857L60.9821 13.5916L57.8529 14.8108L56.2504 10.6977L59.3796 9.47857ZM67.9405 40.7028L66.337 36.587L69.4662 35.3678L71.0697 39.4836L67.9405 40.7028ZM71.148 39.6845L72.7504 43.7976L69.6212 45.0167L68.0188 40.9037L71.148 39.6845ZM66.2587 36.3861L64.6562 32.273L67.7854 31.0539L69.3879 35.1669L66.2587 36.3861ZM64.578 32.0721L62.9755 27.959L66.1047 26.7399L67.7072 30.853L64.578 32.0721ZM62.8972 27.7581L61.2937 23.6423L64.4229 22.4232L66.0264 26.539L62.8972 27.7581ZM61.2154 23.4414L59.613 19.3284L62.7422 18.1092L64.3446 22.2223L61.2154 23.4414ZM59.5347 19.1275L57.9312 15.0117L61.0604 13.7925L62.6639 17.9083L59.5347 19.1275ZM51.2385 7.67844L54.365 6.46035L55.9686 10.5761L52.842 11.7942L51.2385 7.67844ZM66.3694 46.5151L69.4959 45.297L71.0994 49.4128L67.9729 50.6309L66.3694 46.5151ZM66.2911 46.3142L64.6886 42.2011L67.8152 40.983L69.4176 45.0961L66.2911 46.3142ZM64.6104 42.0002L63.0068 37.8844L66.1334 36.6663L67.7369 40.7821L64.6104 42.0002ZM62.9286 37.6835L61.3261 33.5704L64.4526 32.3523L66.0551 36.4654L62.9286 37.6835ZM61.2478 33.3695L59.6454 29.2565L62.7719 28.0384L64.3744 32.1514L61.2478 33.3695ZM59.5671 29.0556L57.9636 24.9398L61.0901 23.7217L62.6936 27.8375L59.5671 29.0556ZM57.8853 24.7389L56.2828 20.6258L59.4094 19.4077L61.0118 23.5208L57.8853 24.7389ZM56.2046 20.4249L54.6011 16.3091L57.7276 15.091L59.3311 19.2068L56.2046 20.4249ZM54.5228 16.1082L52.9203 11.9951L56.0468 10.777L57.6493 14.8901L54.5228 16.1082ZM47.9111 8.97483L51.0403 7.75569L52.6438 11.8715L49.5146 13.0906L47.9111 8.97483ZM61.2829 43.2966L59.6794 39.1808L62.8086 37.9616L64.4121 42.0774L61.2829 43.2966ZM64.4904 42.2783L66.0928 46.3914L62.9637 47.6105L61.3612 43.4975L64.4904 42.2783ZM59.6011 38.9799L57.9987 34.8668L61.1279 33.6477L62.7303 37.7607L59.6011 38.9799ZM57.9204 34.6659L56.3179 30.5528L59.4471 29.3337L61.0496 33.4468L57.9204 34.6659ZM56.2397 30.3519L54.6361 26.2362L57.7653 25.017L59.3688 29.1328L56.2397 30.3519ZM54.5579 26.0352L52.9554 21.9222L56.0846 20.703L57.6871 24.8161L54.5579 26.0352ZM52.8771 21.7213L51.2736 17.6055L54.4028 16.3863L56.0063 20.5021L52.8771 21.7213ZM51.1953 17.4046L49.5929 13.2915L52.7221 12.0724L54.3245 16.1854L51.1953 17.4046ZM63.0419 47.8114L66.1711 46.5923L67.7746 50.7081L64.6455 51.9272L63.0419 47.8114ZM44.5863 10.2702L47.7128 9.05207L49.3163 13.1679L46.1898 14.386L44.5863 10.2702ZM51.0754 17.6827L52.6789 21.7985L49.5524 23.0166L47.9488 18.9008L51.0754 17.6827ZM47.8706 18.6999L46.2681 14.5869L49.3946 13.3688L50.9971 17.4818L47.8706 18.6999ZM52.7571 21.9994L54.3596 26.1125L51.2331 27.3306L49.6306 23.2175L52.7571 21.9994ZM54.4379 26.3134L56.0414 30.4292L52.9149 31.6473L51.3114 27.5315L54.4379 26.3134ZM56.1197 30.6301L57.7221 34.7432L54.5956 35.9612L52.9932 31.8482L56.1197 30.6301ZM57.8004 34.9441L59.4029 39.0571L56.2764 40.2752L54.6739 36.1622L57.8004 34.9441ZM59.4811 39.258L61.0847 43.3738L57.9582 44.5919L56.3546 40.4761L59.4811 39.258ZM61.1629 43.5747L62.7654 47.6878L59.6389 48.9059L58.0364 44.7928L61.1629 43.5747ZM62.8437 47.8887L64.4472 52.0045L61.3207 53.2226L59.7172 49.1068L62.8437 47.8887ZM46.0698 14.6641L47.6723 18.7772L44.5431 19.9963L42.9407 15.8832L46.0698 14.6641ZM54.6307 45.8883L53.0272 41.7725L56.1564 40.5534L57.7599 44.6691L54.6307 45.8883ZM57.8382 44.8701L59.4406 48.9831L56.3114 50.2023L54.709 46.0892L57.8382 44.8701ZM52.9489 41.5716L51.3465 37.4585L54.4756 36.2394L56.0781 40.3525L52.9489 41.5716ZM51.2682 37.2576L49.6657 33.1446L52.7949 31.9254L54.3974 36.0385L51.2682 37.2576ZM49.5874 32.9437L47.9839 28.8279L51.1131 27.6087L52.7166 31.7245L49.5874 32.9437ZM47.9057 28.627L46.3032 24.5139L49.4324 23.2948L51.0348 27.4078L47.9057 28.627ZM46.2249 24.313L44.6214 20.1972L47.7506 18.9781L49.3541 23.0939L46.2249 24.313ZM39.6132 17.1796L42.7397 15.9615L44.3422 20.0746L41.2157 21.2927L39.6132 17.1796ZM51.3033 47.1847L49.6997 43.0689L52.8263 41.8508L54.4298 45.9666L51.3033 47.1847ZM54.5081 46.1675L56.1105 50.2805L52.984 51.4986L51.3815 47.3856L54.5081 46.1675ZM49.6215 42.868L48.019 38.7549L51.1455 37.5368L52.748 41.6499L49.6215 42.868ZM47.9407 38.554L46.3383 34.4409L49.4648 33.2228L51.0672 37.3359L47.9407 38.554ZM46.26 34.24L44.6565 30.1243L47.783 28.9062L49.3865 33.0219L46.26 34.24ZM44.5782 29.9234L42.9757 25.8103L46.1023 24.5922L47.7047 28.7053L44.5782 29.9234ZM42.8975 25.6094L41.2939 21.4936L44.4205 20.2755L46.024 24.3913L42.8975 25.6094ZM37.9665 22.79L41.0957 21.5708L42.6992 25.6866L39.57 26.9058L37.9665 22.79ZM46.294 44.1644L44.6916 40.0513L47.8208 38.8322L49.4232 42.9452L46.294 44.1644ZM49.5015 43.1461L51.105 47.2619L47.9758 48.4811L46.3723 44.3653L49.5015 43.1461ZM44.6133 39.8504L43.0108 35.7373L46.14 34.5182L47.7425 38.6313L44.6133 39.8504ZM42.9326 35.5364L41.329 31.4206L44.4582 30.2015L46.0617 34.3173L42.9326 35.5364ZM41.2508 31.2197L39.6483 27.1067L42.7775 25.8875L44.38 30.0006L41.2508 31.2197ZM38.0016 32.717L41.1281 31.4989L42.7316 35.6147L39.6051 36.8328L38.0016 32.717ZM39.6834 37.0337L42.8099 35.8156L44.4124 39.9287L41.2858 41.1468L39.6834 37.0337ZM41.3641 41.3477L44.4906 40.1296L46.0931 44.2427L42.9666 45.4607L41.3641 41.3477ZM44.6484 49.7774L43.0449 45.6617L46.1714 44.4436L47.7749 48.5593L44.6484 49.7774ZM49.6566 52.795L48.0541 48.682L51.1833 47.4628L52.7857 51.5759L49.6566 52.795ZM54.6658 55.8153L53.0623 51.6995L56.1888 50.4814L57.7923 54.5972L54.6658 55.8153ZM57.9932 54.519L56.3897 50.4032L59.5189 49.184L61.1224 53.2998L57.9932 54.519ZM66.1306 56.3174L63.0041 57.5355L61.4016 53.4224L64.5281 52.2043L66.1306 56.3174ZM69.4581 55.021L66.3289 56.2402L64.7264 52.1271L67.8556 50.9079L69.4581 55.021ZM72.7855 53.7246L69.659 54.9427L68.0565 50.8297L71.183 49.6116L72.7855 53.7246ZM71.303 49.3334L69.6995 45.2176L72.8287 43.9985L74.4322 48.1143L71.303 49.3334ZM77.757 46.8189L74.6305 48.037L73.0269 43.9213L76.1535 42.7032L77.757 46.8189ZM76.2734 42.425L74.671 38.3119L77.7975 37.0938L79.4 41.2069L76.2734 42.425ZM81.0467 35.5966L77.9175 36.8157L76.3139 32.6999L79.4431 31.4808L81.0467 35.5966ZM79.3649 31.2799L76.2357 32.499L74.6332 28.3859L77.7624 27.1668L79.3649 31.2799Z" fill="#A8ABAC"/>
<path d="M69.5012 58.8964C57.4318 63.5986 45.1829 57.0762 39.7133 43.0374C36.9146 35.8538 36.143 27.5927 37.5947 20.3729C39.1623 12.5794 43.0351 7.11493 48.4978 4.98665C53.9605 2.85837 60.5094 4.26255 66.9362 8.94135C72.8907 13.2789 77.9113 19.8845 80.709 27.0654C86.1785 41.1042 81.5695 54.1914 69.5001 58.8937L69.5012 58.8964ZM49.5555 7.70155C45.0305 9.4645 41.7847 14.1782 40.4189 20.9768C39.0745 27.6639 39.7936 35.3231 42.3935 41.9964C44.9934 48.6696 48.8116 53.092 53.7446 55.576C58.3168 57.8786 63.5354 58.0937 68.4435 56.1815C73.3516 54.2693 77.0518 50.5794 78.8585 45.7916C80.8098 40.6223 80.524 34.5109 78.0309 28.1119C75.5378 21.7129 70.779 15.3117 65.2649 11.2967C59.6597 7.21401 54.0806 5.93859 49.5555 7.70155Z" fill="#57C53C"/>
<path d="M70.3119 57.0168L67.6328 58.0605L83.3137 98.3089L85.9928 97.2651L70.3119 57.0168Z" fill="#57C53C"/>
<path d="M103.891 135.537C104.215 136.124 103.802 136.91 102.996 137.224L97.8224 139.24C97.7314 139.275 97.6371 139.303 97.5434 139.323C97.1804 139.405 96.8254 139.366 96.5473 139.23C96.2868 139.1 96.092 138.885 96.0248 138.602L95.0603 134.534L94.1573 132.256L93.7368 131.2L91.1226 124.602L90.7021 123.546L88.0836 116.952L87.6631 115.896L86.201 112.207L85.3793 108.743L85.0827 107.483L83.1095 99.1709C83.0145 98.7608 83.3235 98.3026 83.8272 98.1064L85.3355 97.5187C85.8392 97.3225 86.3767 97.4508 86.5816 97.8182L88.6534 101.52L89.1634 102.425L92.3347 108.094L92.8447 108.999L93.1265 109.509L101.846 131.89L101.917 132.016L103.891 135.537Z" fill="#4D5055"/>
<path d="M89.1631 102.425L85.3844 108.741L85.0877 107.481L88.6557 101.519L89.1631 102.425Z" fill="#1A191D"/>
<path d="M92.8448 108.999L88.089 116.949L87.6685 115.894L92.3347 108.094L92.8448 108.999Z" fill="#1A191D"/>
<path d="M95.4855 115.556L95.9001 116.62L91.125 124.6L90.7044 123.544L95.4855 115.556Z" fill="#1A191D"/>
<path d="M98.4821 123.247L98.8967 124.311L94.1216 132.291L93.701 131.235L98.4821 123.247Z" fill="#1A191D"/>
</g>
<g clip-path="url(#clip2_2770_3878)">
<path d="M31.1013 54.9655L32.4155 55.64L30.882 58.6277L26.9549 56.6121L27.9869 54.6015C27.9089 54.5938 27.8323 54.59 27.753 54.5849L26.7631 56.5136L23.0122 54.5884C22.8484 54.6013 22.6859 54.6116 22.5234 54.6284L21.0109 57.5752L17.1512 55.5941C17.0223 55.6282 16.8948 55.6662 16.7659 55.7067L15.2613 58.6381L12.7417 57.3449C12.6622 57.3849 12.5892 57.425 12.5175 57.469L15.1641 58.8274L13.6306 61.8151L9.70091 59.7982L10.0672 59.0845C9.92239 59.1944 9.78403 59.3108 9.64957 59.426L4.38081 69.6912C4.36559 69.8676 4.35166 70.0479 4.34681 70.2296L4.71443 69.5134L8.64415 71.5304L7.11066 74.5181L4.46146 73.1584C4.47011 73.2436 4.48008 73.3263 4.49132 73.4129L7.01091 74.7061L5.5063 77.6375C5.54851 77.7659 5.59204 77.8916 5.63947 78.0162L9.49921 79.9972L7.98672 82.944C8.06785 83.0859 8.1542 83.2239 8.23924 83.3645L11.9901 85.2897L11.0002 87.2184C11.0518 87.2773 11.0996 87.3373 11.15 87.3987L12.1819 85.3881L16.1091 87.4038L14.5756 90.3915L13.2691 89.721C13.4372 89.8913 13.6053 90.0551 13.7759 90.2203L31.9392 99.5428C32.1418 99.5693 32.3457 99.5931 32.5471 99.6156L31.2458 98.9478L32.778 95.9626L36.7051 97.9782L35.8005 99.7407C35.8837 99.7381 35.9656 99.7317 36.0488 99.7291L36.8969 98.0767L39.3362 99.3287C39.448 99.3085 39.5586 99.2845 39.6692 99.2604L36.9941 97.8874L38.5276 94.8997L42.4573 96.9166L41.5015 98.7789C41.5991 98.7482 41.6942 98.7162 41.7918 98.6855L42.6491 97.0151L44.1007 97.7602C44.1854 97.7228 44.2636 97.6854 44.3431 97.6454L42.7463 96.8258L44.2785 93.8406L47.6768 95.5849C47.7407 95.5369 47.8033 95.4915 47.8647 95.4422L44.3756 93.6513L45.9091 90.6636L49.8362 92.6793L48.8345 94.631C48.9885 94.4968 49.1413 94.3522 49.2915 94.2128L55.7511 81.6274C55.7782 81.4216 55.8078 81.217 55.8258 81.0097L54.824 82.9615L50.8969 80.9458L52.4304 77.9581L55.9221 79.7502C55.9238 79.6703 55.9268 79.5943 55.9259 79.513L52.5276 77.7688L54.0597 74.7836L55.6591 75.6045L55.6111 75.3407L54.1569 74.5943L55.0156 72.9214C54.9836 72.8242 54.9542 72.7283 54.9222 72.6311L53.9651 74.4959L50.0353 72.4789L51.5675 69.4937L54.2478 70.8694C54.2029 70.7655 54.1566 70.6642 54.1091 70.5591L51.6647 69.3044L52.5128 67.652C52.4677 67.5803 52.4239 67.5126 52.3775 67.4435L51.4729 69.206L47.5457 67.1903L49.0792 64.2026L50.3857 64.8731C50.2513 64.7201 50.1118 64.5709 49.9722 64.4217L31.7985 55.0938C31.5635 55.054 31.3324 55.013 31.0948 54.9718L31.1013 54.9655ZM40.656 59.8696L39.1225 62.8573L35.1954 60.8416L36.7289 57.8539L40.656 59.8696ZM32.6074 55.7385L36.5371 57.7554L35.0036 60.7432L31.0739 58.7262L32.6074 55.7385ZM22.7362 54.6859L26.6659 56.7029L25.1338 59.6881L21.204 57.6711L22.7362 54.6859ZM41.6122 68.1459L37.685 66.1302L39.2172 63.145L43.1443 65.1607L41.6122 68.1459ZM43.3362 65.2591L47.2659 67.2761L45.7337 70.2613L41.804 68.2443L43.3362 65.2591ZM37.4932 66.0318L33.5661 64.0161L35.0983 61.0309L39.0254 63.0466L37.4932 66.0318ZM33.3742 63.9176L29.4445 61.9007L30.9767 58.9155L34.9064 60.9325L33.3742 63.9176ZM29.2527 61.8022L25.3256 59.7866L26.8578 56.8014L30.7849 58.817L29.2527 61.8022ZM16.9879 55.7463L20.915 57.7619L19.3829 60.7471L15.4557 58.7315L16.9879 55.7463ZM44.1044 73.4358L40.1746 71.4188L41.7068 68.4336L45.6365 70.4506L44.1044 73.4358ZM45.8284 70.5491L49.7555 72.5647L48.2233 75.5499L44.2962 73.5342L45.8284 70.5491ZM39.9828 71.3203L36.0557 69.3047L37.5879 66.3195L41.515 68.3352L39.9828 71.3203ZM35.8639 69.2062L31.9367 67.1906L33.4689 64.2054L37.396 66.2211L35.8639 69.2062ZM31.7449 67.0921L27.8152 65.0751L29.3474 62.09L33.2771 64.1069L31.7449 67.0921ZM27.6234 64.9767L23.6962 62.961L25.2284 59.9758L29.1555 61.9915L27.6234 64.9767ZM23.5044 62.8626L19.5747 60.8456L21.1069 57.8604L25.0366 59.8774L23.5044 62.8626ZM15.3586 58.9208L19.2857 60.9364L17.7522 63.9241L13.8251 61.9085L15.3586 58.9208ZM42.4737 76.6128L38.544 74.5958L40.0775 71.6081L44.0072 73.6251L42.4737 76.6128ZM44.199 73.7235L48.1262 75.7392L46.5927 78.7269L42.6655 76.7113L44.199 73.7235ZM38.3522 74.4974L34.425 72.4817L35.9585 69.494L39.8857 71.5096L38.3522 74.4974ZM34.2332 72.3832L30.3061 70.3676L31.8396 67.3799L35.7667 69.3955L34.2332 72.3832ZM30.1143 70.2691L26.1845 68.2521L27.718 65.2644L31.6478 67.2814L30.1143 70.2691ZM25.9927 68.1537L22.0656 66.138L23.5991 63.1503L27.5262 65.166L25.9927 68.1537ZM21.8738 66.0396L17.944 64.0226L19.4775 61.0349L23.4073 63.0519L21.8738 66.0396ZM8.07157 62.9726L9.60375 59.9875L13.5335 62.0044L12.0013 64.9896L8.07157 62.9726ZM45.1525 82.0049L46.6847 79.0198L50.6144 81.0368L49.0822 84.0219L45.1525 82.0049ZM44.9607 81.9065L41.0336 79.8908L42.5658 76.9057L46.4929 78.9213L44.9607 81.9065ZM40.8417 79.7924L36.912 77.7754L38.4442 74.7902L42.3739 76.8072L40.8417 79.7924ZM36.7202 77.6769L32.7931 75.6613L34.3253 72.6761L38.2524 74.6918L36.7202 77.6769ZM32.6013 75.5628L28.6741 73.5472L30.2063 70.562L34.1334 72.5777L32.6013 75.5628ZM28.4823 73.4487L24.5526 71.4317L26.0848 68.4466L30.0145 70.4635L28.4823 73.4487ZM24.3608 71.3333L20.4336 69.3176L21.9658 66.3324L25.8929 68.3481L24.3608 71.3333ZM20.2418 69.2192L16.3121 67.2022L17.8443 64.217L21.774 66.234L20.2418 69.2192ZM16.1203 67.1037L12.1931 65.0881L13.7253 62.1029L17.6524 64.1186L16.1203 67.1037ZM6.44092 66.1497L7.97441 63.1619L11.9041 65.1789L10.3706 68.1666L6.44092 66.1497ZM39.2111 82.9694L35.2814 80.9524L36.8149 77.9647L40.7446 79.9817L39.2111 82.9694ZM40.9364 80.0801L44.8635 82.0958L43.33 85.0835L39.4029 83.0679L40.9364 80.0801ZM35.0896 80.854L31.1624 78.8383L32.6959 75.8506L36.623 77.8662L35.0896 80.854ZM30.9706 78.7399L27.0435 76.7242L28.577 73.7365L32.5041 75.7521L30.9706 78.7399ZM26.8516 76.6257L22.9219 74.6088L24.4554 71.621L28.3851 73.638L26.8516 76.6257ZM22.7301 74.5103L18.803 72.4946L20.3365 69.5069L24.2636 71.5226L22.7301 74.5103ZM18.6111 72.3962L14.6814 70.3792L16.2149 67.3915L20.1446 69.4085L18.6111 72.3962ZM14.4896 70.2807L10.5625 68.2651L12.096 65.2774L16.0231 67.293L14.4896 70.2807ZM43.5219 85.182L45.0554 82.1942L48.9851 84.2112L47.4516 87.199L43.5219 85.182ZM4.81158 69.3241L6.34376 66.3389L10.2735 68.3559L8.74131 71.3411L4.81158 69.3241ZM14.5843 70.5685L18.514 72.5855L16.9818 75.5707L13.0521 73.5537L14.5843 70.5685ZM12.8603 73.4552L8.93313 71.4396L10.4653 68.4544L14.3924 70.47L12.8603 73.4552ZM18.7058 72.6839L22.6329 74.6996L21.1008 77.6848L17.1736 75.6691L18.7058 72.6839ZM22.8248 74.798L26.7545 76.815L25.2223 79.8002L21.2926 77.7832L22.8248 74.798ZM26.9463 76.9135L30.8734 78.9291L29.3413 81.9143L25.4141 79.8987L26.9463 76.9135ZM31.0653 79.0276L34.9924 81.0433L33.4602 84.0284L29.5331 82.0128L31.0653 79.0276ZM35.1842 81.1417L39.1139 83.1587L37.5818 86.1439L33.652 84.1269L35.1842 81.1417ZM39.3058 83.2571L43.2329 85.2728L41.7007 88.258L37.7736 86.2423L39.3058 83.2571ZM43.4247 85.3713L47.3544 87.3882L45.8223 90.3734L41.8925 88.3564L43.4247 85.3713ZM8.83597 71.6288L12.7631 73.6445L11.2296 76.6322L7.30248 74.6166L8.83597 71.6288ZM35.9511 89.3209L32.0214 87.3039L33.5549 84.3162L37.4846 86.3332L35.9511 89.3209ZM37.6764 86.4316L41.6036 88.4473L40.0701 91.435L36.1429 89.4193L37.6764 86.4316ZM31.8296 87.2054L27.9024 85.1898L29.4359 82.2021L33.3631 84.2177L31.8296 87.2054ZM27.7106 85.0913L23.7835 83.0757L25.317 80.088L29.2441 82.1036L27.7106 85.0913ZM23.5917 82.9772L19.6619 80.9602L21.1954 77.9725L25.1252 79.9895L23.5917 82.9772ZM19.4701 80.8618L15.543 78.8461L17.0765 75.8584L21.0036 77.8741L19.4701 80.8618ZM15.3512 78.7477L11.4214 76.7307L12.9549 73.743L16.8847 75.7599L15.3512 78.7477ZM5.67183 77.7936L7.20401 74.8084L11.1311 76.8241L9.59896 79.8093L5.67183 77.7936ZM34.3205 92.4979L30.3907 90.4809L31.9229 87.4958L35.8526 89.5127L34.3205 92.4979ZM36.0445 89.6112L39.9716 91.6268L38.4394 94.612L34.5123 92.5964L36.0445 89.6112ZM30.1989 90.3825L26.2718 88.3668L27.804 85.3816L31.7311 87.3973L30.1989 90.3825ZM26.08 88.2684L22.1528 86.2527L23.685 83.2675L27.6121 85.2832L26.08 88.2684ZM21.961 86.1543L18.0313 84.1373L19.5635 81.1521L23.4932 83.1691L21.961 86.1543ZM17.8395 84.0388L13.9123 82.0232L15.4445 79.038L19.3716 81.0536L17.8395 84.0388ZM13.7205 81.9247L9.79078 79.9077L11.323 76.9225L15.2527 78.9395L13.7205 81.9247ZM8.16013 83.0847L9.69362 80.097L13.6233 82.114L12.0899 85.1017L8.16013 83.0847ZM28.5683 93.5595L24.6411 91.5438L26.1746 88.5561L30.1018 90.5718L28.5683 93.5595ZM30.2936 90.6702L34.2233 92.6872L32.6898 95.6749L28.7601 93.6579L30.2936 90.6702ZM24.4493 91.4454L20.5222 89.4297L22.0557 86.442L25.9828 88.4577L24.4493 91.4454ZM20.3304 89.3313L16.4006 87.3143L17.9341 84.3266L21.8638 86.3435L20.3304 89.3313ZM16.2088 87.2158L12.2817 85.2002L13.8152 82.2124L17.7423 84.2281L16.2088 87.2158ZM14.77 90.4913L16.3022 87.5061L20.2319 89.5231L18.6997 92.5083L14.77 90.4913ZM18.8915 92.6068L20.4237 89.6216L24.3508 91.6372L22.8187 94.6224L18.8915 92.6068ZM23.0105 94.7209L24.5427 91.7357L28.4698 93.7513L26.9376 96.7365L23.0105 94.7209ZM31.0592 98.852L27.1294 96.835L28.6616 93.8498L32.5913 95.8668L31.0592 98.852ZM36.8088 97.789L32.8816 95.7734L34.4151 92.7857L38.3423 94.8013L36.8088 97.789ZM42.561 96.7275L38.6312 94.7105L40.1634 91.7253L44.0931 93.7423L42.561 96.7275ZM44.1916 93.5504L40.2619 91.5335L41.7954 88.5457L45.7251 90.5627L44.1916 93.5504ZM51.4747 89.4998L49.9425 92.485L46.0154 90.4693L47.5476 87.4841L51.4747 89.4998ZM53.1054 86.3228L51.5719 89.3105L47.6447 87.2948L49.1782 84.3071L53.1054 86.3228ZM54.736 83.1458L53.2038 86.1309L49.2767 84.1153L50.8089 81.1301L54.736 83.1458ZM50.7142 80.8423L46.7845 78.8254L48.318 75.8376L52.2477 77.8546L50.7142 80.8423ZM53.877 74.6802L52.3449 77.6653L48.4151 75.6483L49.9473 72.6632L53.877 74.6802ZM49.8527 72.3754L45.9255 70.3598L47.4577 67.3746L51.3848 69.3902L49.8527 72.3754ZM48.8965 64.0991L47.363 67.0868L43.4333 65.0699L44.9668 62.0821L48.8965 64.0991ZM44.775 61.9837L43.2415 64.9714L39.3144 62.9557L40.8479 59.968L44.775 61.9837Z" fill="#A8ABAC"/>
<path d="M55.5178 88.9924C49.6031 100.516 36.1098 103.758 22.7057 96.8781C15.8468 93.3577 9.79058 87.6864 6.08891 81.32C2.09358 74.4474 1.36813 67.7891 4.04518 62.5734C6.72223 57.3576 12.555 54.0654 20.4681 53.3049C27.8012 52.6023 35.9397 54.2167 42.796 57.7357C56.2001 64.6156 61.43 77.4673 55.5153 88.9911L55.5178 88.9924ZM6.63735 63.9038C4.41982 68.2243 5.11659 73.9048 8.60318 79.899C12.0318 85.7955 17.6496 91.0512 24.0212 94.3215C30.3927 97.5917 36.1834 98.3694 41.5229 96.9571C46.4719 95.6481 50.5204 92.3482 52.9257 87.6619C55.331 82.9757 55.6532 77.7601 53.8302 72.9785C51.8624 67.8155 47.5954 63.431 41.4857 60.2951C35.376 57.1592 27.5689 55.5243 20.7792 56.1762C13.8764 56.8379 8.85488 59.5834 6.63735 63.9038Z" fill="#4582E9"/>
<path d="M54.8784 87.0485L53.5654 89.6064L91.9943 109.331L93.3072 106.773L54.8784 87.0485Z" fill="#4582E9"/>
<path d="M132.084 123.546C132.716 123.77 132.928 124.633 132.533 125.403L129.998 130.342C129.953 130.429 129.901 130.512 129.845 130.59C129.627 130.892 129.335 131.097 129.037 131.18C128.756 131.256 128.468 131.224 128.229 131.057L124.81 128.652L122.623 127.546L121.608 127.035L115.275 123.829L114.261 123.318L107.928 120.119L106.913 119.608L103.372 117.817L100.46 115.769L99.4019 115.023L92.4125 110.11C92.0694 109.866 91.9969 109.318 92.2437 108.838L92.9829 107.397C93.2297 106.917 93.7171 106.656 94.1141 106.795L98.1198 108.192L99.1018 108.531L105.235 110.671L106.217 111.01L106.766 111.204L128.135 122.173L128.272 122.22L132.084 123.546Z" fill="#4D5055"/>
<path d="M99.1015 108.532L100.462 115.765L99.4042 115.018L98.1208 108.19L99.1015 108.532Z" fill="#1A191D"/>
<path d="M106.217 111.01L107.93 120.115L106.915 119.604L105.235 110.671L106.217 111.01Z" fill="#1A191D"/>
<path d="M112.542 114.167L113.558 114.688L115.277 123.828L114.262 123.316L112.542 114.167Z" fill="#1A191D"/>
<path d="M119.886 117.935L120.902 118.457L122.62 127.596L121.605 127.085L119.886 117.935Z" fill="#1A191D"/>
</g>
</g>
<defs>
<clipPath id="clip0_2770_3878">
<rect width="135" height="150" fill="white"/>
</clipPath>
<clipPath id="clip1_2770_3878">
<rect width="44" height="143" fill="white" transform="translate(28 12.9727) rotate(-21.286)"/>
</clipPath>
<clipPath id="clip2_2770_3878">
<rect width="44" height="143" fill="white" transform="translate(-6 82.1445) rotate(-62.8302)"/>
</clipPath>
</defs>
</svg>
