<svg width="40" height="40" viewBox="0 0 40 40" fill="none" xmlns="http://www.w3.org/2000/svg">
<rect width="40" height="40" rx="20" fill="#4582E9"/>
<path d="M31.2993 10.6237H31.1583V10.2982C31.1583 9.63132 30.597 9.091 29.9044 9.091H29.3514C28.6587 9.091 28.0974 9.63132 28.0974 10.2982V11.164H26.1085C26.1057 11.1126 26.103 11.0783 26.1016 11.0651C26.051 10.4115 25.461 9.92125 24.782 9.97001C24.1304 10.0161 23.6362 10.5433 23.6417 11.164H16.2689C16.2757 10.5433 15.7816 10.0161 15.1286 9.97001C14.4469 9.92125 13.8596 10.4115 13.809 11.0651C13.809 11.0783 13.8063 11.1126 13.8021 11.164H11.8132V10.2982C11.8132 9.63264 11.2533 9.09232 10.5593 9.09232H10.0062C9.31356 9.09232 8.75232 9.63264 8.75232 10.2995V10.625H8.61132C8.12263 10.625 7.72702 11.0058 7.72702 11.4763V13.034C7.72702 13.5045 8.12263 13.8867 8.61132 13.8867H8.75232V14.2122C8.75232 14.879 9.31356 15.4193 10.0062 15.4193H10.5593C11.2519 15.4193 11.8132 14.879 11.8132 14.2122V13.2752H13.8761C14.0417 14.7327 14.5003 16.612 15.7104 17.9575C16.3524 18.6705 17.1299 19.1673 18.0306 19.4401V22.7822C17.9006 22.8059 17.7733 22.8494 17.6515 22.9153L14.8411 24.4558C14.0212 24.9052 13.5119 25.7486 13.5119 26.6567V31.1413C13.5119 31.7963 14.0636 32.3274 14.7439 32.3274C15.4243 32.3274 15.9759 31.7963 15.9759 31.1413V26.6567C15.9759 26.6 16.0088 26.5459 16.0594 26.5183L18.0293 25.4376V25.464L19.0737 24.9935C19.6665 24.7273 20.3509 24.7273 20.9436 24.9935L21.6336 25.3045L23.847 26.5183C23.8991 26.5473 23.9306 26.6 23.9306 26.6567V31.1413C23.9306 31.7963 24.4822 32.3274 25.1626 32.3274C25.8429 32.3274 26.3946 31.7963 26.3946 31.1413V26.6567C26.3946 25.7486 25.8853 24.9052 25.0654 24.4558L22.255 22.9153C22.1688 22.8678 22.0784 22.8336 21.9867 22.8072V19.4019C22.8395 19.1225 23.5801 18.6402 24.1961 17.9562C25.4062 16.6107 25.8648 14.7314 26.0304 13.2739H28.0933V14.2109C28.0933 14.8777 28.6546 15.418 29.3472 15.418H29.9003C30.5929 15.418 31.1542 14.8777 31.1542 14.2109V13.8853H31.2952C31.7839 13.8853 32.1795 13.5032 32.1795 13.0327V11.475C32.1795 11.0045 31.7839 10.6237 31.2952 10.6237H31.2993ZM22.3372 16.4011C21.8457 16.9467 21.2215 17.2419 20.4303 17.3025H19.4803C18.6904 17.2419 18.0676 16.948 17.5775 16.4051C16.8561 15.6051 16.5098 14.3703 16.3565 13.2725H23.5582C23.4063 14.365 23.0613 15.5972 22.3372 16.4011Z" fill="#FAFAFA"/>
<path d="M19.9525 16.8934C21.3599 16.8934 22.5016 15.7751 22.5016 14.3963C22.5016 13.0175 21.3599 11.8992 19.9525 11.8992C18.5451 11.8992 17.4035 13.0175 17.4035 14.3963C17.4035 15.7751 18.5451 16.8934 19.9525 16.8934Z" fill="#FAFAFA"/>
</svg>
