<svg xmlns="http://www.w3.org/2000/svg" width="32" height="32" viewBox="0 0 32 32" fill="none">
  <path d="M23.1654 24.2719C22.3182 24.3449 20.8282 24.3712 19.2273 24.3683C18.1434 24.3683 17.0128 24.3566 15.9991 24.342C14.9853 24.3566 13.8548 24.3683 12.7738 24.3683C11.1729 24.3683 9.68294 24.3449 8.83572 24.2719C6.35835 24.0557 5.29786 22.484 6.48981 20.696C6.79948 20.2315 7.14713 19.5567 7.48894 18.8088C8.47347 16.6645 8.96427 14.3244 8.96427 11.9639C8.96427 9.11253 10.7843 6.68481 13.3289 5.785C13.4545 4.78587 14.6026 4 15.9991 4C17.3955 4 18.5466 4.78587 18.6722 5.785C21.2139 6.68481 23.0368 9.11253 23.0368 11.9639C23.0368 14.3215 23.5276 16.6586 24.5092 18.8059C24.851 19.5538 25.1987 20.2315 25.5084 20.696C26.7032 22.484 25.6427 24.0557 23.1654 24.2719Z" stroke="#4582E9" stroke-width="2.5" stroke-miterlimit="10" stroke-linecap="round"/>
  <path d="M19.3006 25.0673C19.3006 26.8903 17.8223 28.3685 15.9964 28.3685C14.1705 28.3685 12.6952 26.8932 12.6952 25.0673C12.6952 24.8277 12.7186 24.5911 12.7682 24.3691C13.8521 24.3691 14.9798 24.3574 15.9935 24.3428C17.0072 24.3574 18.1407 24.3691 19.2217 24.3691C19.2713 24.594 19.2947 24.8307 19.2947 25.0673H19.3006Z" stroke="#4582E9" stroke-width="2.5" stroke-miterlimit="10" stroke-linecap="round"/>
</svg>