<svg xmlns="http://www.w3.org/2000/svg" width="117" height="101" viewBox="0 0 117 101" fill="none">
  <g clip-path="url(#clip0_1215_4397)">
    <path d="M111.802 28.6699L2.9033 60.8191C0.758052 61.4524 -0.467532 63.7046 0.165884 65.8496C0.799301 67.9945 3.05186 69.2199 5.19711 68.5866L114.096 36.4374C116.241 35.8041 117.467 33.5519 116.833 31.4069C116.2 29.262 113.947 28.0366 111.802 28.6699Z" fill="#9EACBA"/>
    <path d="M55.4008 54.1502C56.7777 51.7644 60.2223 51.7644 61.5993 54.1502L73.5747 74.891L85.5501 95.6318C86.927 98.0176 85.2047 101 82.4508 101H34.5448C31.7909 101 30.0686 98.0176 31.4455 95.6318L43.4209 74.891L55.3963 54.1502H55.4008Z" fill="#596C76"/>
    <path d="M58.5 56.6886C62.9513 56.6886 66.5599 53.0806 66.5599 48.6299C66.5599 44.1793 62.9513 40.5713 58.5 40.5713C54.0487 40.5713 50.4402 44.1793 50.4402 48.6299C50.4402 53.0806 54.0487 56.6886 58.5 56.6886Z" fill="#D9E7EC"/>
    <path d="M17.85 51.6962C24.9469 51.6962 30.7 45.9439 30.7 38.8481C30.7 31.7523 24.9469 26 17.85 26C10.7531 26 5 31.7523 5 38.8481C5 45.9439 10.7531 51.6962 17.85 51.6962Z" fill="#4582E9"/>
    <path d="M89.3041 25.6962C96.401 25.6962 102.154 19.9439 102.154 12.8481C102.154 5.75229 96.401 0 89.3041 0C82.2072 0 76.4541 5.75229 76.4541 12.8481C76.4541 19.9439 82.2072 25.6962 89.3041 25.6962Z" fill="#57C53C"/>
  </g>
  <defs>
    <clipPath id="clip0_1215_4397">
      <rect width="117" height="101" fill="white"/>
    </clipPath>
  </defs>
</svg>