<svg xmlns="http://www.w3.org/2000/svg" width="19" height="19" viewBox="0 0 19 19" fill="none">
  <g clip-path="url(#clip0_2424_5372)">
    <path d="M0 0V19H19V0H0ZM14.6967 0.782565C15.3022 0.782565 15.7941 1.27446 15.7941 1.8816C15.7941 2.48873 15.3022 2.97891 14.6967 2.97891C14.0913 2.97891 13.5994 2.48701 13.5994 1.8816C13.5994 1.27618 14.0896 0.782565 14.6967 0.782565ZM4.30325 0.782565C4.91038 0.782565 5.40056 1.27446 5.40056 1.8816C5.40056 2.48873 4.91038 2.97891 4.30325 2.97891C3.69612 2.97891 3.20594 2.48701 3.20594 1.8816C3.20594 1.27618 3.69784 0.782565 4.30325 0.782565Z" fill="#EEF5FF"/>
    <path d="M0 0V7.46619H19V0H0ZM4.30325 2.97891C3.69784 2.97891 3.20594 2.48701 3.20594 1.8816C3.20594 1.27618 3.69784 0.782565 4.30325 0.782565C4.90866 0.782565 5.40056 1.27446 5.40056 1.8816C5.40056 2.48873 4.91038 2.97891 4.30325 2.97891ZM14.6967 2.97891C14.0896 2.97891 13.5994 2.48701 13.5994 1.8816C13.5994 1.27618 14.0896 0.782565 14.6967 0.782565C15.3039 0.782565 15.7941 1.27446 15.7941 1.8816C15.7941 2.48873 15.3022 2.97891 14.6967 2.97891Z" fill="#4582E9"/>
    <path d="M7.33197 17.1649H5.77888V11.3102C5.2113 11.8417 4.54225 12.2338 3.77173 12.4884V11.0781C4.17763 10.9456 4.61793 10.6945 5.09263 10.323C5.56733 9.95322 5.89411 9.5198 6.07127 9.02618H7.33197V17.1649Z" fill="url(#paint0_linear_2424_5372)"/>
    <path d="M9.65382 10.6137V9.17065H14.9667V10.2989C14.5281 10.7306 14.0826 11.3498 13.6286 12.1564C13.1745 12.9631 12.8288 13.8213 12.5914 14.7294C12.3541 15.6376 12.2371 16.4494 12.2406 17.1649H10.7425C10.7683 16.0452 10.9988 14.9014 11.4357 13.7371C11.8725 12.5727 12.4556 11.5321 13.1848 10.6137H9.6521H9.65382Z" fill="url(#paint1_linear_2424_5372)"/>
  </g>
  <defs>
    <linearGradient id="paint0_linear_2424_5372" x1="5.55185" y1="17.3351" x2="5.55185" y2="9.79843" gradientUnits="userSpaceOnUse">
      <stop stop-color="#323232"/>
      <stop offset="1" stop-color="#545454"/>
    </linearGradient>
    <linearGradient id="paint1_linear_2424_5372" x1="12.3094" y1="17.3351" x2="12.3094" y2="9.79843" gradientUnits="userSpaceOnUse">
      <stop stop-color="#323232"/>
      <stop offset="1" stop-color="#545454"/>
    </linearGradient>
    <clipPath id="clip0_2424_5372">
      <rect width="19" height="19" fill="white"/>
    </clipPath>
  </defs>
</svg>