<svg xmlns="http://www.w3.org/2000/svg" width="154" height="101" viewBox="0 0 154 101" fill="none">
  <path d="M65.2324 66.6535H37.1853C36.0927 66.6535 35.206 65.7667 35.206 64.6742C35.206 63.5816 36.0927 62.6948 37.1853 62.6948H65.2324C66.325 62.6948 67.2117 63.5816 67.2117 64.6742C67.2117 65.7667 66.325 66.6535 65.2324 66.6535Z" fill="#EBEEF1"/>
  <path d="M82.3021 77.9274H64.1319C63.0393 77.9274 62.1525 77.0407 62.1525 75.9481C62.1525 74.8555 63.0393 73.9688 64.1319 73.9688H82.3021C83.3947 73.9688 84.2814 74.8555 84.2814 75.9481C84.2814 77.0407 83.3947 77.9274 82.3021 77.9274Z" fill="#EBEEF1"/>
  <path d="M56.5766 77.9274H47.7369C46.6443 77.9274 45.7576 77.0407 45.7576 75.9481C45.7576 74.8555 46.6443 73.9688 47.7369 73.9688H56.5766C57.6692 73.9688 58.5559 74.8555 58.5559 75.9481C58.5559 77.0407 57.6692 77.9274 56.5766 77.9274Z" fill="#EBEEF1"/>
  <path d="M104.601 88.3073H27.0156C25.923 88.3073 25.0363 87.4206 25.0363 86.328C25.0363 85.2354 25.923 84.3486 27.0156 84.3486H104.601C105.694 84.3486 106.581 85.2354 106.581 86.328C106.581 87.4206 105.694 88.3073 104.601 88.3073Z" fill="#EBEEF1"/>
  <path d="M41.5873 47.9567H21.2398C20.1472 47.9567 19.2605 47.07 19.2605 45.9774C19.2605 44.8848 20.1472 43.998 21.2398 43.998H41.5873C42.6799 43.998 43.5667 44.8848 43.5667 45.9774C43.5667 47.07 42.6799 47.9567 41.5873 47.9567Z" fill="#EBEEF1"/>
  <path d="M133.895 77.9355C132.91 83.822 124.676 88.7624 107.669 86.791C107.083 86.7237 106.501 86.6445 105.915 86.5535C86.3676 83.5449 67.2434 68.5337 64.7771 67.065C62.2317 65.5528 44.8413 52.5605 44.8413 52.5605C44.8413 52.5605 39.6871 49.1561 41.0252 43.2814C42.3671 37.4028 45.1501 36.7852 45.1501 36.7852L45.3995 36.5002L45.4549 36.4369L65.8737 13.1402C66.9465 12.6849 68.3162 12.3762 69.1079 13.2431C69.8996 14.11 69.8204 15.1274 69.5908 15.8637C69.2148 17.0592 68.9931 18.2983 69.0366 19.5492C69.0683 20.4637 69.1633 21.5523 69.381 22.7122C70.0778 26.469 72.0373 30.9779 77.2865 32.7632C77.2865 32.7632 79.2262 33.4362 82.5832 33.4956C85.9718 33.555 90.8132 32.9928 96.5612 30.4791C96.7512 30.396 96.9452 30.3089 97.1391 30.2218L114.609 59.1596C114.609 59.1596 114.933 59.3179 115.495 59.6069C119.038 61.42 132.058 68.4585 133.717 74.6261C134.018 75.7384 134.081 76.8508 133.895 77.9355Z" fill="#4582E9"/>
  <path d="M133.895 77.9353C132.91 83.8219 124.676 88.7623 107.669 86.7909C107.083 86.7236 106.501 86.6444 105.915 86.5533L78.3474 64.9312C78.3474 64.9312 84.6416 56.8911 97.2183 56.8911C102.123 56.8911 108.968 58.1143 115.495 59.6068C119.038 61.4198 132.058 68.4583 133.717 74.6259C134.018 75.7383 134.081 76.8507 133.895 77.9353Z" fill="#D0DEF0"/>
  <path d="M98.0811 23.9276C97.7961 25.5783 97.42 27.1974 97.1152 28.4167C96.8025 29.6597 96.561 30.4792 96.561 30.4792C90.813 32.9929 85.9716 33.555 82.583 33.4956H82.575C82.575 33.4956 81.3399 31.2155 84.1229 24.4105C86.9098 17.6056 94.8469 15.5471 97.5269 16.7822C98.8451 17.3918 98.6353 20.7092 98.0811 23.9276Z" fill="#D0DEF0"/>
  <path d="M106.692 34.5266L96.7057 37.6083C95.7635 37.8991 95.2355 38.8986 95.5262 39.8407L95.5274 39.8445C95.8181 40.7867 96.8176 41.3148 97.7598 41.024L107.746 37.9423C108.688 37.6516 109.216 36.6521 108.925 35.7099L108.924 35.7061C108.634 34.764 107.634 34.2359 106.692 34.5266Z" fill="#D2D4D1"/>
  <path d="M110.404 41.0764L100.418 44.1581C99.4755 44.4489 98.9474 45.4484 99.2381 46.3905L99.2393 46.3943C99.53 47.3365 100.53 47.8646 101.472 47.5738L111.458 44.4921C112.4 44.2014 112.928 43.2019 112.637 42.2597L112.636 42.2559C112.345 41.3138 111.346 40.7857 110.404 41.0764Z" fill="#D2D4D1"/>
  <path d="M113.472 47.6272L103.486 50.7089C102.544 50.9996 102.016 51.9991 102.306 52.9413L102.308 52.9451C102.598 53.8873 103.598 54.4154 104.54 54.1246L114.526 51.0429C115.468 50.7522 115.997 49.7527 115.706 48.8105L115.705 48.8067C115.414 47.8645 114.414 47.3365 113.472 47.6272Z" fill="#D2D4D1"/>
  <path d="M98.0815 23.9273C97.7964 25.5781 97.4204 27.1972 97.1155 28.4165L88.2125 26.8211C87.5989 26.7103 87.1872 26.1244 87.2981 25.5108L87.7098 23.2187C87.8206 22.6012 88.4065 22.1935 89.0201 22.3043L98.0815 23.9273Z" fill="#4582E9"/>
  <path d="M133.895 77.9356C133.697 79.1113 133.21 80.2514 132.423 81.3045C129.268 85.5204 121.275 88.3667 107.669 86.7911C87.5275 84.4555 67.3186 68.5774 64.7771 67.0652C62.2317 65.5529 44.8413 52.5606 44.8413 52.5606C44.8413 52.5606 39.6871 49.1562 41.0252 43.2815C41.5279 41.0884 42.2286 39.6237 42.9134 38.6539C44.0575 37.0269 45.1501 36.7854 45.1501 36.7854L45.4549 36.437L61.9823 49.8054C64.6188 51.9391 66.8317 54.5241 68.7516 57.3229C71.6691 61.5745 81.7004 67.2393 93.0934 72.7696C102.863 77.5081 122.736 78.0465 133.895 77.9356Z" fill="#C1C1C1"/>
</svg>