<svg width="24" height="24" viewBox="0 0 24 24" fill="none" xmlns="http://www.w3.org/2000/svg">
<path d="M15.0559 16.8893C15.0559 17.0514 14.9915 17.2068 14.8769 17.3214C14.7623 17.436 14.6068 17.5004 14.4448 17.5004H5.8892C5.75476 17.5004 5.62642 17.6227 5.51642 17.7021L3.44476 19.3338V9.55599C3.44476 9.39391 3.50914 9.23847 3.62375 9.12387C3.73835 9.00926 3.89379 8.94488 4.05587 8.94488H6.41476V7.72266H4.05587C3.56964 7.72266 3.10332 7.91581 2.75951 8.25963C2.41569 8.60344 2.22253 9.06976 2.22253 9.55599V20.556C2.22344 20.6695 2.25594 20.7805 2.31639 20.8765C2.37683 20.9726 2.46283 21.0499 2.56476 21.0999C2.66295 21.1445 2.77121 21.1624 2.87855 21.1517C2.98588 21.1409 3.08846 21.102 3.17587 21.0388L6.32309 18.7227H14.5364C14.768 18.7295 14.9986 18.6887 15.2138 18.6028C15.429 18.517 15.6243 18.3878 15.7876 18.2234C15.9509 18.059 16.0786 17.8628 16.163 17.647C16.2474 17.4312 16.2866 17.2003 16.2781 16.9688V16.2782H15.0559V16.8893Z" fill="#4582E9"/>
<path d="M19.9446 3.44531H9.55575C9.06952 3.44531 8.6032 3.63847 8.25938 3.98228C7.91557 4.3261 7.72241 4.79242 7.72241 5.27865V12.612C7.72241 13.0982 7.91557 13.5645 8.25938 13.9083C8.6032 14.2522 9.06952 14.4453 9.55575 14.4453H17.8363L20.7574 16.7125C20.8443 16.7767 20.9466 16.8168 21.0539 16.8286C21.1612 16.8404 21.2698 16.8236 21.3685 16.7798C21.4725 16.7302 21.5604 16.6523 21.622 16.555C21.6837 16.4577 21.7165 16.3449 21.7169 16.2298V5.27865C21.7171 4.80282 21.5324 4.34553 21.2017 4.00342C20.871 3.66131 20.4202 3.46117 19.9446 3.44531ZM20.5557 15.0198L18.4169 13.3514C18.3102 13.2686 18.1791 13.2235 18.0441 13.2231H9.55575C9.39367 13.2231 9.23823 13.1587 9.12362 13.0441C9.00902 12.9295 8.94463 12.7741 8.94463 12.612V5.27865C8.94463 5.11657 9.00902 4.96113 9.12362 4.84653C9.23823 4.73192 9.39367 4.66753 9.55575 4.66753H19.9446C20.108 4.68236 20.2603 4.7564 20.3728 4.87571C20.4854 4.99502 20.5505 5.15137 20.5557 5.31531V15.0198Z" fill="#4582E9"/>
</svg>
