<svg xmlns="http://www.w3.org/2000/svg" width="101" height="150" viewBox="0 0 101 150" fill="none">
  <g clip-path="url(#clip0_2770_3758)">
    <path d="M5.38696 37.3315L15.4154 33.4424L15.9714 55.0594L5.38696 55.7105" fill="#B2B2B7"/>
    <path d="M1.323 9.81738L12.1013 34.6639L90.1354 57.9771L80.5724 26.9971L1.323 9.81738Z" fill="#632118"/>
    <path d="M1.323 9.81697L24.6725 0L101 15.8391L80.5724 26.9967L1.323 9.81697Z" fill="#F5432B"/>
    <path d="M24.0951 59.1328V73.7598H13.1746V59.1328C13.1746 60.1436 15.6181 60.9617 18.6348 60.9617C21.6516 60.9617 24.0994 60.1436 24.0994 59.1328H24.0951Z" fill="#D2CECB"/>
    <path d="M24.095 27.4082V59.1334C24.095 60.1443 21.6515 60.9624 18.6304 60.9624C15.6094 60.9624 13.1702 60.1443 13.1702 59.1334V27.4082H24.095Z" fill="#D87E2E"/>
    <path d="M18.6348 29.2369C21.6505 29.2369 24.0951 28.4181 24.0951 27.408C24.0951 26.3979 21.6505 25.5791 18.6348 25.5791C15.6192 25.5791 13.1746 26.3979 13.1746 27.408C13.1746 28.4181 15.6192 29.2369 18.6348 29.2369Z" fill="#B7ACA8"/>
    <path d="M34.7054 48.1631V62.79H23.7805V48.1631C23.7805 49.1739 26.2241 49.992 29.2408 49.992C32.2575 49.992 34.7054 49.1739 34.7054 48.1631Z" fill="#D2CECB"/>
    <path d="M34.7054 16.4385V48.1637C34.7054 49.1745 32.2618 49.9926 29.2408 49.9926C26.2198 49.9926 23.7805 49.1745 23.7805 48.1637V16.4385H34.7054Z" fill="#DB8A3A"/>
    <path d="M29.2452 18.2672C32.2608 18.2672 34.7055 17.4484 34.7055 16.4383C34.7055 15.4282 32.2608 14.6094 29.2452 14.6094C26.2296 14.6094 23.7849 15.4282 23.7849 16.4383C23.7849 17.4484 26.2296 18.2672 29.2452 18.2672Z" fill="#E8E7E9"/>
    <path d="M45.6302 56.418V71.0449H34.7053V56.418C34.7053 57.4288 37.1489 58.2469 40.1656 58.2469C43.1823 58.2469 45.6302 57.4288 45.6302 56.418Z" fill="#D9D9DB"/>
    <path d="M45.6302 24.6973V56.4225C45.6302 57.4333 43.1866 58.2514 40.1656 58.2514C37.1446 58.2514 34.7053 57.4333 34.7053 56.4225V24.6973H45.6302Z" fill="#E1963F"/>
    <path d="M40.17 26.526C43.1856 26.526 45.6303 25.7071 45.6303 24.6971C45.6303 23.687 43.1856 22.8682 40.17 22.8682C37.1544 22.8682 34.7097 23.687 34.7097 24.6971C34.7097 25.7071 37.1544 26.526 40.17 26.526Z" fill="#E8E7E9"/>
    <path d="M56.555 68.5938V83.2207H45.6301V68.5938C45.6301 69.6046 48.0737 70.4227 51.0904 70.4227C54.1071 70.4227 56.555 69.6046 56.555 68.5938Z" fill="#D2CECB"/>
    <path d="M56.555 36.8691V68.5944C56.555 69.6052 54.1114 70.4233 51.0904 70.4233C48.0694 70.4233 45.6301 69.6052 45.6301 68.5944V36.8691H56.555Z" fill="#DB8A3A"/>
    <path d="M51.0904 38.6978C54.106 38.6978 56.5507 37.879 56.5507 36.8689C56.5507 35.8589 54.106 35.04 51.0904 35.04C48.0748 35.04 45.6301 35.8589 45.6301 36.8689C45.6301 37.879 48.0748 38.6978 51.0904 38.6978Z" fill="#E8E7E9"/>
    <path d="M67.4798 75.541V90.168H56.5549V75.541C56.5549 76.5518 58.9985 77.3699 62.0152 77.3699C65.0319 77.3699 67.4798 76.5518 67.4798 75.541Z" fill="#D2CECB"/>
    <path d="M67.4798 43.8164V75.5417C67.4798 76.5525 65.0362 77.3706 62.0152 77.3706C58.9942 77.3706 56.5549 76.5525 56.5549 75.5417V43.8164H67.4798Z" fill="#D87E2E"/>
    <path d="M62.0152 45.6451C65.0308 45.6451 67.4755 44.8263 67.4755 43.8162C67.4755 42.8061 65.0308 41.9873 62.0152 41.9873C58.9996 41.9873 56.5549 42.8061 56.5549 43.8162C56.5549 44.8263 58.9996 45.6451 62.0152 45.6451Z" fill="#D8D8D8"/>
    <path d="M89.5709 39.9404V116.035L65.019 129.407L65.0147 129.411L63.4589 130.259L63.0323 130.49L54.0037 135.407V64.2687C55.8913 63.7804 57.46 62.3841 58.115 60.5038C58.6968 59.7157 59.0718 58.7905 59.1536 57.7797L59.2657 56.4477L63.0797 54.3703L65.0147 53.3167H65.019L89.5709 39.9404Z" fill="#C7C7C9"/>
    <path d="M63.4589 54.5203V130.615H63.4546L63.0323 130.49L54.0037 127.818L5.38696 113.426V37.332L11.5583 39.101V49.3677C11.5583 52.0403 13.3727 54.3789 15.9714 55.06L50.9999 64.2602C52.0299 64.53 53.0555 64.5171 54.0037 64.2687C55.8913 63.7804 57.46 62.3841 58.115 60.5038C58.2831 60.0241 58.3865 59.5187 58.4253 58.9833L58.5201 57.6513L58.7442 54.5289L63.0797 54.3704L63.4546 54.5203H63.4589Z" fill="#EBEEF1"/>
    <path d="M63.459 73.9057V150L0 131.801V55.7109L23.1211 62.3412L35.369 65.8534L63.459 73.9057Z" fill="#EBEEF1"/>
    <path d="M0 55.7109L23.1211 62.3412L0 76.4456V55.7109Z" fill="#F5432B"/>
    <path d="M63.4589 73.9058V98.3455C55.6973 89.4965 42.9366 74.6682 35.3689 65.8535L63.4589 73.9058Z" fill="#F5432B"/>
    <path d="M93.9883 54.5283V119.409L63.459 138.786V73.9053L93.9883 54.5283Z" fill="#CFCFD4"/>
    <path d="M63.6615 141.707L93.9883 122.459V130.623L63.459 150V141.647L63.6615 141.707Z" fill="#CFCFD4"/>
    <path d="M93.9883 119.41V122.46L63.6615 141.708L63.459 141.648V138.787L93.9883 119.41Z" fill="#D8321B"/>
    <path d="M63.459 138.786V141.648L0 123.448V120.771L63.2564 138.915L63.459 138.786Z" fill="#F5432B"/>
    <path d="M101 15.8389V48.9519L89.7908 57.8736L80.5725 26.9965L101 15.8389Z" fill="#D8321B"/>
    <path d="M93.9883 54.5283V81.0496L63.459 98.3449V73.9053L93.9883 54.5283Z" fill="#D8321B"/>
  </g>
  <defs>
    <clipPath id="clip0_2770_3758">
      <rect width="101" height="150" fill="white"/>
    </clipPath>
  </defs>
</svg>