<svg width="45" height="45" viewBox="0 0 45 45" fill="none" xmlns="http://www.w3.org/2000/svg">
<path d="M22.5 42C33.2696 42 42 33.2696 42 22.5C42 11.7304 33.2696 3 22.5 3C11.7304 3 3 11.7304 3 22.5C3 33.2696 11.7304 42 22.5 42Z" fill="#4582E9"/>
<path d="M22.4993 38.0214C31.0716 38.0214 38.0209 31.0721 38.0209 22.4998C38.0209 13.9275 31.0716 6.97827 22.4993 6.97827C13.927 6.97827 6.97778 13.9275 6.97778 22.4998C6.97778 31.0721 13.927 38.0214 22.4993 38.0214Z" fill="#FAFAFA"/>
<path d="M27.426 29.636C27.0082 29.636 26.5935 29.4623 26.297 29.1239L20.387 22.3559L27.6836 15.9831C28.3065 15.4396 29.2528 15.5025 29.7963 16.1254C30.3399 16.7483 30.277 17.6946 29.6541 18.2381L24.6125 22.6404L28.5535 27.1519C29.0971 27.7748 29.0342 28.7211 28.4113 29.2646C28.1268 29.5132 27.7764 29.6345 27.4275 29.6345L27.426 29.636Z" fill="#4582E9"/>
<path d="M22.4992 12.8358C22.0859 12.8358 21.7505 12.5004 21.7505 12.0872V10.488C21.7505 10.0747 22.0859 9.73932 22.4992 9.73932C22.9124 9.73932 23.2478 10.0747 23.2478 10.488V12.0872C23.2478 12.5004 22.9124 12.8358 22.4992 12.8358Z" fill="#A8ABAC"/>
<path d="M12.0869 23.2486H10.4877C10.0744 23.2486 9.73901 22.9132 9.73901 22.4999C9.73901 22.0866 10.0744 21.7512 10.4877 21.7512H12.0869C12.5001 21.7512 12.8355 22.0866 12.8355 22.4999C12.8355 22.9132 12.5001 23.2486 12.0869 23.2486Z" fill="#A8ABAC"/>
<path d="M22.4992 35.26C22.0859 35.26 21.7505 34.9246 21.7505 34.5113V32.9121C21.7505 32.4989 22.0859 32.1635 22.4992 32.1635C22.9124 32.1635 23.2478 32.4989 23.2478 32.9121V34.5113C23.2478 34.9246 22.9124 35.26 22.4992 35.26Z" fill="#A8ABAC"/>
<path d="M34.5109 23.2486H32.9118C32.4985 23.2486 32.1631 22.9132 32.1631 22.4999C32.1631 22.0866 32.4985 21.7512 32.9118 21.7512H34.5109C34.9242 21.7512 35.2596 22.0866 35.2596 22.4999C35.2596 22.9132 34.9242 23.2486 34.5109 23.2486Z" fill="#A8ABAC"/>
<path d="M12.3205 27.811C12.0345 27.811 11.762 27.6463 11.6362 27.3678C11.467 26.9904 11.6362 26.5472 12.0135 26.378L22.1925 21.8156C22.5699 21.6464 23.0131 21.8156 23.1823 22.1929C23.3515 22.5703 23.1823 23.0135 22.8049 23.1827L12.626 27.7451C12.5271 27.79 12.4223 27.811 12.3205 27.811Z" fill="#F9543E"/>
<path d="M22.4991 24.605C23.6618 24.605 24.6043 23.6625 24.6043 22.4997C24.6043 21.337 23.6618 20.3945 22.4991 20.3945C21.3364 20.3945 20.3938 21.337 20.3938 22.4997C20.3938 23.6625 21.3364 24.605 22.4991 24.605Z" fill="#D0DEF0"/>
</svg>
