<svg xmlns="http://www.w3.org/2000/svg" width="174" height="150" viewBox="0 0 174 150" fill="none">
  <path d="M87.6867 116.727C114.31 116.727 135.892 95.0319 135.892 68.2697C135.892 41.5075 114.31 19.8125 87.6867 19.8125C61.0634 19.8125 39.481 41.5075 39.481 68.2697C39.481 95.0319 61.0634 116.727 87.6867 116.727Z" fill="#D0DEF0"/>
  <path d="M87.6864 101.541C105.967 101.541 120.785 86.6452 120.785 68.2697C120.785 49.8943 105.967 34.998 87.6864 34.998C69.4063 34.998 54.5874 49.8943 54.5874 68.2697C54.5874 86.6452 69.4063 101.541 87.6864 101.541Z" fill="#EBEEF1"/>
  <path d="M157.115 75.2773L152.977 75.334L153.293 98.6664L157.431 98.6098L157.115 75.2773Z" fill="#E1E1E1"/>
  <path d="M161.978 42.0908C160.853 42.2903 160.088 43.3644 160.102 44.5121L160.345 62.4058C160.356 63.291 159.653 64.0153 158.775 64.0293C157.895 64.0398 157.174 63.333 157.16 62.4513L156.917 44.5576C156.903 43.4099 156.106 42.3567 154.978 42.1888C153.54 41.9753 152.312 43.0985 152.332 44.4981L152.576 62.5143C152.587 63.3995 151.883 64.1238 151.006 64.1378C150.126 64.1483 149.405 63.4415 149.391 62.5598L149.147 44.666C149.134 43.5184 148.336 42.4652 147.209 42.2973C145.771 42.0803 144.542 43.207 144.563 44.6066L144.783 60.7333L144.88 67.8607C144.957 73.4451 149.52 77.9097 155.075 77.8363C160.631 77.7593 165.072 73.1721 164.999 67.5878L164.902 60.4604L164.682 44.3336C164.665 42.9341 163.408 41.8424 161.974 42.0978L161.978 42.0908Z" fill="#EBEEF1"/>
  <path d="M158.966 97.8456L151.734 97.9446C151.036 97.9542 150.478 98.5305 150.487 99.2319L150.89 128.942C150.899 129.644 151.473 130.205 152.17 130.195L159.403 130.096C160.101 130.087 160.659 129.51 160.649 128.809L160.247 99.0984C160.237 98.397 159.664 97.8361 158.966 97.8456Z" fill="#F5432B"/>
  <path d="M22.457 74.2363L18.3193 74.1455L17.8129 97.4746L21.9506 97.5653L22.457 74.2363Z" fill="#E1E1E1"/>
  <path d="M23.5151 96.8553L16.2837 96.6967C15.5861 96.6814 15.0082 97.2375 14.9929 97.9388L14.3481 127.645C14.3329 128.346 14.8861 128.927 15.5838 128.942L22.8152 129.101C23.5129 129.116 24.0908 128.56 24.106 127.859L24.7508 98.1528C24.766 97.4515 24.2128 96.8706 23.5151 96.8553Z" fill="#57C53C"/>
  <path d="M32.1747 61.2792C31.9554 71.3107 26.6472 76.8741 20.2495 76.7341C13.8482 76.5942 8.78366 70.8034 9.00296 60.7684C9.22225 50.7368 14.6384 40.2574 21.0361 40.4009C27.4338 40.5408 32.3905 51.2442 32.1747 61.2792Z" fill="#EBEEF1"/>
</svg>