<svg xmlns="http://www.w3.org/2000/svg" width="22" height="25" viewBox="0 0 22 25" fill="none">
  <g clip-path="url(#clip0_2424_8576)">
    <path d="M18.4738 3.15707L1.15708 20.4738C0.826005 20.8049 0.826005 21.3416 1.15708 21.6727L2.32469 22.8403C2.65576 23.1714 3.19253 23.1714 3.52361 22.8403L20.8403 5.5236C21.1714 5.19253 21.1714 4.65575 20.8403 4.32468L19.6727 3.15707C19.3416 2.826 18.8049 2.826 18.4738 3.15707Z" fill="#E1E1E1"/>
    <path d="M14.6131 2.31486L13.2202 3.70782C12.8004 4.12753 12.8004 4.80802 13.2202 5.22772L18.7724 10.78C19.1921 11.1997 19.8726 11.1997 20.2923 10.78L21.6853 9.38704C22.105 8.96733 22.105 8.28685 21.6853 7.86714L16.133 2.31486C15.7133 1.89515 15.0328 1.89515 14.6131 2.31486Z" fill="#4D5055"/>
    <path d="M11.1593 3.44474L9.7663 4.83771C9.34659 5.25741 9.34659 5.9379 9.7663 6.35761L17.6421 14.2334C18.0618 14.6531 18.7422 14.6531 19.162 14.2334L20.5549 12.8404C20.9746 12.4207 20.9746 11.7402 20.5549 11.3205L12.6792 3.44474C12.2595 3.02503 11.579 3.02503 11.1593 3.44474Z" fill="#6C7A84"/>
    <path d="M7.38682 23.6842L8.77978 22.2912C9.19949 21.8715 9.19949 21.191 8.77978 20.7713L3.2275 15.219C2.80779 14.7993 2.12731 14.7993 1.7076 15.219L0.314633 16.612C-0.105077 17.0317 -0.105076 17.7122 0.314634 18.1319L5.86692 23.6842C6.28663 24.1039 6.96711 24.1039 7.38682 23.6842Z" fill="#4D5055"/>
    <path d="M10.8407 22.5543L12.2336 21.1613C12.6533 20.7416 12.6533 20.0611 12.2336 19.6414L4.35788 11.7657C3.93818 11.346 3.25769 11.346 2.83798 11.7657L1.44502 13.1586C1.02531 13.5783 1.02531 14.2588 1.44502 14.6785L9.32077 22.5543C9.74048 22.974 10.421 22.974 10.8407 22.5543Z" fill="#6C7A84"/>
  </g>
  <defs>
    <clipPath id="clip0_2424_8576">
      <rect width="22" height="25" fill="white"/>
    </clipPath>
  </defs>
</svg>