<svg width="40" height="40" viewBox="0 0 40 40" fill="none" xmlns="http://www.w3.org/2000/svg">
<circle cx="20" cy="20" r="20" fill="#EBEEF1"/>
<g clip-path="url(#clip0_1215_6398)">
<path d="M25.8573 17.8735L26.9125 16.5482C29.3715 13.4619 27.1828 8.88867 23.2478 8.88867H16.7523C12.8853 8.88867 10.6776 13.3227 12.9963 16.4307L14.1023 17.9124C12.4868 19.4694 11.4815 21.6601 11.4815 24.0859C11.4815 26.9958 12.9274 29.566 15.1368 31.1109H24.8633C27.0726 29.566 28.5185 26.9958 28.5185 24.0859C28.5185 21.6393 27.4961 19.4331 25.8573 17.8735ZM16.1601 14.0342C15.8176 13.5259 16.1808 12.8386 16.7927 12.8386H23.2073C23.8193 12.8386 24.1825 13.5259 23.8399 14.0342L22.567 15.9258C21.7571 15.6682 20.8947 15.5298 19.9996 15.5298C19.1045 15.5298 18.243 15.6682 17.4331 15.9258L16.1601 14.0342Z" fill="#A8ABAC"/>
</g>
<defs>
<clipPath id="clip0_1215_6398">
<rect width="17.037" height="22.2222" fill="white" transform="translate(11.4815 8.88867)"/>
</clipPath>
</defs>
</svg>
