<svg xmlns="http://www.w3.org/2000/svg" width="111" height="69" viewBox="0 0 111 69" fill="none">
  <g clip-path="url(#clip0_1215_5630)">
    <path d="M109.425 6.51429C110.665 5.18898 111 3.79629 111 2.63946C111 1.10637 110.397 -0.0111475 110.386 8.39043e-05C107.996 2.75739 96.6616 13.6238 80.0786 15.0894V13.5339C80.0786 13.444 80.0283 13.416 79.9557 13.416H62.1276C61.9992 12.5736 61.8875 11.7706 61.7926 11.0518L61.7647 10.8384C61.5134 9.04135 61.2957 7.48019 60.9495 6.55921C61.7312 5.99764 62.39 5.21145 62.8535 4.28486C63.2834 3.41442 63.5179 2.46537 63.5123 1.61179V1.42647L63.356 1.52194C63.1271 1.66233 62.5408 1.89257 62.5296 1.89257C61.6865 2.20705 60.1734 2.54399 57.7557 2.36991C56.4604 2.27444 55.299 2.25198 54.3051 2.29129C53.2722 2.33621 52.4402 2.45976 51.8316 2.65069C51.1616 2.85847 50.6368 3.13364 50.2236 3.48743C49.8607 3.79068 49.6652 4.09392 49.5312 4.3017C48.4871 4.23431 47.1527 4.35786 46.1811 4.61618C45.5279 4.79027 45.0477 5.09352 44.7183 5.53716C44.3832 5.98641 44.2213 6.5536 44.2102 7.27802C44.2102 7.71043 44.2995 8.42924 44.5619 9.17612C44.9025 10.1476 45.4329 10.9451 46.1421 11.5516L46.2872 11.6751L46.3096 11.4898C46.3151 11.4449 46.4938 10.3217 48.1521 10.2768C48.3084 10.2768 48.5876 10.2768 48.7105 10.2824C49.079 10.2993 49.3526 10.3891 49.481 10.5407C49.6038 10.6924 49.6373 10.9507 49.5815 11.3101C49.5815 11.3438 49.4307 12.203 49.1571 13.1183C49.1571 13.1183 49.1181 13.2475 49.0734 13.4104H31.0498C30.9773 13.4104 30.927 13.4384 30.927 13.5283V15.0838C14.3384 13.6238 3.00392 2.75739 0.619769 8.39043e-05C0.603018 -0.0111475 0 1.10637 0 2.63946C0 3.79629 0.329426 5.1946 1.57455 6.51429C1.57455 6.51429 1.58013 6.5199 1.5913 6.53675C1.09437 7.77782 0.418763 11.1135 3.7242 13.9158C3.66278 14.2246 3.61252 14.7132 3.61252 15.213C3.61252 16.8809 4.20996 19.3574 7.2753 21.4239C7.2753 21.4239 7.48747 21.57 7.62706 21.6598C7.57681 22.3112 7.66056 27.1407 14.5394 28.8535C15.215 30.8415 17.1078 33.3629 21.7422 33.6774C23.0431 35.8113 24.9192 36.8952 27.4708 36.8727C28.0794 37.8274 29.2687 38.5911 30.6869 38.9393C31.6249 39.1639 32.5741 39.1864 33.5066 39.0011C33.8025 39.2369 34.3441 39.5514 35.0532 39.8322C35.0532 39.8322 35.0588 39.8322 35.0644 39.8378C34.238 40.4387 33.836 41.18 33.5568 42.0448C33.1046 43.4318 33.1046 44.7459 34.5563 46.6553C35.0476 47.3348 35.3212 47.9132 35.472 48.5814C35.6172 49.2385 35.6451 49.991 35.6451 51.0692C35.6451 51.7487 35.7847 52.3833 36.0583 52.9617C36.3263 53.5345 36.7283 54.023 37.2196 54.3824C37.5044 54.5902 37.8226 54.7587 38.1744 54.8766C37.9566 55.1743 37.7947 55.5 37.6886 55.8425C37.5044 56.4209 37.4653 57.0555 37.577 57.6789C37.6942 58.3022 37.9566 58.9031 38.3531 59.4534C38.984 60.3238 39.3972 60.9528 39.6596 61.5705C39.9332 62.2051 40.0505 62.8341 40.0505 63.6708C39.989 66.0687 40.7596 67.1357 41.9321 67.9893C43.1046 68.8485 44.3497 69.2528 46.5999 68.4554C47.3928 68.197 48.0237 68.1128 48.7049 68.1746C49.3693 68.2364 50.0896 68.4441 51.1114 68.7755C51.7535 68.9889 52.3956 69.0506 53.0265 68.972C53.6519 68.8878 54.2381 68.6575 54.7295 68.2981C55.0142 68.0903 55.2711 67.832 55.4888 67.5344C55.7066 67.832 55.9634 68.0903 56.2482 68.2981C56.7395 68.6575 57.3258 68.8878 57.9512 68.972C58.5765 69.0562 59.2242 68.9889 59.8663 68.7755C60.8881 68.4441 61.6083 68.242 62.2728 68.1746C62.9596 68.1128 63.5849 68.1914 64.3778 68.4554C66.6335 69.2528 67.873 68.8428 69.0456 67.9893C70.2181 67.1301 70.9886 66.0687 70.9272 63.6708C70.9272 62.8341 71.0389 62.2051 71.3125 61.5705C71.5749 60.9528 71.9937 60.3238 72.6246 59.4534C73.021 58.9031 73.2835 58.3078 73.4007 57.6789C73.5124 57.0555 73.4789 56.4209 73.289 55.8425C73.1829 55.5056 73.021 55.1799 72.8033 54.8822C73.155 54.7643 73.4733 54.6015 73.758 54.3881C74.2438 54.0287 74.6514 53.5401 74.9194 52.9673C75.193 52.3945 75.3326 51.7543 75.327 51.0748C75.327 49.9966 75.3605 49.2441 75.5057 48.587C75.6564 47.9132 75.93 47.3347 76.4214 46.6609C77.8675 44.7515 77.8675 43.4375 77.4208 42.0504C77.1416 41.1856 76.7341 40.4443 75.9133 39.8434C75.9244 39.8434 75.9244 39.8378 75.9244 39.8378C76.6391 39.557 77.1807 39.2369 77.4711 39.0067C78.4035 39.192 79.3583 39.1695 80.2907 38.9449C81.709 38.5967 82.8982 37.833 83.5068 36.8783C86.0641 36.9008 87.9401 35.817 89.2411 33.683C93.8754 33.3685 95.7626 30.8471 96.4438 28.8591C103.323 27.152 103.406 22.3168 103.356 21.6654C103.496 21.5756 103.708 21.4296 103.708 21.4296C106.768 19.363 107.371 16.8865 107.371 15.2186C107.371 14.7188 107.315 14.2302 107.259 13.9214C110.564 11.1135 109.889 7.77782 109.398 6.54236C109.403 6.52552 109.414 6.5199 109.414 6.5199M46.8902 21.4745C45.5558 21.3453 42.7361 20.7838 40.553 18.4532C40.056 17.9198 39.4642 17.3694 38.917 16.9539C39.9444 17.0437 45.8405 17.5772 47.9846 17.7681C47.6775 18.9137 47.3034 20.1716 46.8902 21.4745ZM70.4191 18.4532C68.236 20.7894 65.4163 21.3453 64.0818 21.4745C63.6687 20.166 63.2946 18.9137 62.9875 17.7681C65.126 17.5772 71.0277 17.0437 72.0495 16.9539C71.5023 17.3694 70.916 17.9198 70.4135 18.4532" fill="#AD7207"/>
    <path d="M83.222 25.068H75.8015L75.8239 25.0175L79.509 16.9814L83.222 25.068Z" fill="#FDD000"/>
    <path d="M86.0249 20.8624C84.9194 21.2498 83.7413 21.4464 82.5687 21.5082L81.3906 18.9811C84.1321 18.6048 86.734 18.0264 89.174 17.3076C89.0624 18.1275 88.5263 19.9863 86.0305 20.8624" fill="#FDD000"/>
    <path d="M86.7564 21.4971C86.3544 23.1425 85.4778 24.26 84.121 24.8328L82.9485 22.3226C84.0987 22.244 85.2433 22.0418 86.3265 21.6599C86.4773 21.6094 86.6169 21.5532 86.7564 21.4971Z" fill="#FDD000"/>
    <path d="M67.3314 38.6248C67.3314 38.5068 67.2923 38.4001 67.2086 38.3215C67.1304 38.2429 67.0299 38.198 66.9182 38.198C66.868 38.198 66.8289 38.2036 66.7842 38.2204C66.7172 38.2429 66.6614 38.271 66.6167 38.3215L62.5743 42.4715C62.2839 42.1626 61.9712 41.8706 61.6362 41.6011L65.2655 36.7323C65.7792 36.0247 66.5385 35.5137 67.3202 35.5137C68.1689 35.5137 68.9339 35.8843 69.5257 36.6874C70.1846 37.6027 70.7262 38.2878 71.3459 38.8269C70.0394 39.7423 66.7954 42.0223 63.825 44.1113C63.5905 43.7238 63.328 43.3532 63.0433 43.005L67.2197 38.928C67.3035 38.8494 67.3482 38.7371 67.3426 38.6304" fill="#FDD000"/>
    <path d="M62.3844 34.8905C62.3509 34.7838 62.2839 34.6995 62.1778 34.649C62.0773 34.5928 61.9656 34.5928 61.8539 34.6265C61.7479 34.6546 61.6585 34.7332 61.6138 34.8343L59.051 40.0906C58.6323 39.9277 58.2023 39.7873 57.7612 39.6863C58.8165 36.1989 59.9723 32.3915 60.4357 30.8584C61.1337 31.2852 61.9489 31.5884 63.0209 31.9366C63.9589 32.2511 64.5452 32.8688 64.8132 33.6831C65.0477 34.4356 64.8076 35.3116 64.2939 36.0248L60.8098 41.0003C60.4525 40.7701 60.0784 40.5567 59.6987 40.3714L62.3732 35.2218C62.4067 35.16 62.4179 35.0982 62.4179 35.0309C62.4179 34.9859 62.4179 34.941 62.3955 34.8961" fill="#FDD000"/>
    <path d="M48.6322 35.2159L51.3067 40.3655C50.9215 40.5508 50.5474 40.7586 50.1956 40.9945L46.7115 36.019C46.1978 35.3058 45.9577 34.4297 46.1923 33.6772C46.4547 32.863 47.0409 32.2452 47.979 31.9308C49.051 31.5826 49.8662 31.2793 50.5641 30.8525C51.0276 32.3856 52.1778 36.1931 53.2386 39.6804C52.7975 39.7871 52.362 39.9219 51.9488 40.0847L49.386 34.8284C49.3358 34.7274 49.2464 34.6487 49.1403 34.6207C49.0287 34.587 48.917 34.587 48.8165 34.6431C48.716 34.6937 48.649 34.7779 48.6099 34.8846C48.5932 34.9295 48.5876 34.9745 48.5876 35.0194C48.5876 35.0868 48.5987 35.1485 48.6322 35.2103" fill="#FDD000"/>
    <path d="M43.7915 38.9222L47.9679 42.9991C47.6832 43.3473 47.4207 43.718 47.1862 44.1054C44.2158 42.0164 40.9718 39.7364 39.6597 38.8211C40.2794 38.282 40.821 37.5968 41.4799 36.6815C42.0717 35.8841 42.8367 35.5134 43.6854 35.5078C44.4726 35.5078 45.2208 36.0188 45.7401 36.7264L49.3638 41.5952C49.0344 41.8648 48.7217 42.1568 48.4313 42.4657L44.3833 38.3157C44.3386 38.2651 44.2828 38.237 44.2158 38.2146C44.1711 38.2033 44.1321 38.1921 44.0818 38.1921C43.9701 38.1921 43.864 38.2314 43.7859 38.3157C43.7021 38.3999 43.663 38.5066 43.663 38.6189C43.663 38.7256 43.7021 38.8379 43.7859 38.9165" fill="#FDD000"/>
    <path d="M74.9138 20.2784C75.7011 19.7618 76.5665 19.4473 77.4711 19.3574L76.7564 20.8737C76.0361 20.6883 75.4107 20.4806 74.9138 20.2784Z" fill="#FDD000"/>
    <path d="M76.4102 21.6199L75.5113 23.5349C74.4057 22.9733 73.5124 22.4174 73.0266 22.0973L73.1606 21.9344C73.4733 21.5301 73.8139 21.1707 74.1712 20.8506C74.724 21.0977 75.5001 21.3728 76.4158 21.6255" fill="#FDD000"/>
    <path d="M72.3454 21.3112C70.6815 23.5462 67.9345 25.0232 65.327 25.2815C65.0422 24.4111 64.7574 23.5406 64.4783 22.687C66.0026 22.5242 68.9451 21.8672 71.3571 19.2727C72.8535 17.6666 74.8022 16.3188 77.5995 16.3301C78.0294 16.3301 78.4594 16.3301 78.8893 16.3076L77.9233 18.3742C76.0305 18.3854 73.92 19.1828 72.3398 21.3056" fill="#FDD000"/>
    <path d="M66.7228 34.4127C66.5609 34.4408 66.3934 34.4801 66.2314 34.5363C66.1756 34.5531 66.1198 34.5756 66.0639 34.5981C66.0639 34.5363 66.0695 34.4745 66.0695 34.4127C66.0695 34.0533 66.0137 33.7052 65.9076 33.3738C65.902 33.3514 65.8964 33.3345 65.8853 33.3121C66.0416 33.1155 66.2035 32.8628 66.3431 32.5596C66.5106 33.2335 66.6446 33.8568 66.7228 34.4127Z" fill="#FDD000"/>
    <path d="M65.5614 32.6324C65.1426 31.9473 64.4949 31.397 63.6853 31.06C63.8361 30.9477 64.7797 30.1559 65.137 28.5049C65.4944 29.6056 65.8294 30.6669 66.103 31.6441C65.9522 32.0484 65.7568 32.3797 65.5669 32.6324" fill="#FDD000"/>
    <path d="M62.2392 27.3994C62.6692 26.967 63.4508 25.9787 63.73 24.2827L63.7412 24.2715C63.9924 25.0352 64.2437 25.799 64.495 26.5627L64.5117 26.6076C64.5899 26.8547 64.6736 27.0962 64.7518 27.3377C64.7016 28.983 63.8417 30.0556 63.4899 30.2859C63.1438 30.0613 62.3006 29.0111 62.2336 27.3994" fill="#FDD000"/>
    <path d="M63.06 30.8415C62.2783 30.5832 61.6753 30.3529 61.1616 30.0665C61.4408 29.7576 61.7256 29.3252 61.9098 28.7637C62.2002 29.8475 62.7362 30.5158 63.0544 30.8415" fill="#FDD000"/>
    <path d="M63.5011 23.5356C63.4174 23.6311 63.3392 23.6985 63.2778 23.7434C62.9428 23.5356 62.1555 22.6091 61.9824 21.149C62.0941 21.0535 62.3174 20.8457 62.5519 20.5088C62.8479 21.4859 63.1717 22.5024 63.5011 23.53" fill="#FDD000"/>
    <path d="M63.1214 24.5349C62.7584 25.8545 62.0717 26.6688 61.7702 26.871C61.4407 26.6576 60.6646 25.7198 60.4636 24.2091C60.7149 23.9901 61.3123 23.3724 61.6752 22.2773C62.1275 23.816 63.0655 24.5012 63.1214 24.5349Z" fill="#FDD000"/>
    <path d="M60.1789 23.5077C59.8662 23.2999 59.1459 22.4183 58.9617 21.0593C59.2576 20.7841 59.855 20.1102 60.1789 18.959C60.5027 20.1102 61.1002 20.7897 61.3961 21.0593C61.2118 22.4183 60.4915 23.2999 60.1789 23.5077Z" fill="#FDD000"/>
    <path d="M58.6213 20.4127C58.3086 20.2106 57.5995 19.3401 57.4097 18.0036C57.7056 17.7228 58.303 17.0489 58.6213 15.9033C58.9451 17.0489 59.537 17.7228 59.8329 18.0036C59.6431 19.3457 58.9284 20.2106 58.6213 20.4127Z" fill="#FDD000"/>
    <path d="M58.275 21.0593C58.0963 22.4183 57.3705 23.2999 57.0578 23.5077C56.7451 23.2999 56.0192 22.4183 55.8406 21.0593C56.1365 20.7841 56.7339 20.1102 57.0578 18.959C57.3816 20.1102 57.9791 20.7897 58.275 21.0593Z" fill="#FDD000"/>
    <path d="M55.4999 20.4127C55.1873 20.2106 54.4782 19.3401 54.2883 18.0036C54.5898 17.7228 55.1817 17.0489 55.4999 15.9033C55.8238 17.0489 56.4156 17.7228 56.7172 18.0036C56.5273 19.3457 55.8126 20.2106 55.4999 20.4127Z" fill="#FDD000"/>
    <path d="M55.1539 21.0593C54.9696 22.4183 54.2494 23.2999 53.9367 23.5077C53.624 23.2999 52.9037 22.4183 52.7195 21.0593C53.0154 20.7841 53.6128 20.1102 53.9367 18.959C54.2605 20.1102 54.858 20.7897 55.1539 21.0593Z" fill="#FDD000"/>
    <path d="M52.3789 20.4127C52.0662 20.2106 51.3571 19.3401 51.1672 18.0036C51.4632 17.7228 52.055 17.0489 52.3789 15.9033C52.7027 17.0489 53.2946 17.7228 53.5905 18.0036C53.4006 19.3457 52.6859 20.2106 52.3789 20.4127Z" fill="#FDD000"/>
    <path d="M52.0328 21.0593C51.8485 22.4183 51.1282 23.2999 50.8156 23.5077C50.4973 23.2999 49.777 22.4183 49.5928 21.0593C49.8887 20.7841 50.4861 20.1102 50.8156 18.959C51.1394 20.1102 51.7368 20.7897 52.0328 21.0593Z" fill="#FDD000"/>
    <path d="M50.5308 24.2033C50.3298 25.7139 49.5537 26.6517 49.2243 26.8651C48.9227 26.6686 48.236 25.8487 47.873 24.529C47.9289 24.4953 48.8669 23.8102 49.3248 22.2715C49.6877 23.3665 50.2851 23.9843 50.5308 24.2033Z" fill="#FDD000"/>
    <path d="M44.936 34.5922C44.8801 34.5697 44.8243 34.5473 44.7684 34.5304C44.6065 34.4743 44.439 34.435 44.2771 34.4069C44.3553 33.8509 44.4893 33.2276 44.6568 32.5537C44.8019 32.857 44.9639 33.1097 45.1202 33.3118C45.1146 33.3343 45.1035 33.3568 45.0979 33.3736C44.9918 33.7049 44.936 34.0531 44.936 34.4125C44.936 34.4743 44.936 34.536 44.936 34.5922Z" fill="#FDD000"/>
    <path d="M44.897 31.6441C45.1706 30.6669 45.5056 29.6056 45.8629 28.5049C46.2258 30.1559 47.1639 30.9477 47.3146 31.06C46.505 31.397 45.8518 31.9473 45.433 32.6324C45.2431 32.3741 45.0477 32.0428 44.897 31.6441Z" fill="#FDD000"/>
    <path d="M46.2426 27.3425C46.3264 27.1011 46.4046 26.854 46.4827 26.6125L46.4995 26.5676C46.7507 25.8038 47.0076 25.0345 47.2533 24.2764C47.2533 24.2764 47.2588 24.282 47.2644 24.2876C47.5436 25.9835 48.3253 26.9719 48.7552 27.4043C48.6882 29.016 47.8451 30.0605 47.4989 30.2908C47.1472 30.0605 46.2873 28.9879 46.2371 27.3425" fill="#FDD000"/>
    <path d="M49.0846 28.7637C49.2744 29.3309 49.5536 29.7576 49.8327 30.0665C49.3246 30.3529 48.716 30.5832 47.9399 30.8415C48.2638 30.5158 48.7942 29.8419 49.0846 28.7637Z" fill="#FDD000"/>
    <path d="M47.7221 23.7434C47.6607 23.6985 47.5825 23.6311 47.4988 23.5356C47.8338 22.5024 48.152 21.4859 48.4536 20.5088C48.6881 20.8457 48.9114 21.0535 49.0231 21.149C48.85 22.6034 48.0571 23.53 47.7277 23.7434" fill="#FDD000"/>
    <path d="M39.6373 19.2788C42.0494 21.8676 44.9863 22.5247 46.5106 22.6931C46.237 23.5467 45.9523 24.4172 45.6619 25.2876C43.0544 25.0293 40.3129 23.5523 38.6491 21.3173C37.0745 19.1946 34.9639 18.3971 33.0711 18.3859L32.0996 16.3193C32.5295 16.3362 32.9651 16.3418 33.395 16.3418C36.1923 16.325 38.1354 17.6783 39.6373 19.2844" fill="#FDD000"/>
    <path d="M36.0805 20.2784C35.5835 20.4749 34.9526 20.6883 34.2379 20.8737L33.5288 19.3574C34.4333 19.4473 35.2988 19.7618 36.0805 20.2784Z" fill="#FDD000"/>
    <path d="M36.8344 20.8513C37.1918 21.1658 37.5324 21.5308 37.8451 21.9351C37.8897 21.9913 37.9288 22.0475 37.9791 22.098C37.4877 22.4181 36.5999 22.9797 35.4944 23.5356L34.5955 21.6207C35.5112 21.3736 36.2873 21.0984 36.84 20.8457" fill="#FDD000"/>
    <path d="M36.2759 25.2036L35.8516 24.3051C37.0911 23.6817 38.0515 23.0584 38.5205 22.7383C38.8834 23.137 39.2575 23.5076 39.6539 23.839C38.6936 24.9902 35.6673 28.2023 31.7477 28.1518C29.5143 28.1181 28.3641 27.0174 27.8169 26.2088C28.6768 26.6524 29.961 27.1073 31.4908 27.1073C33.9476 27.1073 35.712 25.9617 36.2089 25.5461C36.3708 25.4057 36.3206 25.3047 36.2759 25.2036Z" fill="#FDD000"/>
    <path d="M40.3016 24.3438C40.7204 24.647 41.1615 24.9166 41.6194 25.1468C41.0722 26.1913 38.9504 29.7517 35.4328 30.3525C33.3167 30.7063 32.2447 29.6169 31.8203 28.9992C36.1978 29.016 39.3469 25.5399 40.3016 24.3438Z" fill="#FDD000"/>
    <path d="M42.362 25.4893C42.8533 25.6914 43.3726 25.8543 43.9086 25.9834C43.5122 27.1796 42.3676 30.0997 40.324 31.2847C38.42 32.3853 36.9962 31.6104 36.2927 31.0207C39.8885 30.0324 41.8651 26.4889 42.362 25.4893Z" fill="#FDD000"/>
    <path d="M40.7707 31.9978C43.166 30.6163 44.3497 27.348 44.7238 26.1406C44.9304 26.1743 45.1425 26.2024 45.3491 26.2305C44.707 28.1791 44.0817 30.066 43.6406 31.717C42.4234 32.7222 41.0275 32.4358 40.3687 32.2112C40.5027 32.1494 40.6367 32.0764 40.7707 31.9978Z" fill="#FDD000"/>
    <path d="M50.4804 29.6341C50.0394 29.2916 49.5368 28.6065 49.4028 27.6518C49.4922 27.5956 50.3688 26.9049 50.8266 25.4111C51.3124 26.8038 52.1499 27.444 52.2057 27.4777L52.3007 27.5451C52.0494 27.8146 51.8037 28.1235 51.5636 28.4773C51.2119 28.9659 50.8713 29.3365 50.486 29.6341" fill="#FDD000"/>
    <path d="M51.0779 24.2258C51.3291 24.0124 52.0215 23.3216 52.3788 22.0469C52.7362 23.316 53.4285 24.0124 53.6798 24.2258C53.4229 25.596 52.6915 26.4833 52.3788 26.6911C52.0662 26.4833 51.3347 25.596 51.0779 24.2258Z" fill="#FDD000"/>
    <path d="M54.0149 25.1475C54.188 25.5855 54.389 25.9449 54.5844 26.2257C54.2494 26.2818 53.8921 26.3885 53.5347 26.5738C53.4342 26.6244 53.3393 26.6805 53.2444 26.7423C53.518 26.3661 53.8139 25.8382 54.0205 25.1475" fill="#FDD000"/>
    <path d="M54.2827 24.1528C54.5786 23.8776 55.1761 23.2037 55.4999 22.0469C55.8238 23.1981 56.4212 23.872 56.7227 24.1528C56.4547 25.1692 55.941 25.8655 55.6283 26.1576C55.5837 26.1576 55.5446 26.1576 55.5055 26.1576C55.4664 26.1576 55.4217 26.1576 55.3827 26.1576C55.07 25.8712 54.5563 25.1692 54.2883 24.1528" fill="#FDD000"/>
    <path d="M56.9853 25.1475C57.1919 25.8382 57.4878 26.3661 57.7614 26.7423C57.6665 26.6805 57.5716 26.6244 57.4711 26.5738C57.1137 26.3885 56.7564 26.2818 56.4214 26.2257C56.6168 25.9449 56.8178 25.5855 56.9909 25.1475" fill="#FDD000"/>
    <path d="M57.3203 24.2258C57.566 24.0124 58.2639 23.3216 58.6213 22.0469C58.9786 23.316 59.6765 24.0124 59.9222 24.2258C59.6654 25.596 58.9395 26.4833 58.6213 26.6911C58.303 26.4833 57.5772 25.596 57.3203 24.2258Z" fill="#FDD000"/>
    <path d="M58.7942 27.4777C58.85 27.444 59.6819 26.8094 60.1733 25.4111C60.6311 26.9105 61.5078 27.5956 61.5971 27.6518C61.4631 28.6065 60.9606 29.2916 60.5139 29.6341C60.1342 29.3365 59.7936 28.9659 59.4419 28.4717C59.1962 28.1179 58.9505 27.8034 58.7048 27.5395L58.7942 27.4721V27.4777Z" fill="#FDD000"/>
    <path d="M65.6452 26.2307C65.8574 26.2083 66.0696 26.1802 66.2706 26.1465C66.6447 27.3539 67.834 30.6166 70.2237 31.998C70.3577 32.0767 70.4917 32.1497 70.6257 32.2114C69.9613 32.4361 68.571 32.7225 67.3538 31.7172C66.9071 30.0662 66.2873 28.1794 65.6396 26.2307" fill="#FDD000"/>
    <path d="M67.0857 25.9834C67.6217 25.8543 68.141 25.6914 68.6323 25.4893C69.1293 26.4889 71.1114 30.0324 74.7016 31.0207C73.9981 31.6104 72.5743 32.3853 70.6703 31.2847C68.6323 30.0997 67.4821 27.174 67.0857 25.9834Z" fill="#FDD000"/>
    <path d="M69.375 25.1468C69.8328 24.9109 70.2739 24.647 70.6927 24.3438C71.6475 25.5399 74.7966 29.016 79.1796 28.9992C78.7553 29.6169 77.6777 30.7063 75.5671 30.3525C72.0495 29.7573 69.9278 26.1969 69.3806 25.1468" fill="#FDD000"/>
    <path d="M71.3515 23.8331C71.7424 23.5018 72.1221 23.1311 72.485 22.7324C72.954 23.0525 73.9144 23.6759 75.1483 24.2992L74.724 25.1977C74.6737 25.3044 74.629 25.3999 74.7854 25.5403C75.2823 25.9614 77.0523 27.1014 79.5034 27.1014C81.0277 27.1014 82.3119 26.6466 83.1774 26.2029C82.6302 27.0116 81.48 28.1123 79.2466 28.1403C75.3326 28.1909 72.3007 24.9843 71.3459 23.8275" fill="#FDD000"/>
    <path d="M78.9452 14.5898V15.1514C78.9452 15.1514 66.0194 16.2072 62.6805 16.4992C62.5409 15.8871 62.4236 15.3255 62.3399 14.8145C62.3287 14.7359 62.3119 14.6628 62.3008 14.5898H78.9452Z" fill="#FDD000"/>
    <path d="M62.323 19.7393C62.1109 20.0874 61.8875 20.3233 61.7423 20.4132C61.4353 20.211 60.7206 19.3406 60.5251 17.9984C60.7597 17.7738 61.1784 17.2964 61.4632 16.5215C61.6865 17.493 61.9769 18.5824 62.3174 19.7393" fill="#FDD000"/>
    <path d="M48.7551 9.08055H48.7495C48.6099 9.08055 48.3084 9.07493 48.152 9.07493C47.8673 9.07493 46.5831 9.10301 46.2257 9.88359C45.9689 9.50172 45.7623 9.09739 45.6227 8.66499C45.472 8.21012 45.3938 7.73278 45.3938 7.28914C45.3938 6.82866 45.4887 6.49171 45.6618 6.25586C45.8237 6.03123 46.0917 5.87399 46.477 5.77291C47.3536 5.53705 48.6043 5.43035 49.52 5.49774H49.5256L49.8271 5.51458C50.2738 5.53143 51.5245 6.25024 52.2838 7.44638C52.2838 7.44638 54.9528 6.94659 56.7618 5.17203C56.7618 5.17203 53.4005 5.5202 50.6088 5.12149C50.5641 5.12149 50.4636 5.07094 50.5195 4.95301C50.5195 4.95301 50.5306 4.92494 50.5585 4.88001C50.7763 4.54307 51.1225 4.12189 52.1666 3.79618C52.6691 3.63894 53.4173 3.53224 54.333 3.49293C55.2822 3.45363 56.3933 3.47609 57.6496 3.56594C59.5368 3.70633 60.9438 3.54348 61.9377 3.30762C61.6474 4.07135 61.1225 4.96986 60.1566 5.6269L59.816 5.86276L59.4531 6.11546L59.6261 6.52541L59.7825 6.89604C60.0896 7.67101 60.3073 9.20971 60.553 10.9899L60.5809 11.1977C60.7317 12.3208 60.9159 13.6461 61.1449 15.0051C61.1449 15.0276 61.156 15.0556 61.156 15.0781C61.089 16.3304 60.4748 17.1447 60.1677 17.3525H60.151C59.7881 17.1054 58.9115 15.9935 58.9003 14.3031H58.3028C58.2917 15.9935 57.4151 17.1054 57.0466 17.3525H57.0298C56.6669 17.1054 55.7903 15.9935 55.7791 14.3031H55.1761C55.1649 15.9935 54.2883 17.1054 53.9254 17.3525H53.9086C53.5457 17.1054 52.6691 15.9935 52.6523 14.3031H52.0549C52.0437 15.9935 51.1671 17.1054 50.8042 17.3525H50.7875C50.4915 17.1503 49.9108 16.3866 49.8103 15.2017C50.0058 14.4155 50.2626 13.5113 50.2794 13.4552C50.5809 12.4443 50.7316 11.5346 50.7372 11.5009C50.8545 10.7821 50.7372 10.2037 50.3854 9.77689C50.0337 9.34449 49.4642 9.10863 48.7383 9.08055" fill="#FDD000"/>
    <path d="M50.4693 18.0043C50.2795 19.3464 49.5648 20.2112 49.2577 20.419C49.1181 20.3292 48.8892 20.0933 48.677 19.7451C49.0176 18.5883 49.3079 17.5045 49.5369 16.5273C49.816 17.3023 50.2348 17.7853 50.4693 18.0043Z" fill="#FDD000"/>
    <path d="M32.0493 14.5898H48.7495C48.6658 14.9212 48.582 15.2525 48.5206 15.5333V15.5445C48.4592 15.8478 48.3866 16.1735 48.3084 16.5048C44.8299 16.2015 32.0437 15.1514 32.0437 15.1514V14.5898H32.0493Z" fill="#FDD000"/>
    <path d="M31.4909 16.9814L35.1704 25.0175L35.1983 25.068H27.7778L31.4909 16.9814Z" fill="#FDD000"/>
    <path d="M24.668 21.6599C25.7512 22.0362 26.9014 22.244 28.046 22.3226L26.8735 24.8328C25.5222 24.26 24.64 23.1425 24.238 21.4971C24.3776 21.5532 24.5172 21.6094 24.6624 21.6599" fill="#FDD000"/>
    <path d="M21.8315 17.3076C24.2659 18.0264 26.8679 18.6048 29.6094 18.9811L28.4312 21.5082C27.2531 21.4464 26.075 21.2498 24.9695 20.8624C22.4736 19.9863 21.9432 18.1275 21.8315 17.3076Z" fill="#FDD000"/>
    <path d="M1.22278 2.33594C8.1519 9.42856 19.9833 15.4654 30.8823 16.2516L30.0169 18.1048C15.5668 16.3415 5.43832 8.60866 2.27247 5.52565C1.12227 4.40813 0.988268 3.06036 1.22278 2.33594Z" fill="#FDD000"/>
    <path d="M2.57955 7.13159C5.59464 9.83274 12.1217 14.2804 20.9158 17.0264C20.9493 17.5599 21.1726 19.0593 22.4345 20.3004C16.6723 19.5872 8.80515 16.8299 4.51144 13.0449C1.84252 10.6976 2.14962 8.3502 2.58513 7.12598" fill="#FDD000"/>
    <path d="M4.78515 14.5505C9.73771 18.3973 17.7389 20.7671 23.2889 21.2444C23.4731 22.2272 23.8472 23.2605 24.534 24.1197C19.52 24.5015 12.7751 23.7097 7.91749 20.4302C4.8019 18.3187 4.62881 15.8028 4.78515 14.5449" fill="#FDD000"/>
    <path d="M13.4506 27.3991C10.8878 26.4164 9.09546 24.6811 8.83862 22.1484C13.9643 24.9507 20.5361 25.3943 25.31 24.9001C25.6617 25.1809 26.0749 25.428 26.5439 25.6246C26.6165 25.8267 26.9627 26.7028 27.8169 27.517C25.9353 28.1011 19.5366 29.7296 13.4506 27.3991Z" fill="#FDD000"/>
    <path d="M22.2335 32.5377C19.0006 32.4142 16.89 31.291 15.9297 29.1627C22.2837 30.4992 27.923 28.4214 28.6266 28.1406C29.1905 28.4944 29.8996 28.7864 30.7762 28.9156C30.8153 28.9998 31.0833 29.5614 31.6584 30.1117C30.5696 30.7519 26.8231 32.7006 22.2279 32.5321" fill="#FDD000"/>
    <path d="M23.0263 33.5425C27.4317 33.4639 31.2173 31.4647 32.3955 30.6729C33.0878 31.0884 34.0314 31.3748 35.2765 31.2232C35.4161 31.3692 35.6283 31.577 35.9019 31.7848C34.9415 32.717 32.3955 34.879 28.8276 35.5023C26.1419 35.9741 24.305 35.3226 23.0208 33.5425" fill="#FDD000"/>
    <path d="M31.0835 37.8381C30.1287 37.7146 29.2465 37.1586 28.7161 36.5577C32.8981 35.9849 35.701 33.3231 36.6726 32.2617C37.3705 32.6043 38.2806 32.8233 39.3471 32.5762C39.4866 32.7166 39.7379 32.8738 40.0729 33.003C39.1014 34.3508 35.7401 38.4277 31.0891 37.8381" fill="#FDD000"/>
    <path d="M34.8914 38.4394C38.1689 37.2882 40.3744 34.222 41.0109 33.2449C41.72 33.346 42.5575 33.2954 43.3448 32.9248C43.2219 33.4639 43.1326 33.9693 43.0768 34.4354C42.1332 34.6207 41.2733 35.1935 40.6424 36.064C39.414 37.7599 38.7496 38.5068 37.108 39.0403C37.0968 39.0403 37.0857 39.0459 37.0689 39.0515C36.1197 38.9898 35.3883 38.709 34.8914 38.4394Z" fill="#FDD000"/>
    <path d="M35.5166 45.959C34.2491 44.2069 34.4501 43.2972 34.7349 42.4268C35.0141 41.562 35.3826 40.7027 37.4317 40.0345C38.0571 39.8267 38.5652 39.5908 39.0174 39.2988C40.2179 40.13 43.6964 42.5278 46.8511 44.7011C46.6612 45.0718 46.4937 45.448 46.3486 45.8411L38.554 43.2017C38.3195 43.1231 38.0682 43.2523 37.9901 43.4881C37.9119 43.724 38.0459 43.9823 38.2804 44.0553L46.1252 46.5262C46.0135 46.9193 45.9242 47.3293 45.8628 47.7448C42.0437 47.6381 37.8281 47.5258 36.3708 47.4865C36.1754 46.9867 35.9018 46.4925 35.5166 45.9534" fill="#FDD000"/>
    <path d="M37.9288 53.3156C37.242 52.8102 36.84 52.0577 36.8288 51.0637C36.8288 49.935 36.7953 49.0589 36.6055 48.2559C38.1968 48.2839 42.1555 48.3569 45.7792 48.4243C45.7624 48.6827 45.7512 48.941 45.7512 49.2105C45.7512 49.4071 45.7568 49.598 45.768 49.7833L40.0058 50.6144C39.8942 50.6257 39.7936 50.6931 39.7378 50.7829C39.6708 50.8784 39.6373 50.9851 39.6541 51.103C39.6708 51.2153 39.7322 51.3052 39.8216 51.3726C39.8607 51.4063 39.8997 51.4231 39.9444 51.4343C40.0058 51.4568 40.0728 51.4624 40.1398 51.4512L45.8406 50.4853C45.8964 50.9121 45.9802 51.3333 46.0918 51.7432L40.3129 53.5402C39.481 53.8098 38.5764 53.7705 37.9343 53.3156" fill="#FDD000"/>
    <path d="M39.3134 58.7512C38.7383 57.9426 38.6266 57.0946 38.8891 56.2803C39.1347 55.5278 39.8439 54.9662 40.6758 54.6911L46.4045 52.7256C46.5552 53.1299 46.7339 53.5174 46.9405 53.888L41.7646 56.4769C41.7032 56.5049 41.6585 56.5499 41.6194 56.606C41.5915 56.6453 41.5692 56.6846 41.558 56.7296C41.5245 56.8363 41.5301 56.943 41.5859 57.0441C41.6362 57.1451 41.7255 57.2181 41.8372 57.2518C41.9321 57.2911 42.0549 57.2799 42.1498 57.2294L47.2978 54.4945C47.5379 54.8764 47.8115 55.2414 48.1019 55.584C45.2096 57.7797 42.0493 60.1832 40.7763 61.1491C40.458 60.391 39.9779 59.661 39.3134 58.7456" fill="#FDD000"/>
    <path d="M47.9568 66.9723C47.4263 67.006 46.8792 67.1127 46.2482 67.3149C44.1991 67.9888 43.4006 67.5114 42.6692 66.9779C41.9322 66.4444 41.2398 65.8267 41.2398 63.6591C41.2398 62.9964 41.1728 62.4348 41.0388 61.9182C42.1946 61.0253 45.5391 58.4365 48.5654 56.0947C48.8557 56.3924 49.1628 56.6675 49.4922 56.9259L44.5843 63.5636C44.4392 63.7601 44.4783 64.0465 44.6848 64.1926C44.8858 64.3386 45.1706 64.2936 45.3102 64.0915L50.0729 57.347C50.4135 57.5829 50.7709 57.7907 51.145 57.976C49.8607 61.5981 48.4481 65.5909 47.9624 66.9723" fill="#FDD000"/>
    <path d="M54.9026 65.0858C54.9026 65.9618 54.5843 66.8154 53.9534 67.2871C53.261 67.7869 52.4291 67.9385 51.4855 67.6409C50.4135 67.2871 49.5759 67.0513 48.7607 66.9839C49.28 65.4732 50.5754 61.7051 51.7591 58.2627C52.1723 58.4368 52.6022 58.5828 53.0377 58.6951L52.0438 64.4624C52.0215 64.5747 52.055 64.6927 52.122 64.7713C52.1946 64.8667 52.2839 64.9285 52.4012 64.9454C52.5129 64.9678 52.6189 64.9398 52.7083 64.8724C52.7529 64.8443 52.7809 64.8106 52.8088 64.7769C52.8479 64.7207 52.8702 64.6646 52.8814 64.5972L53.7301 58.8467C54.1432 58.9253 54.5676 58.9759 54.9975 58.9983L54.9082 65.0858H54.9026Z" fill="#FDD000"/>
    <path d="M55.5001 30.701C55.2544 30.701 55.0534 30.9087 55.0534 31.1502L55.1428 39.4221C54.724 39.439 54.3108 39.4783 53.9088 39.5457C52.8312 35.8618 51.6363 31.7904 51.2231 30.3865C51.6363 30.0439 52.016 29.634 52.4068 29.0949C53.6687 27.3428 54.5956 27.2529 55.5001 27.2529C56.4046 27.2529 57.3315 27.3428 58.5934 29.0949C58.9842 29.6284 59.3639 30.0439 59.7771 30.3865C59.3639 31.7904 58.1746 35.8618 57.0914 39.5457C56.6894 39.4783 56.2762 39.439 55.8575 39.4221L55.9468 31.1502C55.9468 30.9031 55.7458 30.701 55.4945 30.701" fill="#FDD000"/>
    <path d="M59.5145 67.6409C58.5709 67.9385 57.7334 67.7869 57.0466 67.2871C56.4157 66.821 56.0974 65.9618 56.0974 65.0858L56.0137 58.9983C56.4436 58.9759 56.8679 58.9253 57.2811 58.8467L58.1298 64.5972C58.141 64.6646 58.1689 64.7264 58.208 64.7769C58.2359 64.8106 58.2638 64.8443 58.3085 64.8724C58.3978 64.9398 58.5039 64.9678 58.6156 64.9454C58.7328 64.9285 58.8222 64.8611 58.8892 64.7713C58.9562 64.687 58.9841 64.5747 58.9673 64.4624L57.9679 58.6951C58.409 58.5828 58.8333 58.4368 59.2521 58.2627C60.4358 61.7107 61.7256 65.4732 62.2449 66.9839C61.4297 67.0513 60.5921 67.2871 59.5201 67.6409" fill="#FDD000"/>
    <path d="M69.7546 63.6591C69.7546 65.8267 69.0622 66.4444 68.3308 66.9779C67.5993 67.5114 66.8009 67.9888 64.7517 67.3149C64.1264 67.1127 63.5736 67.006 63.0432 66.9723C62.5574 65.5909 61.1448 61.5981 59.8606 57.976C60.2347 57.7907 60.592 57.5773 60.9326 57.347L65.6954 64.0915C65.8405 64.288 66.1197 64.3386 66.3207 64.1926C66.5217 64.0465 66.5608 63.7601 66.4212 63.5636L61.5189 56.9259C61.8427 56.6675 62.1498 56.3924 62.4458 56.0947C65.472 58.4365 68.8165 61.0253 69.9723 61.9182C69.8383 62.4348 69.7657 63.002 69.7657 63.6591" fill="#FDD000"/>
    <path d="M71.681 58.7515C71.0222 59.6668 70.5364 60.3969 70.2237 61.155C68.9507 60.1891 65.7904 57.7912 62.8982 55.5898C63.1885 55.2473 63.4621 54.8823 63.7022 54.5004L68.8502 57.2352C68.9507 57.2914 69.068 57.297 69.1685 57.2577C69.2801 57.2184 69.3639 57.151 69.4197 57.0499C69.4756 56.9488 69.4756 56.8421 69.4421 56.7354C69.4309 56.6849 69.403 56.6456 69.3806 56.6119C69.3416 56.5613 69.2913 56.5164 69.2355 56.4827L64.0596 53.8939C64.2606 53.5176 64.4392 53.1302 64.5956 52.7314L70.3187 54.6969C71.1506 54.9665 71.8597 55.5337 72.1054 56.2862C72.3678 57.1005 72.2561 57.9484 71.6755 58.7571" fill="#FDD000"/>
    <path d="M74.1601 51.0696C74.1545 52.0635 73.7525 52.816 73.0657 53.3215C72.4236 53.7819 71.5191 53.8213 70.6871 53.5461L64.9082 51.7491C65.0199 51.3391 65.1036 50.9179 65.1539 50.4911L70.8546 51.457C70.9161 51.4683 70.9831 51.457 71.0445 51.4402C71.0891 51.429 71.1282 51.4065 71.1673 51.3784C71.2566 51.311 71.3181 51.2212 71.3292 51.1089C71.3516 50.9909 71.3181 50.8842 71.2511 50.7888C71.1896 50.6989 71.0891 50.6372 70.9831 50.6203L65.2209 49.7892C65.232 49.5983 65.2376 49.4073 65.2376 49.2164C65.2376 48.9524 65.2265 48.6885 65.2041 48.4302C68.8278 48.3628 72.7865 48.2898 74.3834 48.2617C74.1991 49.0591 74.1601 49.9352 74.1601 51.0696Z" fill="#FDD000"/>
    <path d="M75.4778 45.9593C75.0926 46.4984 74.8134 46.9926 74.6236 47.4924C73.1663 47.5317 68.9507 47.644 65.1316 47.7507C65.0702 47.3351 64.9865 46.9308 64.8692 46.5321L72.714 44.0612C72.9485 43.9882 73.0769 43.7299 72.9988 43.494C72.9206 43.2525 72.6693 43.129 72.4348 43.2076L64.6459 45.847C64.5063 45.4539 64.3332 45.072 64.1489 44.707C67.298 42.5337 70.7765 40.1358 71.977 39.3047C72.4293 39.5967 72.9374 39.8326 73.5627 40.0403C75.6119 40.7086 75.9804 41.5678 76.2651 42.4326C76.5443 43.2974 76.7453 44.2072 75.4778 45.9649" fill="#FDD000"/>
    <path d="M73.9311 39.0515C73.9311 39.0515 73.9088 39.0459 73.892 39.0403C72.2561 38.5068 71.5916 37.7599 70.3577 36.064C69.7268 35.1935 68.8669 34.6207 67.9233 34.4354C67.8674 33.9749 67.7781 33.4695 67.6553 32.9248C68.4481 33.2954 69.2801 33.346 69.9892 33.2449C70.6201 34.222 72.8312 37.2882 76.1087 38.4394C75.6062 38.709 74.8747 38.9898 73.9255 39.0515" fill="#FDD000"/>
    <path d="M79.9167 37.8381C75.26 38.4221 71.8988 34.3508 70.9272 33.003C71.2623 32.8738 71.5135 32.7166 71.6475 32.5762C72.7196 32.8233 73.6241 32.6099 74.322 32.2617C75.2935 33.3231 78.102 35.9849 82.2785 36.5577C81.7425 37.1586 80.8603 37.7146 79.9111 37.8381" fill="#FDD000"/>
    <path d="M82.1668 35.5023C78.599 34.879 76.0529 32.7226 75.0925 31.7848C75.3717 31.577 75.5839 31.3692 75.7179 31.2232C76.963 31.3748 77.9066 31.0884 78.599 30.6729C79.7827 31.4647 83.5627 33.4639 87.9737 33.5425C86.6895 35.3226 84.8525 35.9741 82.1668 35.5023Z" fill="#FDD000"/>
    <path d="M88.7609 32.537C84.1713 32.7054 80.4247 30.7568 79.3359 30.1166C79.9166 29.5663 80.1846 29.0047 80.2237 28.9205C81.0947 28.7857 81.8038 28.4993 82.3734 28.1455C83.0769 28.4207 88.7162 30.5041 95.0647 29.1676C94.1099 31.2959 91.9937 32.4191 88.7609 32.5426" fill="#FDD000"/>
    <path d="M97.5438 27.3991C91.4634 29.7296 85.0647 28.1011 83.1775 27.517C84.0318 26.7028 84.3779 25.8267 84.4505 25.6246C84.9251 25.428 85.3327 25.1809 85.6845 24.9001C90.464 25.3943 97.0357 24.9507 102.161 22.1484C101.899 24.6811 100.107 26.4164 97.5438 27.3991Z" fill="#FDD000"/>
    <path d="M103.077 20.4353C98.2249 23.7149 91.48 24.5067 86.4604 24.1248C87.1472 23.2656 87.5213 22.2323 87.7056 21.2496C93.2556 20.7722 101.251 18.4024 106.209 14.5557C106.366 15.808 106.193 18.3294 103.077 20.4409" fill="#FDD000"/>
    <path d="M106.488 13.051C102.195 16.836 94.3276 19.5933 88.5654 20.3065C89.8273 19.0598 90.0451 17.566 90.0841 17.0325C98.8782 14.2809 105.405 9.83884 108.415 7.1377C108.85 8.36192 109.157 10.7037 106.488 13.0566" fill="#FDD000"/>
    <path d="M108.728 5.52589C105.562 8.60891 95.4332 16.3473 80.9831 18.1107L80.1177 16.2575C91.0223 15.4713 102.854 9.43441 109.777 2.3418C110.012 3.06622 109.878 4.40837 108.728 5.53151" fill="#FDD000"/>
    <path d="M61.5023 48.0088C59.5146 46.6779 56.8234 47.217 55.5001 49.2162C54.1768 51.2154 51.4855 51.7601 49.4922 50.4236C47.5045 49.0927 46.9629 46.3859 48.2918 44.3867C47.3705 45.7682 46.8345 47.4304 46.8345 49.2162C46.8345 54.0289 50.7094 57.9262 55.4945 57.9262C58.4984 57.9262 61.1506 56.3874 62.7028 54.0457C64.0317 52.0409 63.4956 49.3398 61.5023 48.0032" fill="#00479D"/>
    <path d="M55.4999 40.5059C52.496 40.5059 49.8494 42.0446 48.2972 44.3863C46.9683 46.3855 47.5099 49.0923 49.4976 50.4288C51.491 51.7597 54.1766 51.2206 55.5055 49.2214C56.8344 47.2222 59.52 46.6775 61.5078 48.014C63.4955 49.3506 64.0371 52.0517 62.7082 54.0565C63.6295 52.6751 64.1655 51.0128 64.1655 49.2214C64.1655 44.4088 60.285 40.5115 55.5055 40.5115" fill="#E60020"/>
  </g>
  <defs>
    <clipPath id="clip0_1215_5630">
      <rect width="111" height="69" fill="white"/>
    </clipPath>
  </defs>
</svg>