<svg width="24" height="24" viewBox="0 0 24 24" fill="none" xmlns="http://www.w3.org/2000/svg">
<path d="M14.5313 4.46512C13.9173 4.46512 13.3915 4.24633 12.954 3.80875C12.5164 3.37116 12.298 2.84577 12.2987 2.23256C12.2987 1.61861 12.5175 1.09284 12.9551 0.655257C13.3927 0.217676 13.9181 -0.000742291 14.5313 1.89521e-06C15.1452 1.89521e-06 15.671 0.218793 16.1086 0.656374C16.5461 1.09396 16.7646 1.61935 16.7638 2.23256C16.7638 2.84651 16.545 3.37228 16.1074 3.80986C15.6699 4.24744 15.1445 4.46586 14.5313 4.46512ZM15.0894 24C14.7731 24 14.5078 23.8928 14.2935 23.6785C14.0792 23.4642 13.9724 23.1993 13.9731 22.8837V17.3023L11.6289 15.0698L10.9871 17.8605C10.8382 18.4558 10.5127 18.9165 10.0103 19.2424C9.50801 19.5684 8.95917 19.6659 8.36382 19.5349L3.92661 18.6419C3.61033 18.586 3.36364 18.4279 3.18652 18.1674C3.0094 17.907 2.95843 17.6186 3.03359 17.3023C3.0894 16.986 3.24754 16.7393 3.50801 16.5622C3.76847 16.3851 4.05685 16.3341 4.37313 16.4093L8.61498 17.3023L10.401 8.26046L8.39173 9.04186V11.7209C8.39173 12.0372 8.28457 12.3025 8.07024 12.5168C7.85591 12.7312 7.59098 12.838 7.27545 12.8372C6.95917 12.8372 6.69387 12.73 6.47954 12.5157C6.26522 12.3014 6.15843 12.0365 6.15917 11.7209V9.06977C6.15917 8.62326 6.2801 8.20912 6.52196 7.82735C6.76382 7.44558 7.0894 7.17135 7.49871 7.00465L10.5685 5.69302C11.2196 5.41395 11.6989 5.23237 12.0062 5.14828C12.3136 5.06419 12.5971 5.02251 12.8568 5.02326C13.2475 5.02326 13.6103 5.12558 13.9452 5.33023C14.2801 5.53488 14.5499 5.80465 14.7545 6.13954L15.8708 7.92558C16.2801 8.57674 16.8152 9.13488 17.476 9.6C18.1368 10.0651 18.8855 10.3721 19.722 10.5209C20.001 10.5581 20.2291 10.6791 20.4062 10.8837C20.5834 11.0884 20.6715 11.3209 20.6708 11.5814C20.6708 11.9349 20.545 12.2326 20.2935 12.4744C20.042 12.7163 19.7491 12.8093 19.415 12.7535C18.4289 12.6047 17.5173 12.2928 16.6801 11.818C15.8429 11.3433 15.1266 10.7527 14.5313 10.0465L13.8615 13.3953L15.508 14.9581C15.7313 15.1814 15.9035 15.4281 16.0248 15.6982C16.1461 15.9684 16.2064 16.2612 16.2057 16.5767V22.8837C16.2057 23.2 16.0985 23.4653 15.8842 23.6796C15.6699 23.8939 15.4049 24.0007 15.0894 24Z" fill="#4582E9"/>
</svg>
