<svg xmlns="http://www.w3.org/2000/svg" width="25" height="19" viewBox="0 0 25 19" fill="none">
  <g clip-path="url(#clip0_2424_5357)">
    <path d="M18.7406 18.6618C21.6597 18.6618 24.0262 14.5599 24.0262 9.50002C24.0262 4.44012 21.6597 0.338257 18.7406 0.338257C15.8215 0.338257 13.4551 4.44012 13.4551 9.50002C13.4551 14.5599 15.8215 18.6618 18.7406 18.6618Z" fill="white"/>
    <path d="M18.7407 19C15.6402 19 13.1169 14.7382 13.1169 9.5C13.1169 4.26181 15.6402 0 18.7407 0C21.8412 0 24.3645 4.26181 24.3645 9.5C24.3645 14.7382 21.8412 19 18.7407 19ZM18.7407 0.676478C16.0123 0.676478 13.7934 4.63387 13.7934 9.5C13.7934 14.3661 16.0123 18.3235 18.7407 18.3235C21.4692 18.3235 23.688 14.3661 23.688 9.5C23.688 4.63387 21.4692 0.676478 18.7407 0.676478Z" fill="#C1C1C1"/>
    <path d="M16.9006 13.2206C18.6305 13.2206 20.0327 11.8183 20.0327 10.0885C20.0327 8.35871 18.6305 6.95642 16.9006 6.95642C15.1708 6.95642 13.7686 8.35871 13.7686 10.0885C13.7686 11.8183 15.1708 13.2206 16.9006 13.2206Z" fill="url(#paint0_linear_2424_5357)"/>
    <path d="M16.9006 12.3209C18.1335 12.3209 19.133 11.3214 19.133 10.0885C19.133 8.85561 18.1335 7.85614 16.9006 7.85614C15.6677 7.85614 14.6682 8.85561 14.6682 10.0885C14.6682 11.3214 15.6677 12.3209 16.9006 12.3209Z" fill="#000F26"/>
    <path d="M15.5297 9.69616C16.049 9.69616 16.47 9.27517 16.47 8.75586C16.47 8.23654 16.049 7.81555 15.5297 7.81555C15.0103 7.81555 14.5894 8.23654 14.5894 8.75586C14.5894 9.27517 15.0103 9.69616 15.5297 9.69616Z" fill="white"/>
    <path d="M5.62368 18.6618C8.54281 18.6618 10.9092 14.5599 10.9092 9.50002C10.9092 4.44012 8.54281 0.338257 5.62368 0.338257C2.70455 0.338257 0.338135 4.44012 0.338135 9.50002C0.338135 14.5599 2.70455 18.6618 5.62368 18.6618Z" fill="white"/>
    <path d="M5.62378 19C2.52326 19 0 14.7382 0 9.5C0 4.26181 2.52326 0 5.62378 0C8.72431 0 11.2476 4.26181 11.2476 9.5C11.2476 14.7382 8.72431 19 5.62378 19ZM5.62378 0.676478C2.89532 0.676478 0.676478 4.63387 0.676478 9.5C0.676478 14.3661 2.89532 18.3235 5.62378 18.3235C8.35224 18.3235 10.5711 14.3661 10.5711 9.5C10.5711 4.63387 8.35224 0.676478 5.62378 0.676478Z" fill="#C1C1C1"/>
    <path d="M3.7837 13.2206C5.51351 13.2206 6.91579 11.8183 6.91579 10.0885C6.91579 8.35871 5.51351 6.95642 3.7837 6.95642C2.0539 6.95642 0.651611 8.35871 0.651611 10.0885C0.651611 11.8183 2.0539 13.2206 3.7837 13.2206Z" fill="url(#paint1_linear_2424_5357)"/>
    <path d="M3.78365 12.3209C5.01655 12.3209 6.01602 11.3214 6.01602 10.0885C6.01602 8.85561 5.01655 7.85614 3.78365 7.85614C2.55074 7.85614 1.55127 8.85561 1.55127 10.0885C1.55127 11.3214 2.55074 12.3209 3.78365 12.3209Z" fill="#000F26"/>
    <path d="M2.41272 9.69616C2.93203 9.69616 3.35302 9.27517 3.35302 8.75586C3.35302 8.23654 2.93203 7.81555 2.41272 7.81555C1.8934 7.81555 1.47241 8.23654 1.47241 8.75586C1.47241 9.27517 1.8934 9.69616 2.41272 9.69616Z" fill="white"/>
  </g>
  <defs>
    <linearGradient id="paint0_linear_2424_5357" x1="15.5883" y1="8.69271" x2="18.6437" y2="11.9421" gradientUnits="userSpaceOnUse">
      <stop stop-color="#4582E9"/>
      <stop offset="1" stop-color="#D0DEF0"/>
    </linearGradient>
    <linearGradient id="paint1_linear_2424_5357" x1="2.47134" y1="-2.30873e-05" x2="5.52676" y2="-2.30873e-05" gradientUnits="userSpaceOnUse">
      <stop stop-color="#4582E9"/>
      <stop offset="1" stop-color="#D0DEF0"/>
    </linearGradient>
    <clipPath id="clip0_2424_5357">
      <rect width="24.3645" height="19" fill="white"/>
    </clipPath>
  </defs>
</svg>