<svg width="30" height="40" viewBox="0 0 30 40" fill="none" xmlns="http://www.w3.org/2000/svg">
<g clip-path="url(#clip0_1503_3333)">
<path d="M22.5203 38.3632C18.8766 40.1029 14.7255 40.4646 10.8358 39.4092C6.10971 38.1262 0.199804 34.7106 0.00762395 25.6565C-0.124596 19.3679 1.59887 15.2414 3.66211 12.5664C4.59226 16.381 6.30958 17.8651 6.30958 17.8651C5.64848 14.4261 6.16813 11.5718 7.3043 9.23029C10.5667 2.50205 18.9089 0 18.9089 0C18.9089 0 15.8555 4.20281 18.9873 11.0246C19.4593 12.0566 20.0758 13.1494 20.8645 14.2952C21.9023 15.8042 22.7771 17.4255 23.4059 19.1512C23.864 20.4077 24.2284 21.7374 24.1408 22.6291C24.1408 22.6291 26.8805 19.915 27.1403 14.6366C28.8699 18.3374 34.5584 32.6186 22.5203 38.3632Z" fill="#F9543E"/>
<path d="M21.7377 27.5007C21.7377 27.5007 25.3676 39.0865 15.9185 39.5729C6.46943 40.0593 4.91969 30.1524 8.92471 26.2006C8.92471 26.2006 8.92471 29.1781 10.9003 30.0978C10.9003 30.0978 7.85773 20.8941 14.2642 16.8892C14.2642 16.8892 13.5708 20.2455 17.0947 25.0641C20.6185 29.8827 19.7636 34.4846 19.7636 34.4846C19.7636 34.4846 22.1128 32.1026 21.7392 27.5007H21.7377Z" fill="#FFBE5F"/>
</g>
<defs>
<clipPath id="clip0_1503_3333">
<rect width="30" height="40" fill="white"/>
</clipPath>
</defs>
</svg>
