<svg xmlns="http://www.w3.org/2000/svg" width="84" height="150" viewBox="0 0 84 150" fill="none">
  <g clip-path="url(#clip0_2770_3830)">
    <path d="M9.21381 50.8987L0.527796 38.9643C-0.67537 37.3258 0.295606 35.0531 2.19534 34.7042H81.351L81.3088 34.6514H81.351C83.5357 34.7042 84.7705 37.1989 83.4724 38.9643L74.322 51.533" fill="#D0DEF0"/>
    <path d="M75.2928 50.2012L49.0131 86.3005C47.8944 87.8333 46.1107 88.7424 44.211 88.7424H43.7888V88.8481H40.4854V88.7424H39.7994C37.8996 88.7424 36.116 87.8333 34.9973 86.3005L8.70703 50.2012H43.05C43.0606 52.1568 43.4511 54.2709 44.2638 56.3534C44.7492 57.6113 45.3508 58.7635 46.0263 59.7995L35.8944 83.2244C35.6622 83.7635 35.9049 84.3872 36.4432 84.6198C36.5804 84.6832 36.7176 84.7043 36.8653 84.7043C37.2664 84.7043 37.6569 84.4718 37.8363 84.0701L47.5039 61.7234C50.2901 64.8418 53.8891 66.2794 56.9287 65.106C61.3614 63.383 62.9234 56.7339 60.4537 50.2012H75.2928Z" fill="#4582E9"/>
    <path d="M70.4486 148.076V150H13.8259V148.076L40.4856 141.078V88.8477H43.789V141.078L70.4486 148.076Z" fill="#EBEEF1"/>
    <path d="M47.5039 61.7227L37.8363 84.0694C37.6569 84.4711 37.2664 84.7037 36.8653 84.7037C36.7176 84.7037 36.5804 84.6826 36.4432 84.6191C35.9049 84.3866 35.6622 83.7629 35.8944 83.2238L46.0263 59.7988C46.4907 60.4965 46.9761 61.1413 47.5039 61.7227Z" fill="#D0DEF0"/>
    <path d="M73.5619 1.46897L67.2189 16.1201L59.2505 34.5556L55.5355 43.1603L52.4854 50.2005H50.1846L51.2083 47.8326L52.4009 45.063L53.7413 41.9658L57.0236 34.3759L64.9709 16.0144L71.6305 0.633873C71.8627 0.0947614 72.4854 -0.148368 73.0131 0.0841905C73.5513 0.316749 73.7941 0.940427 73.5619 1.46897Z" fill="#EBEEF1"/>
    <path d="M63.0228 36.7488C69.5914 34.2575 73.5442 28.6086 71.8516 24.1316C70.159 19.6546 63.4619 18.0448 56.8933 20.536C50.3247 23.0273 46.3719 28.6762 48.0645 33.1532C49.7571 37.6303 56.4542 39.24 63.0228 36.7488Z" fill="#57C53C"/>
    <path d="M67.8183 28.7778C69.5378 28.7778 70.9317 27.3817 70.9317 25.6594C70.9317 23.9372 69.5378 22.541 67.8183 22.541C66.0988 22.541 64.7048 23.9372 64.7048 25.6594C64.7048 27.3817 66.0988 28.7778 67.8183 28.7778Z" fill="#398526"/>
    <path d="M56.9287 65.1051C53.8891 66.2784 50.2902 64.8408 47.5039 61.7224C46.9762 61.141 46.4907 60.4962 46.0263 59.7985C45.3508 58.7626 44.7493 57.6103 44.2638 56.3524C43.4511 54.27 43.0606 52.1558 43.05 50.2002H60.4537C62.9234 56.733 61.3614 63.382 56.9287 65.1051Z" fill="#55AC3F"/>
    <path d="M60.4537 50.2009H43.05C43.0183 46.0149 44.7175 42.5265 47.7466 41.3531C49.6357 40.6132 51.7466 40.8986 53.7413 41.9663C54.3534 42.294 54.955 42.6956 55.5355 43.1608C57.5197 44.7675 59.2822 47.1671 60.4115 50.0952C60.422 50.1269 60.4431 50.1692 60.4537 50.2009Z" fill="#57C53C"/>
    <path d="M49.3085 48.4878C51.028 48.4878 52.422 47.0916 52.422 45.3694C52.422 43.6471 51.028 42.251 49.3085 42.251C47.589 42.251 46.1951 43.6471 46.1951 45.3694C46.1951 47.0916 47.589 48.4878 49.3085 48.4878Z" fill="#398526"/>
    <circle cx="30" cy="65" r="2" fill="#B0D1F1"/>
    <circle cx="49" cy="75" r="2" fill="#B0D1F1"/>
    <circle cx="39" cy="57" r="2" fill="#B0D1F1"/>
  </g>
  <defs>
    <clipPath id="clip0_2770_3830">
      <rect width="84" height="150" fill="white"/>
    </clipPath>
  </defs>
</svg>