<svg width="22" height="22" viewBox="0 0 22 22" fill="none" xmlns="http://www.w3.org/2000/svg">
<circle cx="11" cy="11" r="11" fill="#A8ABAC"/>
<path d="M12.0311 6.53125C11.653 6.53125 11.3292 6.3965 11.0597 6.127C10.7902 5.8575 10.6557 5.53392 10.6561 5.15625C10.6561 4.77813 10.7909 4.45431 11.0604 4.18481C11.3299 3.91531 11.6535 3.78079 12.0311 3.78125C12.4093 3.78125 12.7331 3.916 13.0026 4.1855C13.2721 4.455 13.4066 4.77858 13.4061 5.15625C13.4061 5.53438 13.2714 5.85819 13.0019 6.12769C12.7324 6.39719 12.4088 6.53171 12.0311 6.53125ZM12.3749 18.5625C12.1801 18.5625 12.0167 18.4965 11.8847 18.3645C11.7527 18.2325 11.6869 18.0693 11.6874 17.875V14.4375L10.2436 13.0625L9.84832 14.7813C9.75666 15.1479 9.55614 15.4316 9.24676 15.6324C8.93739 15.8331 8.59937 15.8932 8.2327 15.8125L5.49989 15.2625C5.3051 15.2281 5.15316 15.1307 5.04407 14.9703C4.93499 14.8099 4.9036 14.6323 4.94989 14.4375C4.98426 14.2427 5.08166 14.0908 5.24207 13.9817C5.40249 13.8726 5.5801 13.8412 5.77489 13.8875L8.38739 14.4375L9.48739 8.86875L8.24989 9.35V11C8.24989 11.1948 8.18389 11.3582 8.05189 11.4902C7.91989 11.6222 7.75672 11.688 7.56239 11.6875C7.3676 11.6875 7.2042 11.6215 7.0722 11.4895C6.9402 11.3575 6.87443 11.1943 6.87489 11V9.36719C6.87489 9.09219 6.94937 8.83713 7.09832 8.602C7.24728 8.36688 7.4478 8.19798 7.69989 8.09531L9.59051 7.2875C9.99155 7.11563 10.2867 7.00379 10.476 6.952C10.6653 6.90021 10.8399 6.87454 10.9999 6.875C11.2405 6.875 11.4639 6.93802 11.6702 7.06406C11.8765 7.19011 12.0426 7.35625 12.1686 7.5625L12.8561 8.6625C13.1082 9.06354 13.4378 9.40729 13.8448 9.69375C14.2518 9.98021 14.7128 10.1693 15.228 10.2609C15.3999 10.2839 15.5404 10.3583 15.6495 10.4844C15.7585 10.6104 15.8128 10.7536 15.8124 10.9141C15.8124 11.1318 15.7349 11.3151 15.58 11.4641C15.4251 11.613 15.2447 11.6703 15.0389 11.6359C14.4317 11.5443 13.8702 11.3522 13.3546 11.0598C12.8389 10.7674 12.3978 10.4037 12.0311 9.96875L11.6186 12.0313L12.6327 12.9938C12.7702 13.1313 12.8763 13.2832 12.951 13.4496C13.0257 13.6159 13.0628 13.7963 13.0624 13.9906V17.875C13.0624 18.0698 12.9964 18.2332 12.8644 18.3652C12.7324 18.4972 12.5692 18.563 12.3749 18.5625Z" fill="#FAFAFA"/>
</svg>
