<svg xmlns="http://www.w3.org/2000/svg" width="140" height="150" viewBox="0 0 140 150" fill="none">
  <path d="M116.546 50.5303H23.0769C19.7264 50.5303 17.0103 53.2464 17.0103 56.597V129.939C17.0103 133.29 19.7264 136.006 23.0769 136.006H116.546C119.897 136.006 122.613 133.29 122.613 129.939V56.597C122.613 53.2464 119.897 50.5303 116.546 50.5303Z" fill="#E1E1E1"/>
  <path d="M50.7153 29.877H88.9118C96.0423 29.877 101.833 35.6677 101.833 42.7981V136.001H37.7891V42.7981C37.7891 35.6677 43.5798 29.877 50.7103 29.877H50.7153Z" fill="#EBEEF1"/>
  <path d="M83.9844 91.3467H55.638C53.3378 91.3467 51.4731 93.2102 51.4731 95.5091C51.4731 97.8079 53.3378 99.6714 55.638 99.6714H83.9844C86.2846 99.6714 88.1493 97.8079 88.1493 95.5091C88.1493 93.2102 86.2846 91.3467 83.9844 91.3467Z" fill="#D0DEF0"/>
  <path d="M122.427 127.677H17.1957C14.8954 127.677 13.0308 129.54 13.0308 131.839C13.0308 134.138 14.8954 136.002 17.1957 136.002H122.427C124.727 136.002 126.592 134.138 126.592 131.839C126.592 129.54 124.727 127.677 122.427 127.677Z" fill="#D0DEF0"/>
  <path d="M68.835 99.6709H56.3755V127.681H68.835V99.6709Z" fill="#4582E9"/>
  <path d="M83.2515 99.6709H70.792V127.681H83.2515V99.6709Z" fill="#4582E9"/>
  <path d="M70.7921 99.6709H68.8301V127.681H70.7921V99.6709Z" fill="#316BCD"/>
  <path d="M85.6953 26.6552V33.1033C85.6953 34.8847 84.2552 36.3248 82.4738 36.3248H76.2616V42.537C76.2616 44.3184 74.8215 45.7585 73.0401 45.7585H66.582C64.8006 45.7585 63.3605 44.3184 63.3605 42.537V36.3248H57.1483C55.3669 36.3248 53.9268 34.8847 53.9268 33.1033V26.6552C53.9268 24.8739 55.3669 23.4337 57.1483 23.4337H63.3605V17.2215C63.3605 15.4401 64.8006 14 66.582 14H73.0401C74.8215 14 76.2616 15.4401 76.2616 17.2215V23.4337H82.4738C84.2552 23.4337 85.6953 24.8739 85.6953 26.6552Z" fill="#F5432B"/>
  <path d="M54.243 64.6816H47.2731C46.0981 64.6816 45.1455 65.6342 45.1455 66.8092V70.7433C45.1455 71.9184 46.0981 72.8709 47.2731 72.8709H54.243C55.4181 72.8709 56.3706 71.9184 56.3706 70.7433V66.8092C56.3706 65.6342 55.4181 64.6816 54.243 64.6816Z" fill="#4582E9"/>
  <path d="M73.2963 64.6816H66.3263C65.1513 64.6816 64.1987 65.6342 64.1987 66.8092V70.7433C64.1987 71.9184 65.1513 72.8709 66.3263 72.8709H73.2963C74.4713 72.8709 75.4239 71.9184 75.4239 70.7433V66.8092C75.4239 65.6342 74.4713 64.6816 73.2963 64.6816Z" fill="#4582E9"/>
  <path d="M92.3441 64.6816H85.3742C84.1991 64.6816 83.2466 65.6342 83.2466 66.8092V70.7433C83.2466 71.9184 84.1991 72.8709 85.3742 72.8709H92.3441C93.5192 72.8709 94.4717 71.9184 94.4717 70.7433V66.8092C94.4717 65.6342 93.5192 64.6816 92.3441 64.6816Z" fill="#4582E9"/>
</svg>