<svg width="112" height="41" viewBox="0 0 112 41" fill="none" xmlns="http://www.w3.org/2000/svg">
<g clip-path="url(#clip0_1215_3704)">
<path d="M9.39484 19.6337L21.3672 31.6061L23.9267 29.0466L18.7957 23.9156L23.9147 18.7966L29.0457 23.9275L31.6052 21.368L19.6328 9.39572L17.0733 11.9552L22.2043 17.0862L17.0853 22.2052L11.9543 17.0742L9.39484 19.6337ZM15.387 30.7449C15.6138 30.9717 15.9212 31.0993 16.2416 31.0997C16.562 31.1001 16.8691 30.9732 17.0953 30.7469L17.9485 29.8937L11.1072 23.0524L10.254 23.9056C10.0277 24.1318 9.90083 24.4389 9.9012 24.7593C9.90158 25.0797 10.0292 25.3871 10.256 25.6139L11.9663 27.3242L11.1132 28.1774L12.8235 29.8877L13.6767 29.0346L15.387 30.7449ZM25.613 10.2569C25.3862 10.0301 25.0788 9.90245 24.7584 9.90208C24.4381 9.9017 24.131 10.0286 23.9047 10.2549L23.0515 11.1081L29.8928 17.9494L30.746 17.0962C30.9723 16.8699 31.0992 16.5628 31.0988 16.2425C31.0984 15.9221 30.9708 15.6147 30.744 15.3879L29.0337 13.6775L29.8868 12.8244L28.1765 11.1141L27.3233 11.9672L25.613 10.2569Z" fill="#4582E9"/>
</g>
<path d="M40.2175 29V14.4927H45.3194C48.4935 14.4927 51.1223 15.6416 51.1223 19.2246C51.1223 22.6713 48.474 24.1902 45.3973 24.1902H43.7032V29H40.2175ZM43.7032 21.4445H45.2221C46.9162 21.4445 47.7341 20.6461 47.7341 19.2246C47.7341 17.7641 46.7994 17.2578 45.1247 17.2578H43.7032V21.4445ZM58.8049 29.2726C54.9297 29.2726 52.924 27.0722 52.924 22.1845V14.4927H56.3902V22.5545C56.3902 25.3001 57.2081 26.2738 58.8049 26.2738C60.3822 26.2738 61.2584 25.3001 61.2584 22.5545V14.4927H64.6078V22.1845C64.6078 27.0722 62.6605 29.2726 58.8049 29.2726ZM67.2696 29V14.4927H70.7553V26.0791H76.4024V29H67.2696ZM78.3236 29V14.4927H81.8092V26.0791H87.4563V29H78.3236ZM89.3775 29V14.4927H98.5687V17.3941H92.8631V20.0814H97.7119V23.0023H92.8631V26.0791H98.7829V29H89.3775ZM103.571 29V23.8786L99.209 14.4927H102.909L104.116 17.7252C104.506 18.8157 104.876 19.8283 105.285 20.9577H105.362C105.771 19.8283 106.161 18.8157 106.57 17.7252L107.777 14.4927H111.419L107.037 23.8786V29H103.571Z" fill="#4582E9"/>
<defs>
<clipPath id="clip0_1215_3704">
<rect width="28.9574" height="29.0253" fill="white" transform="translate(0 20.4758) rotate(-45)"/>
</clipPath>
</defs>
</svg>
