<svg width="24" height="24" viewBox="0 0 24 24" fill="none" xmlns="http://www.w3.org/2000/svg">
<path d="M21.4948 7.04658L16.953 2.50523C16.7929 2.34506 16.6028 2.218 16.3936 2.13131C16.1844 2.04462 15.9602 2 15.7337 2C15.5073 2 15.283 2.04462 15.0738 2.13131C14.8646 2.218 14.6745 2.34506 14.5144 2.50523L2.50519 14.5146C2.34503 14.6747 2.21798 14.8648 2.1313 15.0741C2.04462 15.2833 2 15.5076 2 15.734C2 15.9605 2.04462 16.1848 2.1313 16.394C2.21798 16.6032 2.34503 16.7933 2.50519 16.9534L7.04701 21.4948C7.20711 21.6549 7.39719 21.782 7.60639 21.8687C7.8156 21.9554 8.03984 22 8.26629 22C8.49275 22 8.71698 21.9554 8.92619 21.8687C9.1354 21.782 9.32548 21.6549 9.48558 21.4948L21.4948 9.48536C21.655 9.32525 21.782 9.13515 21.8687 8.92593C21.9554 8.7167 22 8.49245 22 8.26597C22 8.0395 21.9554 7.81524 21.8687 7.60602C21.782 7.39679 21.655 7.20669 21.4948 7.04658ZM8.26586 19.7879L4.21451 15.7362L6.48327 13.4655L8.51067 15.4931C8.70499 15.6874 8.96855 15.7966 9.24336 15.7966C9.51817 15.7966 9.78173 15.6874 9.97605 15.4931C10.1704 15.2987 10.2795 15.0352 10.2795 14.7603C10.2795 14.4855 10.1704 14.2219 9.97605 14.0276L7.94865 12L9.24163 10.7069L11.2682 12.7345C11.4625 12.9288 11.726 13.038 12.0009 13.038C12.2757 13.038 12.5392 12.9288 12.7336 12.7345C12.9279 12.5401 13.037 12.2766 13.037 12.0017C13.037 11.7269 12.9279 11.4633 12.7336 11.269L10.707 9.2414L12 7.9483L14.0274 9.97587C14.2217 10.1702 14.4853 10.2794 14.7601 10.2794C15.0349 10.2794 15.2985 10.1702 15.4928 9.97587C15.6871 9.78154 15.7963 9.51796 15.7963 9.24312C15.7963 8.96828 15.6871 8.70471 15.4928 8.51037L13.4654 6.48279L15.7367 4.21212L19.7881 8.26382L8.26586 19.7879Z" fill="#4582E9"/>
</svg>
