<svg xmlns="http://www.w3.org/2000/svg" width="161" height="150" viewBox="0 0 161 150" fill="none">
  <path d="M24.1429 70.4658H101.918V141.48H24.1429C19.6464 141.48 16 137.832 16 133.335V78.6185C16 74.121 19.6464 70.4658 24.1429 70.4658Z" fill="#E1E1E1"/>
  <path d="M96.9261 104.657H24.4985C23.6785 104.657 23.0137 105.244 23.0137 105.969V105.976C23.0137 106.7 23.6785 107.287 24.4985 107.287H96.9261C97.7462 107.287 98.4109 106.7 98.4109 105.976V105.969C98.4109 105.244 97.7462 104.657 96.9261 104.657Z" fill="#A8ABAC"/>
  <path d="M42.0347 84.7217V92.1202C42.0347 95.0267 39.6727 97.3888 36.7661 97.3888C33.8596 97.3888 31.4976 95.0267 31.4976 92.1202V84.7217C31.4976 81.8072 33.8596 79.4531 36.7661 79.4531C38.2154 79.4531 39.5366 80.0376 40.4894 80.9985C41.4422 81.9433 42.0347 83.2644 42.0347 84.7217Z" fill="#EBEEF1"/>
  <path d="M42.0347 88.4209V92.1201C42.0347 95.0267 39.6727 97.3887 36.7661 97.3887C33.8596 97.3887 31.4976 95.0267 31.4976 92.1201V88.4209H42.0347Z" fill="#F5432B"/>
  <path d="M63.7579 84.7217V92.1202C63.7579 95.0267 61.3958 97.3888 58.4893 97.3888C55.5828 97.3888 53.2207 95.0267 53.2207 92.1202V84.7217C53.2207 81.8072 55.5828 79.4531 58.4893 79.4531C59.9386 79.4531 61.2597 80.0376 62.2125 80.9985C63.1654 81.9433 63.7579 83.2644 63.7579 84.7217Z" fill="#EBEEF1"/>
  <path d="M63.7579 88.4209V92.1201C63.7579 95.0267 61.3958 97.3887 58.4893 97.3887C55.5828 97.3887 53.2207 95.0267 53.2207 92.1201V88.4209H63.7579Z" fill="#F5432B"/>
  <path d="M42.0347 119.552V126.95C42.0347 129.857 39.6727 132.219 36.7661 132.219C33.8596 132.219 31.4976 129.857 31.4976 126.95V119.552C31.4976 116.637 33.8596 114.283 36.7661 114.283C38.2154 114.283 39.5366 114.868 40.4894 115.829C41.4422 116.773 42.0347 118.095 42.0347 119.552Z" fill="#EBEEF1"/>
  <path d="M42.0347 123.251V126.95C42.0347 129.857 39.6727 132.219 36.7661 132.219C33.8596 132.219 31.4976 129.857 31.4976 126.95V123.251H42.0347Z" fill="#F5432B"/>
  <path d="M63.7579 119.552V126.95C63.7579 129.857 61.3958 132.219 58.4893 132.219C55.5828 132.219 53.2207 129.857 53.2207 126.95V119.552C53.2207 116.637 55.5828 114.283 58.4893 114.283C59.9386 114.283 61.2597 114.868 62.2125 115.829C63.1654 116.773 63.7579 118.095 63.7579 119.552Z" fill="#EBEEF1"/>
  <path d="M63.7579 123.251V126.95C63.7579 129.857 61.3958 132.219 58.4893 132.219C55.5828 132.219 53.2207 129.857 53.2207 126.95V123.251H63.7579Z" fill="#F5432B"/>
  <path d="M131.574 33.6436H86.2897C85.2371 33.6436 84.3838 34.4666 84.3838 35.482V44.0791C84.3838 45.0944 85.2371 45.9175 86.2897 45.9175H131.574C132.626 45.9175 133.48 45.0944 133.48 44.0791V35.482C133.48 34.4666 132.626 33.6436 131.574 33.6436Z" fill="#4582E9"/>
  <path d="M144 62.5919V67.8358H72.9863V62.5919C72.9863 54.0032 79.7277 47.0401 88.0429 47.0401V45.918H128.943V47.0401C137.259 47.0401 144 54.0032 144 62.5919Z" fill="#D0DEF0"/>
  <path d="M144 67.835H72.9863V126.575H144V67.835Z" fill="#316BCD"/>
  <path d="M144 126.575V136.028C144 138.067 142.287 139.73 140.17 139.73H139.055V142.356H77.9309V139.73H76.8097C74.6995 139.73 72.9863 138.067 72.9863 136.028V126.575H144Z" fill="#D0DEF0"/>
  <path d="M144 62.5919V67.8358H81.7534V62.5919C81.7534 54.0032 88.4424 47.0401 96.6932 47.0401V45.918H129.06V47.0401C137.311 47.0401 144 54.0032 144 62.5919Z" fill="#EBEEF1"/>
  <path d="M144 67.835H81.7534V126.575H144V67.835Z" fill="#4582E9"/>
  <path d="M144 126.575V136.028C144 138.067 142.3 139.73 140.199 139.73H139.094V142.356H86.6596V139.73H85.5471C83.4533 139.73 81.7534 138.067 81.7534 136.028V126.575H144Z" fill="#EBEEF1"/>
  <path d="M128.219 33.6436H118.575V45.9175H128.219V33.6436Z" fill="#D0DEF0"/>
  <path d="M133.48 67.835H115.945V126.575H133.48V67.835Z" fill="#D0DEF0"/>
</svg>