<svg width="40" height="40" viewBox="0 0 40 40" fill="none" xmlns="http://www.w3.org/2000/svg">
<circle cx="20" cy="20" r="20" fill="#EBEEF1"/>
<g clip-path="url(#clip0_1215_6390)">
<path d="M30.2678 29.1407C29.4091 29.5308 25.4089 31.1999 20.5106 31.1066C17.5601 31.0515 15.9562 31.0616 15.1458 31.0785C14.9603 31.0976 14.7726 31.1066 14.5816 31.1066C14.5344 31.1066 14.4872 31.1043 14.4399 31.1032C14.4276 31.1043 14.4208 31.1043 14.4208 31.1043H14.4231C11.3962 31.02 8.95942 28.5765 8.88973 25.5474C8.81667 22.4103 11.3434 19.7746 14.4804 19.7195C16.6542 19.6824 18.5548 20.8638 19.5462 22.625C20.3004 21.8023 21.3828 21.2864 22.5866 21.2864C23.47 21.2864 24.2883 21.5651 24.9593 22.0383V16.4083C24.9593 15.9171 24.5614 15.5181 24.0702 15.5181H21.1153C20.1486 15.5181 19.3326 14.8741 19.0741 13.9917H22.9103C23.7364 13.9917 24.4097 13.3196 24.4097 12.4923V11.927C24.4097 11.6168 24.1579 11.365 23.8477 11.365C23.5374 11.365 23.2857 11.6168 23.2857 11.927V12.4923C23.2857 12.6992 23.1171 12.8678 22.9103 12.8678H18.9876V11.0177C18.9876 9.84312 19.9396 8.89111 21.1153 8.89111H25.6146C25.6146 8.89111 26.1844 8.82592 27.0252 9.36992C27.6141 9.74871 28.0929 10.277 28.4414 10.8839L30.8669 15.1C31.0243 15.3742 31.1075 15.6844 31.1075 16.0014V28.2629C31.1075 28.2629 31.1266 28.7507 30.2678 29.1407Z" fill="#A8ABAC"/>
</g>
<defs>
<clipPath id="clip0_1215_6390">
<rect width="22.2188" height="22.2222" fill="white" transform="translate(8.88892 8.88867)"/>
</clipPath>
</defs>
</svg>
