<svg xmlns="http://www.w3.org/2000/svg" width="101" height="101" viewBox="0 0 101 101" fill="none">
  <path d="M46.4525 21.0461L46.7992 26.4348C46.7992 26.4348 51.1397 28.6092 51.3738 28.9424C51.6079 29.2755 75.9038 27.5738 75.8452 27.3982C75.7867 27.2226 72.797 12.9157 72.5043 12.7401C72.2117 12.5645 56.7319 13.2668 55.6738 13.2668" fill="#F69582"/>
  <path d="M91.6398 87.1112C88.1998 88.6733 72.1752 95.3586 52.553 94.985C40.7338 94.7644 34.3087 94.8049 31.0623 94.8724C30.3194 94.949 29.5675 94.985 28.802 94.985C28.6129 94.985 28.4238 94.976 28.2347 94.9715C28.1852 94.976 28.1582 94.976 28.1582 94.976H28.1672C16.0418 94.6383 6.28022 84.8512 6.00106 72.7187C5.7084 60.1539 15.8302 49.597 28.3968 49.3764C37.1048 49.2279 44.7186 53.9594 48.6898 61.0138C51.7111 57.7184 56.047 55.6521 60.8693 55.6521C64.4083 55.6521 67.6861 56.7685 70.3742 58.6638V36.1139C70.3742 34.1466 68.7803 32.5484 66.8127 32.5484H54.9754C51.1032 32.5484 47.8344 29.9689 46.7988 26.4349H62.166C65.4754 26.4349 68.1724 23.7428 68.1724 20.4294V18.1649C68.1724 16.9224 67.1638 15.914 65.9211 15.914C64.6784 15.914 63.6699 16.9224 63.6699 18.1649V20.4294C63.6699 21.2577 62.9945 21.933 62.166 21.933H46.4521V14.5229C46.4521 9.81846 50.2657 6.00537 54.9754 6.00537H72.9992C72.9992 6.00537 75.282 5.74426 78.6499 7.92316C81.0092 9.4403 82.9273 11.5562 84.3231 13.9872L94.0396 30.8737C94.67 31.9722 95.0032 33.2147 95.0032 34.4842V83.5952C95.0032 83.5952 95.0797 85.549 91.6398 87.1112Z" fill="#FEC0AD"/>
</svg>