<svg xmlns="http://www.w3.org/2000/svg" width="80" height="80" viewBox="0 0 80 80" fill="none">
  <g clip-path="url(#clip0_1215_6377)">
    <path d="M39.9988 79.9976C62.0895 79.9976 79.9976 62.0895 79.9976 39.9988C79.9976 17.9081 62.0895 0 39.9988 0C17.9081 0 0 17.9081 0 39.9988C0 62.0895 17.9081 79.9976 39.9988 79.9976Z" fill="#EBEEF1"/>
    <path d="M39.9171 66C36.4395 66 34 63.7225 34 60.3865C34 57.0505 36.4372 54.7874 39.9171 54.7874C43.3969 54.7874 46 57.2029 46 60.3865C46 63.5701 43.4128 66 39.9171 66ZM39.8262 14C42.4157 14 45.4753 14.4983 45.5684 16.9735C45.5684 17.8343 45.4594 19.0554 45.2777 20.2869C44.5872 26.4852 42.6065 41.0893 41.7252 51.0746H38.0045C37.0982 41.2397 35.2675 26.9465 34.4702 20.4001C34.3453 19.3355 34.1295 17.7664 34.1295 16.9056C34.1295 14.6116 37.1323 14 39.8285 14H39.8262Z" fill="#FAFAFA"/>
  </g>
  <defs>
    <clipPath id="clip0_1215_6377">
      <rect width="80" height="80" fill="white"/>
    </clipPath>
  </defs>
</svg>