<svg width="45" height="45" viewBox="0 0 45 45" fill="none" xmlns="http://www.w3.org/2000/svg">
<g clip-path="url(#clip0_1503_3326)">
<path d="M22.5 45C10.0932 45 0 34.9068 0 22.5C0 10.0932 10.0932 0 22.5 0C34.9068 0 45 10.0932 45 22.5C45 34.9068 34.9068 45 22.5 45ZM22.5 7.7688C14.3769 7.7688 7.7688 14.3769 7.7688 22.5C7.7688 30.6231 14.3769 37.2312 22.5 37.2312C30.6231 37.2312 37.2312 30.6231 37.2312 22.5C37.2312 14.3769 30.6231 7.7688 22.5 7.7688Z" fill="#D0DEF0"/>
<path d="M22.5 45C10.0932 45 0 34.9068 0 22.5C0 20.3543 1.73866 18.6156 3.8844 18.6156C6.03014 18.6156 7.7688 20.3543 7.7688 22.5C7.7688 30.6231 14.3769 37.2312 22.5 37.2312C30.6231 37.2312 37.2312 30.6231 37.2312 22.5C37.2312 14.3769 30.6231 7.7688 22.5 7.7688C20.3543 7.7688 18.6156 6.03014 18.6156 3.8844C18.6156 1.73866 20.3543 0 22.5 0C34.9068 0 45 10.0932 45 22.5C45 34.9068 34.9068 45 22.5 45Z" fill="#4582E9"/>
</g>
<defs>
<clipPath id="clip0_1503_3326">
<rect width="45" height="45" fill="white"/>
</clipPath>
</defs>
</svg>
