<svg width="24" height="24" viewBox="0 0 24 24" fill="none" xmlns="http://www.w3.org/2000/svg">
<path d="M7.28577 13.7142H14.1429V15.4285H7.28577V13.7142ZM7.28577 9.42847H17.5715V11.1428H7.28577V9.42847ZM7.28577 17.9999H11.5715V19.7142H7.28577V17.9999Z" fill="#4582E9"/>
<path d="M20.1429 2.57143H17.5714V1.71429C17.5714 1.25963 17.3908 0.823593 17.0693 0.502103C16.7478 0.180612 16.3118 0 15.8571 0H9C8.54534 0 8.10931 0.180612 7.78782 0.502103C7.46633 0.823593 7.28571 1.25963 7.28571 1.71429V2.57143H4.71429C4.25963 2.57143 3.82359 2.75204 3.5021 3.07353C3.18061 3.39502 3 3.83106 3 4.28571V22.2857C3 22.7404 3.18061 23.1764 3.5021 23.4979C3.82359 23.8194 4.25963 24 4.71429 24H20.1429C20.5975 24 21.0335 23.8194 21.355 23.4979C21.6765 23.1764 21.8571 22.7404 21.8571 22.2857V4.28571C21.8571 3.83106 21.6765 3.39502 21.355 3.07353C21.0335 2.75204 20.5975 2.57143 20.1429 2.57143ZM9 1.71429H15.8571V5.14286H9V1.71429ZM20.1429 22.2857H4.71429V4.28571H7.28571V6.85714H17.5714V4.28571H20.1429V22.2857Z" fill="#4582E9"/>
</svg>
