<svg width="40" height="40" viewBox="0 0 40 40" fill="none" xmlns="http://www.w3.org/2000/svg">
<circle cx="20" cy="20" r="20" fill="#4582E9"/>
<path d="M21.8757 11.875C21.1882 11.875 20.5994 11.63 20.1094 11.14C19.6194 10.65 19.3749 10.0617 19.3757 9.375C19.3757 8.6875 19.6207 8.09875 20.1107 7.60875C20.6007 7.11875 21.189 6.87417 21.8757 6.875C22.5632 6.875 23.1519 7.12 23.6419 7.61C24.1319 8.1 24.3765 8.68834 24.3757 9.375C24.3757 10.0625 24.1307 10.6513 23.6407 11.1413C23.1507 11.6313 22.5624 11.8758 21.8757 11.875ZM22.5007 33.75C22.1465 33.75 21.8494 33.63 21.6094 33.39C21.3694 33.15 21.2499 32.8533 21.2507 32.5V26.25L18.6257 23.75L17.9069 26.875C17.7403 27.5417 17.3757 28.0575 16.8132 28.4225C16.2507 28.7875 15.6361 28.8967 14.9694 28.75L10.0007 27.75C9.64652 27.6875 9.37027 27.5104 9.17194 27.2188C8.9736 26.9271 8.91652 26.6042 9.00069 26.25C9.06319 25.8958 9.24027 25.6196 9.53194 25.4213C9.8236 25.2229 10.1465 25.1658 10.5007 25.25L15.2507 26.25L17.2507 16.125L15.0007 17V20C15.0007 20.3542 14.8807 20.6513 14.6407 20.8913C14.4007 21.1313 14.104 21.2508 13.7507 21.25C13.3965 21.25 13.0994 21.13 12.8594 20.89C12.6194 20.65 12.4999 20.3533 12.5007 20V17.0313C12.5007 16.5313 12.6361 16.0675 12.9069 15.64C13.1778 15.2125 13.5424 14.9054 14.0007 14.7188L17.4382 13.25C18.1674 12.9375 18.704 12.7342 19.0482 12.64C19.3924 12.5458 19.7099 12.4992 20.0007 12.5C20.4382 12.5 20.8444 12.6146 21.2194 12.8438C21.5944 13.0729 21.8965 13.375 22.1257 13.75L23.3757 15.75C23.834 16.4792 24.4332 17.1042 25.1732 17.625C25.9132 18.1458 26.7515 18.4896 27.6882 18.6563C28.0007 18.6979 28.2561 18.8333 28.4544 19.0625C28.6528 19.2917 28.7515 19.5521 28.7507 19.8438C28.7507 20.2396 28.6099 20.5729 28.3282 20.8438C28.0465 21.1146 27.7186 21.2188 27.3444 21.1563C26.2403 20.9896 25.2194 20.6404 24.2819 20.1088C23.3444 19.5771 22.5424 18.9158 21.8757 18.125L21.1257 21.875L22.9694 23.625C23.2194 23.875 23.4124 24.1513 23.5482 24.4538C23.684 24.7563 23.7515 25.0842 23.7507 25.4375V32.5C23.7507 32.8542 23.6307 33.1512 23.3907 33.3912C23.1507 33.6312 22.854 33.7508 22.5007 33.75Z" fill="#FAFAFA"/>
</svg>
