<svg xmlns="http://www.w3.org/2000/svg" width="22" height="25" viewBox="0 0 22 25" fill="none">
  <g clip-path="url(#clip0_2424_8590)">
    <path d="M15.0557 8.52043L13.8499 9.45219L10.158 12.304C9.65862 12.6899 8.93638 12.3314 8.93638 11.6981V9.45219H6.91444C5.0373 9.45219 3.51031 10.9889 3.51031 12.878C3.51031 14.7672 5.0373 16.3039 6.91444 16.3039H8.07635L6.81088 17.2816C6.29574 17.6799 6.29574 18.4606 6.81088 18.8581L8.07723 19.8366H6.91444C3.10136 19.8366 0 16.7146 0 12.878C0 9.04151 3.10136 5.91947 6.91444 5.91947H8.93638V3.76628C8.93638 3.13304 9.65862 2.77447 10.158 3.16042L13.7297 5.91947L15.0557 6.94396C15.5709 7.34227 15.5709 8.123 15.0557 8.52043Z" fill="#4582E9"/>
    <path d="M22.0003 12.8775C22.0003 16.714 18.898 19.8361 15.0858 19.8361H12.9305V22.0352C12.9305 22.6684 12.2083 23.027 11.7089 22.6411L8.0775 19.8361L6.81116 18.8575C6.29602 18.4601 6.29602 17.6794 6.81116 17.281L8.07663 16.3034L11.7089 13.4975C12.2083 13.1116 12.9305 13.4701 12.9305 14.1034V16.3034H15.0858C16.963 16.3034 18.49 14.7666 18.49 12.8775C18.49 10.9884 16.963 9.45166 15.0858 9.45166H13.8502L15.056 8.51991C15.5711 8.12248 15.5711 7.34175 15.056 6.94343L13.73 5.91895H15.0858C18.898 5.91895 22.0003 9.04098 22.0003 12.8775Z" fill="#4D5055"/>
  </g>
  <defs>
    <clipPath id="clip0_2424_8590">
      <rect width="22" height="25" fill="white"/>
    </clipPath>
  </defs>
</svg>