<svg width="22" height="22" viewBox="0 0 22 22" fill="none" xmlns="http://www.w3.org/2000/svg">
<path d="M18.9568 7.45678L18.9569 7.45689L18.963 7.45033C19.1395 7.26071 19.2356 7.01005 19.2311 6.75105C19.2266 6.49205 19.1219 6.24487 18.939 6.06145L18.9385 6.06099C18.7551 5.87806 18.508 5.77336 18.2489 5.76888C17.9899 5.76441 17.7393 5.86051 17.5497 6.037L17.5496 6.03688L17.5432 6.04322L13 10.5864L10.7068 8.29322L10.7067 8.29311C10.5192 8.10585 10.265 8.00066 10 8.00066C9.735 8.00066 9.48083 8.10585 9.29333 8.29311L9.29322 8.29322L6.04322 11.5432L6.04311 11.5431L6.037 11.5497C5.86051 11.7393 5.76441 11.9899 5.76888 12.2489C5.77336 12.508 5.87806 12.7551 6.06099 12.9385L6.06146 12.939C6.24487 13.1219 6.49205 13.2266 6.75105 13.2311C7.01005 13.2356 7.26071 13.1395 7.45033 12.963L7.45044 12.9631L7.45678 12.9568L10 10.4136L12.2932 12.7068L12.2933 12.7069C12.4808 12.8942 12.735 12.9993 13 12.9993C13.265 12.9993 13.5192 12.8942 13.7067 12.7069L13.7068 12.7068L18.9568 7.45678ZM4.75 16.25V4.75C4.75 4.48478 4.64464 4.23043 4.45711 4.04289C4.26957 3.85536 4.01522 3.75 3.75 3.75C3.48478 3.75 3.23043 3.85536 3.04289 4.04289C2.85536 4.23043 2.75 4.48478 2.75 4.75V17.25C2.75 17.5152 2.85536 17.7696 3.04289 17.9571C3.23043 18.1446 3.48478 18.25 3.75 18.25H18.25C18.5152 18.25 18.7696 18.1446 18.9571 17.9571C19.1446 17.7696 19.25 17.5152 19.25 17.25C19.25 16.9848 19.1446 16.7304 18.9571 16.5429C18.7696 16.3554 18.5152 16.25 18.25 16.25H4.75Z" fill="#4582E9" stroke="#4582E9" stroke-width="0.5"/>
</svg>
