<svg xmlns="http://www.w3.org/2000/svg" width="22" height="25" viewBox="0 0 22 25" fill="none">
  <path d="M19.3436 11.7864C18.739 13.9977 17.4936 16.4816 17.4936 16.4816L15.3108 15.7574L13.562 15.1767C13.562 15.1767 13.291 10.771 13.7195 9.43296C14.1442 8.10647 14.8993 5.93528 16.9933 6.08661C17.0118 6.08815 17.0304 6.0897 17.0497 6.09124C19.1861 6.28659 19.9482 9.57503 19.3436 11.7864Z" fill="#4D5055"/>
  <path d="M17.154 18.4485L16.3471 20.6205C16.0298 21.4737 15.2391 22.0126 14.3836 22.0474C14.101 22.059 13.8115 22.0165 13.5296 21.9115C12.3962 21.4907 11.8179 20.229 12.2387 19.0948L13.0031 17.0371L15.009 17.7197L17.154 18.4485Z" fill="#4D5055"/>
  <path d="M8.12991 11.0969L6.09307 11.7733L4.19829 12.4026C4.19829 12.4026 2.95287 9.91866 2.3483 7.70732C1.81786 5.76699 2.33904 2.99895 3.91724 2.21679C4.13807 2.10715 4.37974 2.03612 4.64226 2.01218C6.77871 1.81684 7.54388 4.01583 7.9724 5.3539C8.40093 6.69198 8.12991 11.0969 8.12991 11.0969Z" fill="#4D5055"/>
  <path d="M8.78794 17.4741C8.60572 17.6231 8.3957 17.7459 8.16252 17.8324C7.02751 18.254 5.76665 17.6756 5.34507 16.5414L4.53821 14.3694L6.77812 13.6081L8.68911 12.958L9.4535 15.0157C9.78783 15.916 9.49211 16.8973 8.78794 17.4741Z" fill="#4D5055"/>
  <path d="M6.09307 11.7733L4.19829 12.4026C4.19829 12.4026 2.95287 9.91866 2.3483 7.70732C1.81786 5.76699 2.33904 2.99895 3.91724 2.2168C4.13035 3.83593 4.74959 7.83472 6.09307 11.7733Z" fill="#313946"/>
  <path d="M8.78794 17.4734C8.60572 17.6224 8.3957 17.7452 8.16252 17.8317C7.02751 18.2532 5.76665 17.6749 5.34507 16.5407L4.53821 14.3687L6.77812 13.6074C7.34331 14.9903 8.0081 16.3168 8.78794 17.4734Z" fill="#313946"/>
  <path d="M13.0031 17.0371L15.009 17.7197C14.806 19.0716 14.5967 20.5147 14.3836 22.0474C14.101 22.059 13.8115 22.0165 13.5296 21.9115C12.3962 21.4907 11.8179 20.229 12.2387 19.0948L13.0031 17.0371Z" fill="#313946"/>
  <path d="M16.9933 6.08661C16.5825 8.18677 15.988 11.4304 15.3108 15.7574L13.562 15.1767C13.562 15.1767 13.291 10.771 13.7195 9.43296C14.1442 8.10647 14.8993 5.93528 16.9933 6.08661Z" fill="#313946"/>
</svg>