<svg xmlns="http://www.w3.org/2000/svg" width="138" height="155" viewBox="0 0 138 155" fill="none">
  <g clip-path="url(#clip0_2770_4128)">
    <path d="M87.207 155H41.9021V148.138C41.9021 125.963 57.2206 107.359 77.8908 102.252V103.052L78.0019 102.252L79.6588 111.739L80.6904 117.659L87.207 155Z" fill="#FAFAFA"/>
    <path d="M100.821 102.255L99.1736 111.701L98.1389 117.627L91.616 155H87.207L80.6905 117.659L79.6589 111.739L78.002 102.252L77.8909 103.052V102.252C81.5634 101.341 85.4041 100.86 89.356 100.86C92.4032 100.86 95.3837 101.145 98.2722 101.695C98.7102 101.777 99.1483 101.866 99.5831 101.961C99.9989 102.053 100.408 102.154 100.821 102.255Z" fill="#FAFAFA"/>
    <path d="M138 59.6768C138 76.9623 123.935 90.9747 106.585 90.9747C100.405 90.9747 94.6441 89.1975 89.7876 86.1268C84.9311 89.1975 79.1668 90.9747 72.9867 90.9747C55.6367 90.9747 41.572 76.9623 41.572 59.6768C41.572 42.3913 55.6367 28.3789 72.9867 28.3789C79.1668 28.3789 84.9311 30.1562 89.7876 33.2268C94.6441 30.1562 100.405 28.3789 106.585 28.3789C123.935 28.3789 138 42.3913 138 59.6768Z" fill="#4582E9"/>
    <path d="M99.1737 111.701L98.1389 117.627L91.616 155H87.2071L80.6905 117.659L79.6589 111.739C82.7093 112.745 85.9692 113.289 89.356 113.289C92.7428 113.289 96.0884 112.729 99.1737 111.701Z" fill="#3A78E1"/>
    <path d="M98.1388 117.627L91.6159 155H87.207L80.6904 117.659C83.4393 118.459 86.3468 118.889 89.3559 118.889C92.365 118.889 95.3551 118.446 98.1388 117.627Z" fill="#4582E9"/>
    <path d="M100.821 84.7168V102.255L99.1736 111.701C96.0884 112.729 92.7872 113.289 89.356 113.289C85.9247 113.289 82.7093 112.745 79.6589 111.739L78.002 102.252L77.8909 103.052V84.7168H100.821Z" fill="#FEC0AD"/>
    <path d="M100.821 84.7168V94.9407C97.2755 96.3511 93.4062 97.1291 89.356 97.1291C85.3057 97.1291 81.4364 96.3511 77.8909 94.9407V84.7168H100.821Z" fill="#F69582"/>
    <path d="M120.275 41.5568V69.6513H58.4363V47.4293C61.2645 48.0175 64.1974 48.3275 67.2001 48.3275C80.3285 48.3275 92.0697 42.4202 99.8972 33.126C105.106 38.3344 112.311 41.5568 120.275 41.5568Z" fill="#4582E9"/>
    <path d="M116.692 44.6494V68.2058H117.647C119.587 68.2058 121.44 67.8327 123.139 67.1528C125.002 66.4096 126.681 65.2933 128.078 63.9019C130.747 61.2392 132.398 57.5645 132.398 53.5072C132.398 48.615 128.417 44.6494 123.507 44.6494H116.692Z" fill="#FEC0AD"/>
    <path d="M63.0073 44.6494V68.2058H62.0519C60.1124 68.2058 58.2587 67.8327 56.5606 67.1528C54.6973 66.4096 53.0182 65.2933 51.6216 63.9019C48.9521 61.2392 47.3015 57.5645 47.3015 53.5072C47.3015 48.615 51.2819 44.6494 56.1923 44.6494H63.0073Z" fill="#FEC0AD"/>
    <path d="M120.275 41.5568V60.1705C120.275 63.4783 119.752 66.666 118.78 69.6513C114.768 82.0256 103.113 90.9751 89.3558 90.9751C75.599 90.9751 63.9435 82.0256 59.9313 69.6513C58.96 66.666 58.4363 63.4783 58.4363 60.1705V47.4293C61.2645 48.0175 64.1974 48.3275 67.2001 48.3275C80.3285 48.3275 92.0697 42.4202 99.8972 33.126C105.106 38.3344 112.311 41.5568 120.275 41.5568Z" fill="#FEC0AD"/>
    <path d="M120.275 30.8046V49.9875C112.311 49.9875 105.106 46.765 99.8972 41.5566C92.0697 50.8508 80.3285 56.7581 67.2001 56.7581C64.1974 56.7581 61.2645 56.4482 58.4363 55.86V30.8046C58.4363 27.4967 58.96 24.3091 59.9313 21.3238C63.9435 8.94948 75.599 0 89.3558 0C103.113 0 114.768 8.94948 118.78 21.3238C119.752 24.3091 120.275 27.4967 120.275 30.8046Z" fill="#4582E9"/>
    <path d="M107.03 75.451C98.2974 75.451 91.1968 68.3737 91.1968 59.6772C91.1968 50.9807 98.3006 43.9033 107.03 43.9033C115.758 43.9033 122.862 50.9807 122.862 59.6772C122.862 68.3737 115.758 75.451 107.03 75.451ZM107.03 47.0657C100.05 47.0657 94.3709 52.7231 94.3709 59.6772C94.3709 66.6312 100.05 72.2887 107.03 72.2887C114.01 72.2887 119.688 66.6312 119.688 59.6772C119.688 52.7231 114.01 47.0657 107.03 47.0657Z" fill="#1A191D"/>
    <path d="M71.6821 75.451C62.9531 75.451 55.8494 68.3737 55.8494 59.6772C55.8494 50.9807 62.9531 43.9033 71.6821 43.9033C80.4111 43.9033 87.5148 50.9807 87.5148 59.6772C87.5148 68.3737 80.4111 75.451 71.6821 75.451ZM71.6821 47.0657C64.7021 47.0657 59.0235 52.7231 59.0235 59.6772C59.0235 66.6312 64.7021 72.2887 71.6821 72.2887C78.6621 72.2887 84.3407 66.6312 84.3407 59.6772C84.3407 52.7231 78.6621 47.0657 71.6821 47.0657Z" fill="#1A191D"/>
    <path d="M92.8474 59.4336H85.9277V62.596H92.8474V59.4336Z" fill="#1A191D"/>
    <path d="M136.81 148.138V155H91.616L98.1389 117.627L99.1737 111.701L100.821 102.255C105.401 103.387 109.718 105.18 113.664 107.53C113.667 107.533 113.67 107.533 113.673 107.536C113.835 107.631 113.994 107.729 114.156 107.827C115.635 108.728 117.057 109.712 118.422 110.768C118.615 110.917 118.809 111.068 119.003 111.223C119.361 111.508 119.714 111.796 120.06 112.093C120.196 112.21 120.336 112.327 120.469 112.444C120.647 112.596 120.821 112.751 120.996 112.906C121.517 113.371 122.028 113.848 122.529 114.335C125.38 117.108 127.878 120.239 129.954 123.655C129.998 123.721 130.039 123.791 130.08 123.86H130.084C130.325 124.259 130.56 124.663 130.785 125.068C134.623 131.893 136.81 139.76 136.81 148.138Z" fill="#FAFAFA"/>
    <path d="M115.238 128.354L120.472 138.012L107.287 149.472L100.932 155H91.616L98.1389 117.627L99.1737 111.701L100.821 102.255C105.401 103.387 109.718 105.18 113.664 107.53C116.889 109.446 119.86 111.732 122.529 114.335C125.38 117.108 127.878 120.239 129.954 123.655L115.238 128.354Z" fill="#FAFAFA"/>
    <path d="M117.139 129.427L122.374 139.084L109.188 150.545L104.065 155.001H100.932L107.287 149.473L120.472 138.012L115.238 128.355L129.954 123.655C129.998 123.722 130.039 123.791 130.08 123.861H130.084C130.325 124.259 130.56 124.664 130.785 125.069L117.139 129.427Z" fill="#EBEEF1"/>
    <path d="M115.238 128.354L120.472 138.012L107.287 149.472L100.932 155H93.7046L100.04 118.699L101.075 112.773L102.722 103.327C106.579 104.279 110.245 105.699 113.664 107.53C116.889 109.446 119.86 111.733 122.529 114.335C125.38 117.109 127.878 120.239 129.954 123.655L115.238 128.354Z" fill="#FAFAFA"/>
    <path d="M62.1216 129.427L56.8874 139.084L70.0728 150.545L75.1959 155.001H78.3289L71.9742 149.473L58.7887 138.012L64.0229 128.355L49.3075 123.655C49.263 123.722 49.2218 123.791 49.1805 123.861H49.1773C48.9361 124.259 48.7012 124.664 48.4758 125.069L62.1216 129.427Z" fill="#EBEEF1"/>
    <path d="M64.0228 128.354L58.7886 138.012L71.9741 149.472L78.3288 155H85.5563L79.2207 118.699L78.1859 112.773L76.5385 103.327C72.6819 104.279 69.0158 105.699 65.5972 107.53C62.3722 109.446 59.4012 111.733 56.7317 114.335C53.8813 117.109 51.3833 120.239 49.3074 123.655L64.0228 128.354Z" fill="#FAFAFA"/>
    <path d="M63.5848 128.354L58.3506 138.012L71.5361 149.472L77.8908 155H87.2069L80.684 117.627L79.6493 111.701L78.0019 102.255C69.6824 104.31 62.2294 108.548 56.2938 114.335C53.4434 117.108 50.9453 120.239 48.8694 123.655L63.5848 128.354Z" fill="#FAFAFA"/>
    <path d="M77.8908 94.9404V97.9858C75.288 100.775 73.6946 104.507 73.6946 108.605V136.314H71.4727V108.605C71.4727 103.121 73.9707 98.2103 77.8908 94.9404Z" fill="#4D5055"/>
    <path d="M107.239 108.605V136.314H105.017V108.605C105.017 104.507 103.424 100.775 100.821 97.9858V94.9404C104.741 98.2103 107.239 103.121 107.239 108.605Z" fill="#4D5055"/>
    <path d="M81.6902 145.162L76.8782 155H74.4055L79.6905 144.194L81.6902 145.162Z" fill="#A8ABAC"/>
    <path d="M70.8379 155H68.3653L63.5564 145.162L65.5529 144.194L70.8379 155Z" fill="#A8ABAC"/>
    <path d="M81.5888 145.102H79.3669C79.3669 141.373 76.3229 138.341 72.5805 138.341C68.8382 138.341 65.7942 141.373 65.7942 145.102H63.5723C63.5723 140.153 67.613 136.127 72.5805 136.127C77.5481 136.127 81.5888 140.153 81.5888 145.102Z" fill="#4D5055"/>
    <path d="M106.128 146.073C110.691 146.073 114.391 142.387 114.391 137.841C114.391 133.295 110.691 129.609 106.128 129.609C101.565 129.609 97.866 133.295 97.866 137.841C97.866 142.387 101.565 146.073 106.128 146.073Z" fill="#E1E1E1"/>
    <path d="M106.128 142.332C108.617 142.332 110.635 140.321 110.635 137.841C110.635 135.361 108.617 133.351 106.128 133.351C103.639 133.351 101.621 135.361 101.621 137.841C101.621 140.321 103.639 142.332 106.128 142.332Z" fill="#A8ABAC"/>
    <path d="M71.4282 155H8.68766L0.187245 131.671C-0.393627 130.084 0.431656 128.326 2.02509 127.747L51.6786 109.785C53.2752 109.209 55.04 110.028 55.6177 111.619L71.4282 155Z" fill="#4D5055"/>
    <path d="M38.0244 112.238L14.0908 120.897L15.9534 126.007L39.887 117.347L38.0244 112.238Z" fill="#A8ABAC"/>
  </g>
  <defs>
    <clipPath id="clip0_2770_4128">
      <rect width="138" height="155" fill="white"/>
    </clipPath>
  </defs>
</svg>