<svg width="40" height="40" viewBox="0 0 40 40" fill="none" xmlns="http://www.w3.org/2000/svg">
<circle cx="20" cy="20" r="20" fill="#EBEEF1"/>
<g clip-path="url(#clip0_1215_6382)">
<path d="M16.1759 8.9227L12.1059 9.51482C10.7639 9.71053 9.70944 10.765 9.51473 12.106L8.9226 16.176C8.77282 17.2025 9.11731 18.239 9.85023 18.9719L21.1815 30.3032C22.2579 31.3796 24.0044 31.3806 25.0818 30.3032L30.3021 25.0829C31.3785 24.0064 31.3785 22.259 30.3021 21.1816L18.9718 9.85133C18.2389 9.11841 17.2024 8.77392 16.1759 8.9227ZM24.0223 25.5302C24.4088 25.9166 24.4088 26.5417 24.0223 26.9281C23.6359 27.3146 23.0108 27.3136 22.6254 26.9281L16.3367 20.6394C15.9502 20.253 15.9502 19.6279 16.3367 19.2425C16.5304 19.0488 16.783 18.9529 17.0356 18.9529C17.2883 18.9529 17.5409 19.0488 17.7346 19.2425L24.0233 25.5312L24.0223 25.5302ZM12.7869 15.4341C12.055 14.7022 12.055 13.5169 12.7869 12.786C13.5188 12.0551 14.7041 12.0551 15.435 12.786C16.1659 13.5169 16.1669 14.7022 15.435 15.4341C14.7031 16.166 13.5188 16.166 12.7869 15.4341ZM26.928 22.6245C27.3145 23.0109 27.3145 23.636 26.928 24.0214C26.5416 24.4069 25.9165 24.4079 25.5301 24.0214L19.2414 17.7327C18.855 17.3463 18.855 16.7212 19.2414 16.3348C19.4341 16.142 19.6867 16.0462 19.9394 16.0462C20.192 16.0462 20.4446 16.142 20.6383 16.3358L26.927 22.6245H26.928Z" fill="#A8ABAC"/>
</g>
<defs>
<clipPath id="clip0_1215_6382">
<rect width="22.2222" height="22.2222" fill="white" transform="translate(8.88892 8.88867)"/>
</clipPath>
</defs>
</svg>
