<svg width="45" height="47" viewBox="0 0 45 47" fill="none" xmlns="http://www.w3.org/2000/svg">
<ellipse cx="22.5" cy="23.5" rx="22.5" ry="23.5" fill="#FAFAFA"/>
<path fill-rule="evenodd" clip-rule="evenodd" d="M16.5794 15.7692C16.5794 14.129 17.2032 12.556 18.3137 11.3963C19.4241 10.2365 20.9301 9.58496 22.5005 9.58496C24.0708 9.58496 25.5769 10.2365 26.6873 11.3963C27.7977 12.556 28.4215 14.129 28.4215 15.7692C28.4215 17.4093 27.7977 18.9823 26.6873 20.1421C25.5769 21.3018 24.0708 21.9534 22.5005 21.9534C20.9301 21.9534 19.4241 21.3018 18.3137 20.1421C17.2032 18.9823 16.5794 17.4093 16.5794 15.7692ZM16.5794 25.0455C14.6165 25.0455 12.7339 25.8599 11.3459 27.3096C9.95788 28.7593 9.1781 30.7256 9.1781 32.7758C9.1781 34.0059 9.64597 35.1856 10.4788 36.0554C11.3116 36.9252 12.4411 37.4139 13.6189 37.4139H31.382C32.5598 37.4139 33.6894 36.9252 34.5222 36.0554C35.355 35.1856 35.8228 34.0059 35.8228 32.7758C35.8228 30.7256 35.0431 28.7593 33.655 27.3096C32.267 25.8599 30.3845 25.0455 28.4215 25.0455H16.5794Z" fill="#A8ABAC"/>
</svg>
