<svg xmlns="http://www.w3.org/2000/svg" width="104" height="101" viewBox="0 0 104 101" fill="none">
  <path d="M82.2704 9.71191H21.7296C15.2515 9.71191 10 14.9877 10 21.4958V79.5049C10 86.013 15.2515 91.2888 21.7296 91.2888H82.2704C88.7485 91.2888 94 86.013 94 79.5049V21.4958C94 14.9877 88.7485 9.71191 82.2704 9.71191Z" fill="#4582E9"/>
  <path d="M70.2433 35.2292H33.7587C32.1672 35.2292 30.9213 33.8213 31.144 32.2379C32.5896 21.966 41.3762 14.0664 52 14.0664C62.6238 14.0664 71.4124 21.966 72.858 32.2379C73.0806 33.8213 71.8347 35.2292 70.2433 35.2292Z" fill="#FAFAFA"/>
  <path d="M63.5782 35.2292H40.4224C40.4224 28.8049 45.6057 23.5977 52.0003 23.5977C53.9565 23.5977 55.8033 24.0856 57.4197 24.9496C57.9688 25.2408 58.489 25.5764 58.9824 25.9506C61.7756 28.074 63.5801 31.4394 63.5801 35.2292H63.5782Z" fill="#D0DEF0"/>
  <path d="M60.9808 23.1721L60.5028 23.9281L53.3153 35.2299H50.6411L58.6003 22.7093L59.0822 21.9532C59.4162 21.4248 60.1131 21.2705 60.6391 21.6061C61.1632 21.9436 61.3187 22.6456 60.9827 23.1721H60.9808Z" fill="#4D5055"/>
  <path d="M82.8 23.7231C85.0096 23.7231 86.8008 21.9236 86.8008 19.7038C86.8008 17.4841 85.0096 15.6846 82.8 15.6846C80.5905 15.6846 78.7993 17.4841 78.7993 19.7038C78.7993 21.9236 80.5905 23.7231 82.8 23.7231Z" fill="#D0DEF0"/>
  <path d="M20.3108 23.7231C22.5203 23.7231 24.3115 21.9236 24.3115 19.7038C24.3115 17.4841 22.5203 15.6846 20.3108 15.6846C18.1012 15.6846 16.3101 17.4841 16.3101 19.7038C16.3101 21.9236 18.1012 23.7231 20.3108 23.7231Z" fill="#D0DEF0"/>
  <path d="M82.8 84.8588C85.0096 84.8588 86.8008 83.0593 86.8008 80.8396C86.8008 78.6198 85.0096 76.8203 82.8 76.8203C80.5905 76.8203 78.7993 78.6198 78.7993 80.8396C78.7993 83.0593 80.5905 84.8588 82.8 84.8588Z" fill="#D0DEF0"/>
  <path d="M20.3108 84.8588C22.5203 84.8588 24.3115 83.0593 24.3115 80.8396C24.3115 78.6198 22.5203 76.8203 20.3108 76.8203C18.1012 76.8203 16.3101 78.6198 16.3101 80.8396C16.3101 83.0593 18.1012 84.8588 20.3108 84.8588Z" fill="#D0DEF0"/>
</svg>