<svg xmlns="http://www.w3.org/2000/svg" width="21" height="25" viewBox="0 0 21 25" fill="none">
  <path d="M0 2H21V2.94584C21 4.75725 19.5288 6.22846 17.7174 6.22846H3.28262C1.4712 6.22846 0 4.75817 0 2.94584V2Z" fill="#4582E9"/>
  <path d="M12.02 6.22852H8.97913V8.79423H12.02V6.22852Z" fill="#D0DEF0"/>
  <path d="M19.7252 21.1938H1.27544C0.607794 21.1938 0.0988468 20.5946 0.207386 19.9351L1.66491 11.0915C1.8829 9.76624 3.02849 8.79395 4.372 8.79395H16.6287C17.9713 8.79395 19.1178 9.76624 19.3358 11.0915L20.7933 19.9351C20.9018 20.5946 20.3938 21.1938 19.7252 21.1938Z" fill="#4582E9"/>
  <path d="M19.4555 21.1943H1.54382V23.0003H19.4555V21.1943Z" fill="#4D5055"/>
  <path d="M10.5002 19.4867C12.9101 19.4867 14.8637 17.5331 14.8637 15.1232C14.8637 12.7133 12.9101 10.7598 10.5002 10.7598C8.09036 10.7598 6.13678 12.7133 6.13678 15.1232C6.13678 17.5331 8.09036 19.4867 10.5002 19.4867Z" fill="#EBEEF1"/>
  <path d="M10.5003 16.0299C10.0005 16.0299 9.59277 15.6231 9.59277 15.1224C9.59277 14.6216 9.99957 14.2148 10.5003 14.2148C11.001 14.2148 11.4078 14.6216 11.4078 15.1224C11.4078 15.6231 11.001 16.0299 10.5003 16.0299ZM10.5003 14.763C10.3015 14.763 10.14 14.9245 10.14 15.1233C10.14 15.3221 10.3015 15.4836 10.5003 15.4836C10.6991 15.4836 10.8606 15.3221 10.8606 15.1233C10.8606 14.9245 10.6991 14.763 10.5003 14.763Z" fill="#4D5055"/>
  <path d="M10.9326 14.9011C10.8623 14.9011 10.7921 14.8747 10.7392 14.8209C10.6325 14.7141 10.6325 14.5408 10.7392 14.4341L12.2232 12.9502C12.3299 12.8434 12.5032 12.8434 12.6099 12.9502C12.7166 13.0569 12.7166 13.2302 12.6099 13.3369L11.1259 14.8209C11.0721 14.8747 11.0028 14.9011 10.9326 14.9011Z" fill="#4D5055"/>
</svg>