<svg width="24" height="24" viewBox="0 0 24 24" fill="none" xmlns="http://www.w3.org/2000/svg">
<path d="M18.3067 4.83256H16.6377V3.84631C16.6377 3.37889 16.2616 3 15.7976 3H15.6417C15.1777 3 14.8015 3.37889 14.8015 3.84631V4.83256H9.19751V3.84631C9.19751 3.37889 8.82139 3 8.35738 3H8.20145C7.73744 3 7.36132 3.37889 7.36132 3.84631V4.83256H5.69334C4.20775 4.83256 3 6.04919 3 7.54569V18.2869C3 19.7824 4.20775 21 5.69334 21H18.3067C19.7913 21 21 19.7834 21 18.2869V7.54569C21 6.05014 19.7922 4.83256 18.3067 4.83256ZM18.3067 18.9056H5.69334C5.35502 18.9056 5.07907 18.6277 5.07907 18.2869V11.1775H18.9209V18.2869C18.9209 18.6277 18.645 18.9056 18.3067 18.9056Z" fill="#FAFAFA"/>
</svg>
