<svg width="18" height="18" viewBox="0 0 18 18" fill="none" xmlns="http://www.w3.org/2000/svg">
<path d="M15.3067 1.83256H13.6377V0.846308C13.6377 0.378887 13.2616 0 12.7976 0H12.6417C12.1777 0 11.8015 0.378887 11.8015 0.846308V1.83256H6.19751V0.846308C6.19751 0.378887 5.82139 0 5.35738 0H5.20145C4.73744 0 4.36132 0.378887 4.36132 0.846308V1.83256H2.69334C1.20775 1.83256 0 3.04919 0 4.54569V15.2869C0 16.7824 1.20775 18 2.69334 18H15.3067C16.7913 18 18 16.7834 18 15.2869V4.54569C18 3.05014 16.7922 1.83256 15.3067 1.83256ZM15.3067 15.9056H2.69334C2.35502 15.9056 2.07907 15.6277 2.07907 15.2869V8.17749H15.9209V15.2869C15.9209 15.6277 15.645 15.9056 15.3067 15.9056Z" fill="#4582E9"/>
</svg>
